/* XPM */
static char *d7e32e31f6504b9c92db1c0e22b1fe241aJm1ptQ8KaW5rUK[] = {
/* columns rows colors chars-per-pixel */
"64 64 256 2 ",
"   c #030202",
".  c #0A0101",
"X  c #0C0B03",
"o  c #06090A",
"O  c #140101",
"+  c #1B0201",
"@  c #160B06",
"#  c #181403",
"$  c #0F131B",
"%  c #191816",
"&  c #0B0F12",
"*  c #230300",
"=  c #2B0400",
"-  c #2A0B05",
";  c #3B0B01",
":  c #350902",
">  c #281409",
",  c #381509",
"<  c #271816",
"1  c #391716",
"2  c #250C12",
"3  c #292619",
"4  c #362918",
"5  c #37331B",
"6  c #2C280D",
"7  c #3B1E25",
"8  c #272625",
"9  c #352A27",
"0  c #39342A",
"q  c #3A3835",
"w  c #2A2C34",
"e  c #1C221D",
"r  c #450C02",
"t  c #431302",
"y  c #491709",
"u  c #571905",
"i  c #451B15",
"p  c #531D15",
"a  c #651D04",
"s  c #661A12",
"d  c #59250A",
"f  c #47261C",
"g  c #582718",
"h  c #4C3218",
"j  c #6A250B",
"k  c #6C2312",
"l  c #682B17",
"z  c #742B16",
"x  c #69331D",
"c  c #79341A",
"v  c #742A0D",
"b  c #451F21",
"n  c #492A26",
"m  c #572B24",
"M  c #473727",
"N  c #593529",
"B  c #483A36",
"V  c #583835",
"C  c #522C32",
"Z  c #642C23",
"A  c #6A2D28",
"S  c #6B3224",
"D  c #67362A",
"F  c #733B2B",
"G  c #783826",
"H  c #633934",
"J  c #773C32",
"K  c #772721",
"L  c #3A4233",
"P  c #70411A",
"I  c #494437",
"U  c #58453A",
"Y  c #51482E",
"T  c #6B472A",
"R  c #7C422C",
"E  c #794428",
"W  c #664637",
"Q  c #774537",
"!  c #715831",
"~  c #796338",
"^  c #553C43",
"/  c #4A4741",
"(  c #5C4A44",
")  c #575449",
"_  c #5A5D53",
"`  c #674B46",
"'  c #744A48",
"]  c #67564A",
"[  c #755449",
"{  c #695655",
"}  c #765655",
"|  c #6E4C54",
" . c #78685B",
".. c #706951",
"X. c #796765",
"o. c #7D7667",
"O. c #77766F",
"+. c #7E5A64",
"@. c #8C3B1D",
"#. c #86371B",
"$. c #933C1D",
"%. c #9B3D1C",
"&. c #963A18",
"*. c #823011",
"=. c #A33E1D",
"-. c #843B23",
";. c #8C3C24",
":. c #843D2B",
">. c #8B3D2B",
",. c #893624",
"<. c #933C23",
"1. c #9A3E23",
"2. c #933D2A",
"3. c #973C2A",
"4. c #8A3C33",
"5. c #913F34",
"6. c #A03D22",
"7. c #86421F",
"8. c #95431D",
"9. c #9A431D",
"0. c #9B4A1E",
"q. c #96491D",
"w. c #9E501F",
"e. c #A24A1E",
"r. c #A2441D",
"t. c #A0501D",
"y. c #8C4124",
"u. c #84432B",
"i. c #8C442B",
"p. c #88472A",
"a. c #944323",
"s. c #9B4323",
"d. c #954B24",
"f. c #9C4B23",
"g. c #93422A",
"h. c #9A432A",
"j. c #944B2B",
"k. c #9C4B2A",
"l. c #9B5124",
"z. c #95532C",
"x. c #995429",
"c. c #8D4433",
"v. c #8C4C33",
"b. c #8B4C3A",
"n. c #844736",
"m. c #964A33",
"M. c #895339",
"N. c #945333",
"B. c #9A5332",
"V. c #97563A",
"C. c #8F542A",
"Z. c #A14323",
"A. c #A34C23",
"S. c #A14D28",
"D. c #A84926",
"F. c #A35325",
"G. c #A35329",
"H. c #A25839",
"J. c #9A6837",
"K. c #8A6538",
"L. c #A26837",
"P. c #AB7035",
"I. c #894C43",
"U. c #8A5649",
"Y. c #985747",
"T. c #8F5B56",
"R. c #976A45",
"E. c #856459",
"W. c #92724D",
"Q. c #A6774A",
"!. c #A9714F",
"~. c #876966",
"^. c #897667",
"/. c #96726F",
"(. c #A97A7A",
"). c #AA736B",
"_. c #978359",
"`. c #B18C54",
"'. c #8B846A",
"]. c #8A8677",
"[. c #948D7B",
"{. c #9B8D7D",
"}. c #938977",
"|. c #96917B",
" X c #9A947C",
".X c #998469",
"XX c #B39D79",
"oX c #AA8E70",
"OX c #B5A26F",
"+X c #C49F74",
"@X c #9A7980",
"#X c #978C83",
"$X c #8D9184",
"%X c #9B9383",
"&X c #999587",
"*X c #9E9C91",
"=X c #8D8D85",
"-X c #A29B84",
";X c #A5988A",
":X c #A39B91",
">X c #B29590",
",X c #ABA289",
"<X c #ABA796",
"1X c #BAB59D",
"2X c #B7AC93",
"3X c #BBB5A6",
"4X c #B2ADA4",
"5X c #98A091",
"6X c #C6AE86",
"7X c #CBB58A",
"8X c #C5BB9A",
"9X c #D5B88B",
"0X c #C5BDA4",
"qX c #CBBEA4",
"wX c #C5BDAA",
"eX c #CCBEAB",
"rX c #C4B4A7",
"tX c #D2BEA8",
"yX c #CEBEB2",
"uX c #D6A694",
"iX c #BFC2AB",
"pX c #CEC39E",
"aX c #DEC79B",
"sX c #CDC3A5",
"dX c #CFC3A9",
"fX c #C7C5A9",
"gX c #D1C3A6",
"hX c #D2C4AB",
"jX c #D3C9AC",
"kX c #D9C9AB",
"lX c #CCC3B2",
"zX c #CAC8B5",
"xX c #D3C5B2",
"cX c #D3CAB3",
"vX c #D4CBBA",
"bX c #D9CAB7",
"nX c #D9D3BA",
"mX c #D7D1AC",
"MX c #E3D8BC",
"NX c #EECEAF",
"BX c #F5E7BB",
"VX c #F2CA9F",
"CX c #D7CCC1",
"ZX c #DAD5C3",
"AX c #CACBC4",
"SX c #E3D6C4",
"DX c #EBD7C7",
"FX c #F8E9C6",
"GX c #FBF3CA",
"HX c #FDF4DC",
"JX c #FFFCDC",
"KX c #FCF7D4",
"LX c #EEE8D1",
"PX c #FEFCE8",
"IX c #FDFEF5",
"UX c #F3EFE3",
/* pixels */
"dXdXdXdXdXdXgXdXdXgXdXdXeXdXdXdXfXfXlXxXyXdXlXdXdXgXhXqXdXjXiXiXfXmXmXmXnXmXcXnXfXcX0XdXhXgXtXgXqXkXhXhXhXqXjXhXdXdXdXgXdXdXsXjX",
"dXhXdXdXdXdXdXdXdXdXdXgXgXhXdXdXjXfXjXhXxXdXdXdXqXcX8XkXqXfXzXnXfX,X'.'.'.}.-X1XcXmXZXMXMXbXhXhXkXqXhXhXqXjXhXhXdXdXdXdXdXsXdXsX",
"gXdXdXgXdXdXdXhXdXdXdXdXdXdXdXsXfXgXsXsXhXhXdXdXgXeXxXhXdXcXfX..6 # 5 5 # 5 # X # 5 Y ..X.-XbXcX0XjXqXcXdXdXjXsXgXeXgXdXdXdXdXdX",
"dXdXdXdXhXdXdXqXdXgXdXdXhXdXdXgXgXsXgXgXhXdXgXdXcXeXqXcXcX..# 5 '.mXMX'.2XKXmXpX,X|.W.....h M ;XbXeXdXeXxXdXdXdXdXdXhXdXdXdXdXdX",
"dXdXdXgXdXdXdXhXhXdXdXdXdXdXdXsXdXsXsXgXgXgXdXhXdXlXzXiXY # ,XKXKX7XW...OXOXOX+X+XaXaX+X6XXXT # ^.ZXfXdXeXdXdXdXsXdXgXhXjXtXxXdX",
"hXdXdXdXdXdXdXdXdXdXdXgXdXdXdXgXdXdXgXsXgXgXhXtXlXfXzX6 6 BXKXBXOX~ T `.`.`.`.P.L.P.x.P.R.R.R.T > ;XbXeXcXdXsXgXsXdXhXhXdXhXeXxX",
"dXdXdXdXgXdXdXdXdXdXdXdXhXdXhXdXdXdXdXdXgXgXhXxXlXvXI 6 GXKXGX7X.XT M.R.J.x.F.t.F.F.F.k.N.V.V.Q Y > 8XbXwXjXbXqXgXsXdXdXhXeXxXtX",
"dXdXdXgXdXdXdXgXdXdXdXdXdXdXdXdXlXdXdXdXhXgXtXhXvX[.  1XPXGXBXOXK.P E z.l.t.t.t.r.r.D.G.S.B.H.E W U 4 bXxXqXgXhXsXgXhXdXhXhXhXhX",
"hXdXdXgXgXdXdXdXgXdXdXdXhXdXdXdXxXeXxXdXjXqXyXtXAX5 I JXKXGXaXW.! j C.V.B.S.e.A.e.D.e.D.F.G.B.E N ~.- rXxXhXdXhXjXsXdXgXdXdXdXdX",
"dXdXdXdXdXdXdXhXdXdXdXdXdXdXqXhXdXjXdXdXdXeXxXbX<X  <XPXKXJX6XW.T D Q E R u.p.i.j.j.x.B.N.N.B.R N  ., rXyXhXtXeXgXjXgXdXsXdXsXjX",
"dXdXdXdXdXdXdXdXdXdXdXgXdXgXhXdXdXsXsXjXqXdXwXCXI 0 IXUXvX,XW h > + + - + O - > > , 1 h m N T U n  .< rXbXbXfXfXdXsXdXdXjXsXjXsX",
"dXdXdXgXdXdXhXqXgXdXdXdXdXdXdXdXgXgXpXgXdXdXbX3XX O.*X/ #   . O < < &     &       . . . . + > 2 9 U 0 { /.3XCXvXfXcXfXjXfXsXjXsX",
"dXdXdXdXdXdXdXgXdXdXdXdXdXdXdXdXgXgXjXdXeXzXvXU . % . @ < 0 B *XO.q 8   o       o o   .   . . . . O @ 8 q I ) ,XvXzXfXwXjXjXsXsX",
"tXdXgXdXdXhXdXdXdXgXdXdXdXgXgXdXsXqXgXhXxXwX3 3 X . / X.X.;X3XB ) AX_ o                     .       . . & # 0 0 { wXvXlX0XjXqXsX",
"dXgXdXdXdXdXdXdXdXdXhXdXdXgXdXdXjXeXxXyXCXU q $X3X3 . O X % 0 < ) IXAXe     . . .               o o   o   o X 8 q q 3XvXdXdXdXhX",
"dXdXdXdXdXdXgXdXdXgXdXdXdXdXdXdXqXcXeXfXyXq X.9 :X:XO ] >X^.4 < q 4XO./ X         . .         o o o o o & o &   % 0 I lXlXgXgXgX",
"dXdXdXdXdXgXdXdXdXdXhXdXdXdXdXhXgXgXfXfXfX5 X.;X<X:XM tXFXoXY.y @ 9 I q e X   X 2 2 @ .   o o o       & $ $ $ $ $ $ 8 4XcXjXsXpX",
"dXgXhXdXdXdXdXdXgXeXdXdXdXgXdXhXtXhXfXzXcX5 2X^.].5X-XNXFX+X).,.i 2 O . X   @ > 1 C < O       o o   w e q w w w w o B AXwXdX8XkX",
"dXgXdXdXdXhXgXeXdXgXdXhXdXdXgXtXbXtXhX0XnX .'.LX]._ LXSXHXNX).!.Q m m n 4 , i b n b 1 2 . @ &     w w % q w 8 $   ) 3XzXdXgXhXgX",
"dXdXdXdXdXdXdXgXdXdXdXdXdXdXdXhXtXyXvXyXgXlX8 3X4X8 IXUXLXFXuXP.Y.G S D N m A J A m ` n 2 2 O w / / I B L q I X.<XvX3XCXdXhXgXgX",
"gXdXdXdXdXgXdXdXdXgXdXdXdXdXdXhXyXxXyXfXdXlX<X) % $XIXPXHXKXVX!.H.z x D D n i r ' ' m T.H n | ^ X.=XAXCXvXCXvXZXvX0XhXeXeXjXtXhX",
"dXdXdXdXdXdXdXdXdXdXdXdXgXdXdXdXhXqXdXcXlXwXZX$X  AXIXUXHXKXVX!.m.z S g b 1 1 1 D D i Q D ^ @X| CXCXlXwXzXlXdX0XqXhXhXhXcXeXtXhX",
"qXhXdXhXgXdXdXgXgXdXdXgXdXdXdXdXqXkXsXdXdXcXzXw X AXPXKXGXGXNX!.n.x g , = : 1 1 1 , i n m (.^ @XvXwXlXcXqXeXdXgXgXdXhXjXqXtXxXhX",
"hXdXdXdXdXdXdXdXdXdXdXdXdXdXdXdXdXsXsXdXdXcX5Xe _ ..PXKXGXBXVX!.Q x x f 1 1 1 1 1 1 - f ~.} | CXeXeXlXqXgXjXdXgXgXhXhXjXqXjXtXhX",
"dXdXdXgXdXdXdXdXhXqXdXdXdXdXeXdXsXjXdXsXqXZX..L LXX o.pXFXGXVX!.M.m Z m m C ' C b 1 1 ~.@XC yXbXjXfXsXdXgXhXhXhXhXgXhXhXdXdXhXdX",
"dXdXdXdXdXgXgXdXdXdXhXqXjXgXdXjXfXsXgXjXvXvX8 $XIX].X Y .X6X+XH.G S J D m | | } | ` | >X^ >XNXtXsXsXsXsXdXeXhXhXhXtXhXhXdXdXdXdX",
"dXdXdXdXdXdXdXhXsXdXgXdXdXjXqX0XjXfXlXvXU 4 X ZXPXDX[ > h T n.R c z S Z f + > 1 b b @X} | NXyXxXgXgXsXjXdXdXdXdXhXlXhXhXgXsXsXsX",
"dXdXgXdXdXdXdXdXdXqXhXjXqXeXjXjX0XdXZXX.@ _ 0 PXHXGX>XQ ; i Q E Z x x A D , + O i ~.' H bXyXyXyXgXgXsXsXhXdXjXlXlXhXdXeXdXfXjXsX",
"gXdXdXhXdXdXdXdXjXeXqXdXdXgXjXqXsXfXiXX *X].# MXPXBXT.Y.J , = m Q D l Z g m f ` ~.( ` bXvXfXzXfXfXgXsXjXfXdXdXlXdXlXdXdXdXgXdXdX",
"dXdXdXdXqXdXdXdXqXjXdXqXjXdXqXxXeXLX) 3 UXPXo.6 ^.(.U.b.J D m = , m Q I.Q ' ~.X.( /.CXyXfXfXmXfXfXsXdXdXjXdXdXdXdXdXdXsXdXdXdXdX",
"dXhXdXdXhXhXdXdXdXdXdXjXdX8XdXnXyX( X fXJXFXPX,Xi h T.R Z F N N , = : n ^ V C X.rXSXhXxXtXqXfXfXdXxXgXdXdXdXsXfXdXjXdXdXdXhXgXgX",
"gXdXdXdXdXdXhXgXhXqXqXdXdXSXcX^.> )  XKXGXKX8XoXOXT t x F F D N D V C i ^ 7 O 4XSXeXxXtXtXcXdXfXdXdXdXdXdXfXjXdXsXdXdXdXhXhXhXxX",
"gXhXdXzXlXxXsXpXgXmXnXnX1X'.M 5 2XJXmX XGX7X_._.Q.Q.E y u Q F Z Z Z A U.uX^ 7 ( 8XcXyXvXwXxXpXsXsXfXgXfXdXdXdXhXjXeXdXdXdXdXxXlX",
"qXjXfXfXzXfXcXnXjXXX .Y M ..1XKXJXBXKXY h oXQ.Q.B.x.B.N.g t m D Z J :.T.' b V X.1 2XvXrXyXxXkXpXsXfXfXgXdXhXxXeXeXdXgXsXdXdXdXdX",
"kXtXfXzXCXzX|.I # # I  XMXKXGXBXaX7XmXpX5 5 R.C.d.x.l.a.B.E y t J Q A I.m V * ~.n M DXhXcXgX8XgXsXsXjXjXhXyXdXhXdXhXdXsXsXgXhXgX",
"tXgXnX<X) # # I ,XLXKXKXBXpX_.`._.K.OXGX1X5 t V.B.d.0.d.d.j.p.g t p S Z p = Z E./.* >XbXgXqXkXgXgXhXgXgXhXxXtXfXhXjXdXsXsXgXgXgX",
"bX;XM   5 $XLXJXKXmX XW.! ! K.J.P.J.~ DX .Y W t V.x.f.f.q.a.j.Y.R y t f 1 n b.b./.D U vX0XsXhXtXxXgXhXhXtXhXdXdXdXfXdXdXgXpXpXpX",
"4 . 0 8XJXKXBXOXW.~ ! K.Q.J.L.l.C.C.! W.8X.X] - d H.d.f.A.8.s.i.b.U.n > - m I.Y.U.).< *XnXsXqXtXkXtXgXgXgXhXjXjXdXdXxXhXgXgXgXmX",
"I rXPXKXmX_.~ K.J.Q.`.J.x.d.l.0.l.x.H.x T [  .] + E H.q.9.S.k.k.b.g - N H ; = F U.[ 8 8 3XSXlXeXtXeXhXdXsXgXsXgXxXdXdXdXsXjXgX8X",
"nX1X8X_.~ K.`.Q.J.z.x.j.k.F.0.F.l.d.G.V.t [  .I 4 y p.k.s.k.s.B.u * : D T./.p = Z n X.< 1 X.vXvXyXfXdXdXsXsXgXfXjXeXlXdXdXzXpX X",
"kX+XW.P J.P.L.C.d.l.l.0.A.e.D.e.0.w.f.x.l i ] }.] > x k.a.h.B.v ; F S J g p :.l + n ~.^ } 7 4 >XCXzXfX1X1XpXjXsXdXdXhXeXeXcX,X[.",
"OXOX`.`.K.P c x.B.f.F.e.F.e.D.A.t.q.F.f.b.y n ` U n d n.m.k.p.t R N.-.l Q F p.n.h - | +.C (.V * ( 4X:X[.|.|. XqXdXqXbXdXeXcX;X[.",
"`.`.F.t.L.z.c c x.x.l.t.F.0.S.f.F.t.0.G.y.V.; N /.U , g n.V.u c k.h.m.k n.v.p.7.b.: V X.n H )./.1 @ ) %X%X X}.-XgXdXqXgXsXjX1X|.",
"P.P.t.F.q.d.G.j c x.C.l.e.t.A.S.q.F.A.f.l.z.T , U ( ` < D F c j.9.1.B.l c C.d.#.v.p n X.i Q 4.I.(.} O - X.,X#X#XjXqXdXqX0XjX,X|.",
"P.F.t.t.S.f.H.z u x.C.d.f.A.k.S.S.f.A.0.q.l.p.d > /.U M + F c.f.Z.Z.h.-.u z.d.7.m.S 2 } H S m.c.n.).(.H + ` :X#XlXjXcXgXjXfX X|.",
"F.t.e.e.A.A.B.V.u E x.x.q.A.S.A.D.0.A.q.0.l.d.M.y f B ^.4 N Y.1.Z.9.k.j.u p.i.8.y.F : E.H S m.h.h.4.Y.(.} O B ;XzX1X,X X%X X|. X",
"0.A.A.D.e.k.d.V.l j j.j.f.f.A.9.9.0.f.f.f.f.d.j.R : W U V t S V.k.a.k.k.u k m.a.y.E i V ' g g.s.6.D.<.I.(.~.O 9 &X#X|.|.[.%X[.#X",
"k.S.r.e.A.f.j.j.i.r m.j.A.r.A.r.0.0.q.d.f.s.S.s.m.x , n E.[ y x v.i.y.j.G r p.v.u.F : ~.m A j.Z.=.=.6.3.I.(.| O ) *X|.|.&X[.#X%X",
"S.S.A.r.A.9.l.d.V.u c m.h.s.f.a.q.8.q.s.s.s.s.8.h.u.T = U [ W , h p.v.>.p.t G M.M.D - | m R g.Z.=.%.%.Z.5.4.@XC + #X|. X X|.[.#X",
"S.f.e.9.A.9.0.d.m.l r b.g.g.h.a.q.8.8.1.Z.%.%.9.8.j.v.g t n ^.] , ; Q b.M.l ; U.Q , W ` ; G k.%.=.9.1.Z.3.4.Y.).O | -X|.|.{.&X#X",
"f.d.0.0.9.s.s.8.B.c * g i.g.s.$.9.8.%.9.%.9.9.9.f.#.p.b.S ; N N [ n , i W n * m 1 f ` g l m.s.6.Z.9.Z.6.6.3.4.(.2 3 &X|.[.%X%X|.",
"f.q.q.0.9.s.s.1.h.-.= = R g.1.%.%.9.%.%.a.9.8.8.8.8.i.i.n.S ; N E.n | } V V [ n [ W h g v.g.%.Z.s.1.Z.6.6.3.2.I.V @ O.5X[.{.[.|.",
"0.q.9.q.8.s.<.1.$.>.y ; g p.%.=.=.6.1.3.a.a.a.8.f.$.a.<.i.y.p.; , C [ [ 4 | ` 5 f , u c i.a.8.%.s.<.8.9.=.&.5.4.] < / 5X#X X{. X",
"q.q.9.8.a.h.<.3.1.2.i H g p.9.%.=.6.3.3.g.g.a.a.$.9.1.3.>.p.y.E g g : t i , 1 - i Q E p.#.7.$.s.1.1.&.8.&.<.3.G ' I e &X#X{.{.{.",
"8.8.8.8.8.a.#.i.g.i.r H F y.s.$.%.1.a.2.;.y.;.<.@.$.,.;.g.-.>.;.v.>.G -.G b.R g p b.#.8.#.7.a.@.@.1.$.&.$.h.2.K Q W X [.#X{.{.{.",
"8.q.s.$.q.g.c u.p.v.r m b.#.a.8.$.<.;.>.-.-.;.;.;.;.>.2.u.c.>.>.;.<.$.k.2.i.v.:.r :.g.@.#.y.y.<.<.@.@.8.;.,.2.:.D ` . ~.;X{.-X#X",
"s.9.1.a.8.8.p.j v.R i p m.a.a.;.@.y.u.G c k k k k s k u u p k k k v j j v v -.b.r l >.<.#.;.<.$.,.&.&.*.#.,.>.:.Q V . ) :X{.%X[.",
"s.s.$.s.8.8.v.K d b.i p >.<.;.g.#.#.v u.5.5.2.,.>.-.>.n.G G :.:.-.-.u.#.7.v c b.g y >.>.,.;.#.<.3.,.*.v j j k G Q h . 9 ;X#X].;X",
"s.a.1.s.8.8.j.i.l x f ; i.@.3.<.s.*.a -.,.2.<.<.$.a.#.y.V.B.<.<.2.5.<.;.h.,.c c.S ; 4.>.,.;.@.<.,.#.,.1.<.#.G u I.1 . < $X$X#X[.",
"<.s.1.1.8.$.s.j.R g , : c g.2.<.s.v a y.<.<.,.&.&.a.8.#.z.V.a.<.<.3.2.<.;.z z b.F ; n.>.-.;.<.<.<.,.,.,.3.m.>.u W - ^ $ O.*X}.|.",
"<.a.<.@.$.%.$.;.u.F : = G i.,.<.<.z u R b.c.i.g.i.c.c.K t u :.g.g.,.,.2.m.z a n.E ; G u.,.,.<.<.3.z z c.,.4.T.m C + ~.^ 9 *X[.[.",
";.<.@.$.$.$.@.#.;.n.g + x i.2.;.2.G t x F K l j k a k x l S -.K #.#.>.4.S d u c.p.t l i.,.#.@.1.2.k l I.4.4.S m f O C @XO X.*X[.",
"y.;.$.$.1.<.$.@.1.-.J r y J y.#.3.,.; ; r u u u a j z z c x k z a j u y p p s 5.E d d i.y.#.$.y.7.z r D A A D m 1 + b | +.2 ].%X",
"y.#.$.$.@.$.@.$.$.i.G Z r j p.i.,.5.p m Q J n.G i.>.>.,.E u.;.-.7.c J J J J K 3.p.v u >.#.#.@.#.7.c t 1 p m i 1 > + p C /.b 0 :X"
};
