/* XPM */
static char *_0c2ad22588f4c1984d442c59add02a8oRL5444koLx9Kz9w[] = {
/* columns rows colors chars-per-pixel */
"64 64 256 2 ",
"   c #010101",
".  c #0B0303",
"X  c #0B0B0C",
"o  c #070709",
"O  c #170A09",
"+  c #16120B",
"@  c #131313",
"#  c #1B1C1B",
"$  c #181918",
"%  c #111012",
"&  c #260907",
"*  c #241509",
"=  c #35150D",
"-  c #251413",
";  c #231D1B",
":  c #2A1917",
">  c #361916",
",  c #320B0A",
"<  c #15260C",
"1  c #292419",
"2  c #37271A",
"3  c #352B08",
"4  c #191A25",
"5  c #191F2D",
"6  c #221C2B",
"7  c #1C2325",
"8  c #0F3039",
"9  c #242424",
"0  c #2C2C2B",
"q  c #282827",
"w  c #362925",
"e  c #363329",
"r  c #272838",
"t  c #333434",
"y  c #3C3C3C",
"u  c #393935",
"i  c #293331",
"p  c #441810",
"a  c #47261A",
"s  c #5A2C1A",
"d  c #513111",
"f  c #683619",
"g  c #702F18",
"h  c #482927",
"j  c #5A2D26",
"k  c #48362A",
"l  c #563927",
"z  c #473C37",
"x  c #563735",
"c  c #673626",
"v  c #753826",
"b  c #6D302C",
"n  c #551C26",
"m  c #2E5209",
"M  c #3B6C12",
"N  c #3B4338",
"B  c #724914",
"V  c #46781B",
"C  c #474439",
"Z  c #584536",
"A  c #535134",
"S  c #7A4527",
"D  c #674A38",
"F  c #704D31",
"G  c #4C7524",
"H  c #615524",
"J  c #3A3A44",
"K  c #2D3547",
"L  c #0E3749",
"P  c #5B3E52",
"I  c #384548",
"U  c #304B57",
"Y  c #33526B",
"T  c #346479",
"R  c #195469",
"E  c #484948",
"W  c #564745",
"Q  c #555649",
"!  c #535352",
"~  c #5C5C5C",
"^  c #56595A",
"/  c #4A5153",
"(  c #674748",
")  c #675747",
"_  c #73544E",
"`  c #5A6753",
"'  c #65655B",
"]  c #6A785B",
"[  c #746E55",
"{  c #50556E",
"}  c #675C64",
"|  c #556A6E",
" . c #636363",
".. c #6B6B6B",
"X. c #686667",
"o. c #78756B",
"O. c #696B73",
"+. c #726D72",
"@. c #737373",
"#. c #7C7C7C",
"$. c #787976",
"%. c #6E726F",
"&. c #86331C",
"*. c #8B3828",
"=. c #A6271F",
"-. c #DA281A",
";. c #8C491A",
":. c #884828",
">. c #99482A",
",. c #975735",
"<. c #8E5131",
"1. c #A34B2D",
"2. c #A65937",
"3. c #B65935",
"4. c #B0542F",
"5. c #976736",
"6. c #A5653B",
"7. c #AF6F34",
"8. c #C76D34",
"9. c #D24F2A",
"0. c #885747",
"q. c #905451",
"w. c #996946",
"e. c #8E6D51",
"r. c #A7754A",
"t. c #BA7449",
"y. c #AE6D4C",
"u. c #8C7272",
"i. c #AC766C",
"p. c #99565B",
"a. c #CD764E",
"s. c #CC796F",
"d. c #508325",
"f. c #4A821D",
"g. c #718558",
"h. c #798567",
"j. c #7B8E76",
"k. c #B38A3A",
"l. c #CE8838",
"z. c #EF9B38",
"x. c #B38753",
"c. c #86897A",
"v. c #928C74",
"b. c #B18F6F",
"n. c #A6A073",
"m. c #C78859",
"M. c #D09051",
"N. c #E89254",
"B. c #EBB14E",
"V. c #CE926E",
"C. c #EA966B",
"Z. c #D9A567",
"A. c #D8A876",
"S. c #D3AE6F",
"D. c #E6B676",
"F. c #EEAB76",
"G. c #D8A948",
"H. c #F7CE71",
"J. c #FDE47C",
"K. c #F8CA52",
"L. c #2F7492",
"P. c #0A7198",
"I. c #705D86",
"U. c #507188",
"Y. c #72758D",
"T. c #7577A3",
"R. c #867085",
"E. c #A47498",
"W. c #CA7B80",
"Q. c #35859F",
"!. c #528397",
"~. c #788786",
"^. c #778B98",
"/. c #6F8D92",
"(. c #5794A7",
"). c #7892A9",
"_. c #75A5B3",
"`. c #00A8DC",
"'. c #59ADC3",
"]. c #5BB3CA",
"[. c #52B2D1",
"{. c #67B3C8",
"}. c #70B8CF",
"|. c #77C3D9",
" X c #7ACAE1",
".X c #55C2D7",
"XX c #848483",
"oX c #8C8C8B",
"OX c #888886",
"+X c #968A88",
"@X c #899999",
"#X c #949494",
"$X c #9B9B9B",
"%X c #999897",
"&X c #938E8F",
"*X c #AD958E",
"=X c #95AE8F",
"-X c #ADAE95",
";X c #8F93AD",
":X c #B09BAA",
">X c #93AAAF",
",X c #A4A3A4",
"<X c #ACACAC",
"1X c #A9A6AB",
"2X c #B3B3B3",
"3X c #BCBCBC",
"4X c #B8B6B8",
"5X c #B1ADAA",
"6X c #CFAF8D",
"7X c #F1B58B",
"8X c #CAB5B0",
"9X c #CC9096",
"0X c #B7C9B0",
"qX c #FBD986",
"wX c #FAC598",
"eX c #F5CF90",
"rX c #FEED92",
"tX c #C6D6BC",
"yX c #D6C9B4",
"uX c #F3D0AA",
"iX c #FEE8B5",
"pX c #D8C796",
"aX c #8C93C5",
"sX c #92B3CA",
"dX c #ADB4CD",
"fX c #A3AEE6",
"gX c #C8BACA",
"hX c #F2BACC",
"jX c #8DC6D7",
"kX c #B2C9D3",
"lX c #94D2E9",
"zX c #ADD5EB",
"xX c #B9E6F9",
"cX c #B1E6F9",
"vX c #9EE0F8",
"bX c #C4C4C4",
"nX c #CBCCCB",
"mX c #C5CAC8",
"MX c #D3D3D3",
"NX c #DBDADA",
"BX c #D1CED1",
"VX c #F0EDD6",
"CX c #CDD9EA",
"ZX c #E8D8E9",
"AX c #EBD5E8",
"SX c #C7E8F9",
"DX c #D5EBF8",
"FX c #CEF1F9",
"GX c #E3E3E3",
"HX c #EBEBEB",
"JX c #E7E9E8",
"KX c #F4F4F4",
"LX c #FEFEFE",
"PX c #F9F7F8",
"IX c #F0F0F3",
"UX c #DBDFCA",
/* pixels */
"E.hXhX8XY T.Y Y }.AXAXaX;X:XE.E.P p.P o +.0X0Xh.5XPXiXm.6.F j j b &.t.V.V.i.+.Y./.I   ) J.qXJ.rXx.1 e [ h.R Q.R X ~.pXl S.qXqXJ.",
"R.hXgXoXU O.U Y T.AXPXAXdX;Xp.i.P p.b o ] mX0X%.b.uXA.x.p.( n j q.,.7.s.V.y.+././.N   e.rXrXb.F i 1 1 2 4 Q.Q.R T n.yXS.S.qXqXH.",
"I.Y.U.T Y { Y.R ;X_.mXBXgX;XI.i.p.p.(   ` UX0Xh.w.Z.m.q._ n > , j q.1.m.m.q.%.!./.i   v.qXqXeX[ 1 k 1 O 8 `.`.P.=XiXS.n.D.F.N.a.",
"{ :X:XU.U.U.Y Y dX'.SXLXHXY./.*Xi.q.0.  Q tXtX~.b 6.y._ h & > = , _ q.a.2.0.j.oX=Xi   x.qXS.k.J.A - 0 I 8 P.| T ] x.) d 3.9.1.1.",
"P 9XnXY { U.Y Y T.L.zXPX{.).T.*XV.q.F   / UXUX$.z x x W : , n p , x 0.:.*.0.=X=X=Xi o x.rX7.k.J.1   + U /.D = a ) k h 1.1.*.1.4.",
"u.:X$X{ K U.U.L U.L.L.L.P.Y.L.b.V.p.r.  N tXOXW : k : 2 > O > = & b j g S q.*X=X=X7 o S.H.k.K.rXn.  o . L _.Q 3 2 z D f g j n g ",
"R.U { Y Y Y U.Y U.L.R R { U.O.V.7Xp.0.  i h.! ( - d 3   x - & & j c & B 1.q.p.+X=X< o D.S.5.B.x.Z +     + L T N $ x _ h n j b v ",
"dXdX/ J Y.| Y Y Y U Y L { ~.E.6X6Xp.b   < g.u.x   + B   O > , > p & p ;.v v i.v.j.o < S.7.;.B 2 1 I E $ O 1 i A Z l E x n b *.,.",
"O.U.O.OX5XAXnX+XK %X6X/ $.+X:X8X8X9Xr.  @ g.X.+.    B + . O - & & O f d , g W.e.~.X < d f ;.e k x 4.D I X X 2 3.6.0 I u x.H.eXrX",
"9Xu.OXyXyX&X+X9XR.u.v.` ^ b.r.V.6X5X*Xo % h.! R.+   d a - > a p , & B p , b E.v.j.X . 1 f F A e l _ t 0 7 u e O :.A 7 e.qXrXrXrX",
"W.9X6X+X$X2XE.u.u.*X6X6Xu.} +.u.$.u.q.O o j.` $.e   3 h - > a , & p d p , q.u.=Xj.  1 F _ u._ Q / ~ E ^ / ^ { r 1 S l W b *.*.*.",
"s.C.qXrX7Xv.:XgX8X8XuXuXuX8X*Xv.6XA.0.+   j.n.` e   O > - x h h c p & = a p.[ ] N   + W _ u.c.*Xu.o.X.~ w w g j j & $ E n &.,.t.",
"W.C.7XqXrXA.i.*XyXhXVXVXKXuX8X7XuX6X9X; o g.=X-Xh.q b.1.> x q.q.( v g b =.o.=Xo 0 E y   X.*X+X-X8X-X8X6Xv.t.a.4.3.= 2 ' b 3.3.s.",
"i.s.D.qXrXeXV.V.u.v.*X:XyXe.+XbXyX6Xw.1 o j.=X=X=X' pXm.D O q - : &.&.-.-.1.[ X bXLXLX9 +.bX4X2X8XyXyXuXuXwX7X7Xa.j k u.<.*.b &.",
"  X : 2 C Z D 2 . X o     o . . X X   o o q $   X X X X   o           & p O .   0XLXLX4 o.5X+Xu.c.u.u.u.[ ) Z z w O       o     ",
"O +           4 tXMXnXMXMXbXE nXnXmXmXMX5X< %.MXnXnXnXnXu XXNXmXoX3XMX~ 5 dXBXnXHXLXLXq O @ o                     X $ 4 i r I O.",
"M.Z.S.H g g . Y.LXLXLXLXLXKX! LXLXLXLXLXLX .NXLXLXLXLXLX#X$XLXLXLXLXLXnX..LXLXLXLXLXLX0     X % 7 t E ~ | /.U.| /.^.).sXSXlXfXFX",
"l.Z.r.9.C.N.= @.LXLX<XMXLXHX! KXLXmX2XLXLX~ 2XGXbX#XPXLXXX#XLXPX,XHXLX3X .LXLX<XMXLXLX4 O.MXMXDXDXKXDXFXxX;Xu.w.6.w.w.) ).kXkXSX",
"M.w.8.wXiXiXk ..LXLX .2XLXHX! KXLX3X$XLXLX! 9 @. .#.LXLXoX%XLXLX/ GXLX3X..LXLX..<XLXLX# >XPXDXDXFXDXFXSX>Xb.Z.M.t.t.a.:.. +.kXxX",
",.a.7XuXVXVXk ..LXLX%.3XLXHX/ PXLXLXLXLXLXE 4XLXLXLXPXLXOX%XLXLX^ GXLXbX .LXLX@.4XLXLX9 !.cXzXxXSXSXFXxXpXiXD.a.8.t.7.:..   T.zX",
"N.F.7XwXrXiXa %.LXLX..4XLXHX! PXLXPXKXLXLX^ nXLXKXGXPXLXOX%XLXLX^ GXPX8X..LXLX@.2XLXLX; (.SXSXDXDXSXSXMXuXeX7Xa.*.b 1.3.:   6 sX",
"F.7XwXwXwXiXe %.LXLX..4XLXJXW KXLX<XOXLXLX .bXLXNX~ LXLXoX#XLXLX^ GXLXkX .LXLX..<XLXLX; ^.SXSXSXDXDXSXkXeXeXm., * g &.4.s . . ;X",
"a.7XwXuXwXiXk %.LXLXNXHXLXHX/ IXLX1X#.LXLX~ nXLXKXMXPXLXOX#XLXPX~ NXLX3X..LXLXMXGXLXLX# ).FXzXzXDXfXzXE.F ,.3.p :.1.1.8.:.- g e.",
"g 3.F.wXiXiX2  .LXLXLXLXLXHX! IXLX,XXXLXLX^ bXLXLXLXPXLX#X,XLXLX' IXLXnX~ LXLXLXLXLXLX9 U.SXdXkXDX;XSX+Xp F N.t.>.a.V.8.1.> >.y.",
"1.3.N.7Xr.w.> X ..#.#.NXLXJX! LXLX2Xu.LXLX^ 9 #.$.@.X.%.0 y @...9 ' +.!   ! +.X.....%.o { CXdXfXfXE.aX;X>.m.t.:.6.a.6.4.*.> >.7.",
"s.8.F.y.x D   X.BX3XbXHXLXKXy $.OX/ oXLXPXGXmXmX8XX 4 K K K 6 r r r r K K r r r r r r $ U.;XT.T.).fXaXT.6XZ.2.>.,.2.3.>.:.c 6.) ",
"C.C.7XC.a.a.O XXLXLXLXLXLXGXt %X1X .%.LXLXLXLXLXLX+ 4 K I.O.4 5 4 6 6 { Y.r 6 6 r r 5 @ o   X   { aXT.T.*XZ.t.4.1.1.2.,.v x.e.6 ",
"a.C.7X7X7XZ.* r  .^ ^ ^  .0 t LXLXbXo ~ %. .NXLXKXXX+.X.% + +.$.@.$.$.q   ~ #.@.@.@.#.@ R.NXMXJ   % . . } M.m.,.a.2.,.<.:.8X[ 6 ",
"a.7XuXF.wXV.f 3 2 2 Z H O q GXKXLXHXMXbXMXE 3XLXLXLXLXLX#XXXLXLXLXLXLXmX/ LXLXLXLXLXLXOXHXLXLXGXMXGX2Xo { C.V.S 5.<.w.r.b.b._ ).",
"a.C.7XC.V.7.8.Z.x.eXrXrX5.I LXLXLXLXLXLXLX..3XLXKXBXKXLX%X#XLXPXnXHXLXbX} LXLXMX<X2X,XOXLXLXPXLXLXLXGXo I.i.S.5.B S i.w.r.:.R.sX",
"3.a.F.a.>.8.6.A.pXH.H.rX[ o j.PXLXMX .@.#.0 mXLXGX^ PXLX%XoXLXLX .NXLXnX~ LXLXnXXXoXoXy 3XLXLXOXX.$. .o I.R.r.<.v S r.,.<.>.*XaX",
"a.s.C.*.4.F u ' v.H.H.H.M.< $ PXLX<X~ GXGX! gXLXGX~ PXLX%X&XLXPXHXKXLXbX .LXPXLXLXLXLXq oXLXLX/ 4XJX2X  I.E.+.x.5.:.<.:.&.2.-XaX",
"a.a.,.&.*.- h O - W v.S.J.x.7 PXLX2X#.LXLX .3XLXGX~ LXLX%X&XLXLXLXLXLXnX .LXLXNX1X2X2X4 %XLXLX~ GXLXNXo Y.E.5XeXS.x.A.&.:.,.b.aX",
"s.t.g &.s $ : - - & O E S.6.4 PXLX<X..LXLX .3XLXGX~ PXLX%XoXLXLX@. .@.! ~ LXLXOX  o X   $XLXLX! MXLXMXo ,XVXKXpXD.Z.D.:.*.<.q.sX",
"C.&.s g : + $ - - - & O b.7.7 KXLXnX<XLXLX .3XLXGX^ PXLX%X&XLXPX#XnXHX<X' LXLXXX4 aXaXX $XLXLX$XGXLXMX. UXVXGXVXn.x.y.:.:.:.F ' ",
":.g g s & - - z u - * e N.4.7 LXLXLXLXLXLX .bXLXKX~ LXLX$X#XLXPXLXLXLXNX .LXLXoX5 fXfX4 ,XLXLXLXLXLXGXX tXUXUXPXVXb.v g S v D Z ",
"*.&.;.= O - - 9 % .   : :.f   OXbXbXbXbX<X9 %XbX,X/ nXNX~.u gXtXyXdX0X! u dXnX'   { | o 0 2XbXbX4X3X^   $.] ] h.+X=XD g <.r.Z + ",
"7.>.v = - - O . t u y t i   # t y # 0 y 0    .&XoX@         9 y t t } `  . . . . .' ~ O. . .$ # @...X.+. .} .. .E Q -Xl c A w + ",
"a.M.d . O -   OXLXLXLXLXLXoX@.LXLX..dXLXHX~ HXLXLX1X&X,XX.^ LXLXPX<X4X..%X@XoX+Xc.oXc.c. .nX! ~ mX' h.j.j.h.] %X4Xt 0Xh.C C O s ",
"V.b.e.D D w   bXLXLXPXPXLX3X..LXLX..8XLXNX%XLXKXLXLXLXLXmX#.LXLXPX~.#X%Xo.-X-X-X=Xv.v.] %X2Xt u ,X$XA G G A %X%X' i UXc.Q : ; w ",
"6XM.C.F.C.a.+ X.,X#X! HXLX2X..LXLXX.3XLXGX .GXLXPX2X%X1XX.$.LXLXY.1XNX,X,XE 0X-X=Xn.g.=X@.        E $Xm G 0X! i u ] 0X` : O C w ",
"8.8.<.s S v   t ,X$X<XKXLX2X@.LXLXX.3XLXKXo <XLXPXI #X2X..#.LXLX' mXLXNX@.OXA -Xn.g.g.v.X.q u 9 % e Y.< -X .N tXtX0XoXe * u : : ",
"*.s 2 k ; o   4XLXLXLXLXLX4X..LXLX..3XLXKX@ 2XLXKX~ PXLX8X$.LXLXX.dXLXHX% oXE j.XX$.OX` Y.c...$X#.OX@.` oXo tXmX2Xc.N : C : ; z ",
"u.$.V.7XuXx.  2XLXKX<XIXLX2X@.LXLX .4XLXHXX 2XLXPXE JXLX2X$.LXLX} tXLXIX. ^ ,Xz E ! ,X  %X,XX 4X%XX.y OXoXu u -Xv.Q e w c.- E C ",
"r._ 1.3.V.7X* 1XLXKX..HXLX2X..LXLXXXbXLXHX% <XLXKX%.JXLX2X@.LXLXu.nXLXMX$XLXHX% X 3XJX  OXLX7 0 LX..  ~ MXLX} 1 C w + A e w C C ",
"3.:.D a > Z . 4XLXPXLXLXLX4X@.LXPXLXLXLXLX@ 4XLXLXPXPXLX4XXXLXLXLXLXPXoXKXLXKX% t HXbX .%XLX1X#XLX~ e / 4XLXHX9 1 1 1 ) C N k E ",
"wX6XA.9Xt.g   $.LXPXPXKXLX4XE KXLXLXPXLX3X  XXLXLXLXPXLX#.N PXPXPXLXnX~ NXLXnX~.#XoXc.c.h.] %X%XOXoX,X..nXLX0XE   . A A E C E Q ",
"a.M.a.M.N.C.,.o 9 0 0 0 0 9   $ 9 ; 1 # o I o $ # # 1 $ @ 4 X ; # 1 @ 0 BXKXXX .OX< M M M m h.NX< ` R.~ ,XLX5X$   w e N Q 1 i 6X",
"y.,.b s l l k +                 | !.j.!._.xX_././.)./.).kXxX>X).)._.| # #X .oX .oX~ m G G V G %.< 0Xq XX$.%.XXX e A @ : X # x.uX",
"% .             % 0 J ! } R.@   |.vXlXvXcXzXzXvXxXFXxXFXxXSXzXv.5XFXsXq ~ ~ ! @.E 2X< d.V V d.< g.oX0 ~.! ~ ^ # v.[ D [ c x.eXS.",
"% 6 J ~ +.E.:XgXnX%XE.gXIXAX9   sX{.}.jXzXzXlX XzXzXcXcXxXxX@Xx.e.xX).z 2XE $ I   OX .m d.G f.M <Xt @ 2 @  .5X0 r.V.Z.Z.Z.Z.Z.D.",
"BXAXIXAXPXAXAXgXu.0 5 5 gXAX9   _.]._.|.lXlXzXjXlXcXlXjXMX1X-XN.@XvX_.t ' @ _.SX/.q 2X< d.f.V g.%X* w.t.l 4 X.e D.D.D.S.Z.M.M.x.",
"AXAXZXZXgX! w v.A.x J k 8XZX6   (.jX|.jX XlXlX|.jXxX6X0.:./ ' l Q..X[.T L (.lX{. XU @.@.m d.M <XI 5.x.S 5.5.l r.m.y.6.6.>.>.,.f ",
"BXZXAX$X! 0 z wX0.W +.x y.ZXt   (.|.|..X].{..X_.|.>Xl q i 7 =.0.%.| Q..X}.{.].'.'.'.4 2X< f.d.>X= x.r.<.<.w.2.,.>.1.2.>.v D ) A ",
"gXZX;XE u 9 [ 6XW o   _ 0.BXJ   Q.'.'.'.].}._.{.|.I ` ^ E Q =.9.z.8.9.0.Y.[.].'.].[.R [ Y.< -X! s ,.<.,.5.w.2.,.:.b a e A ] h.g.",
"IXhXJ w w z 6X_ u . O D _ gXE   !.|.|.sXjXjXjXlX/.+ D Z 9.=.=.8.*.1.9.-.-.#..X}.}.}.].4 <X$X2X* 2.6.5.6.6.,.c = + o   # ] h.g.] ",
"&X/ e ~ t u.e.h O . - : k gXW   /.zXkXzXxXtXkXsX_./ _ f =.=.b.UXUX8X-Xa.-.-.u.}.|.|.|.T < ^ $ l r.w.<.<.[ @ X + # N t 0 h.v.=Xn.",
"$ N q u z A.z %   . O w l 1X^   /.CXzXkXFX>XI %.j.x.a.o.$.>X>X^.@X>XkXkXnX*Xp.;XcXjX_.(.L.<   =XUX=Xj.v.u # 1 t i ` 0 A Q ` ` E ",
". E w ; e.A.- .     + z l +X{   @XFXCXxXxX*X=.b o.v././.O.| U 7 $ 7 7 i U | ^.oXkXxXjX_.{.U   %XVX=X=Xe X q % @ $ @ o o     o   ",
"  x l q 6Xt.- O   o > x a XX}   /.SXkXkX0Xe.<.Z J y i 7 7 7 $ @ @ $ 7 7 < 4 @ 7 i >XcXsX_.i   Q ` e # o               . + 1 d B ",
"  D k e.eXw.& . o o b b l %XX.  ^.SX>X/.| / | | E i 7 i i 7 7 4 7 7 i 7 i # % % o 7 / 7 X         o   o + 1 a H 5.<.,.7.7.l.8.l.",
"  _ <.S.7Xh ( W _ ( q.p.>.2XO.  @XKX0X@X@X@X@X>X>X~.| / i 7 7 7 7 $ @ X o               o 1 2 H ) 5.k.k.M.S.M.z.G.l.7.k.6.5.S B ",
"X C e.m.C.Z P 9Xq.P ( 0.y.ZX+.  @XPXIXDXGXkX0X>X$X~.I i @ X o             < 1 l B <.5.l.l.B.K.H.rXG.l.G.G.m.7.x.x.v.o.' E J 7 $ ",
"E E 2 <.a.i.n ( $   o a ' PX+.  j.kX@X$.^ N 7 X               @ i o < k.G.K.K.K.B.z.B.B.B.B.J.B.J.K.l.7.K.e.[ c.oXo.W u k k 9 9 "
};
