/* XPM */
static char *cd3fda5d3f124ad6e70da50dcffb332bSYPfbKtiqReFe3Bh[] = {
/* columns rows colors chars-per-pixel */
"64 64 247 2 ",
"   c #0C0400",
".  c #0C0904",
"X  c #180A01",
"o  c #1D140B",
"O  c #1A1509",
"+  c #1D1B14",
"@  c #181714",
"#  c #230B01",
"$  c #270902",
"%  c #2C1402",
"&  c #2A1C0B",
"*  c #261608",
"=  c #331500",
"-  c #3C1B00",
";  c #361B08",
":  c #251D19",
">  c #391A15",
",  c #360B04",
"<  c #1E2019",
"1  c #36230C",
"2  c #27241B",
"3  c #382819",
"4  c #302611",
"5  c #292825",
"6  c #352D28",
"7  c #3B342B",
"8  c #393635",
"9  c #2E342C",
"0  c #3F1F20",
"q  c #461A04",
"w  c #52180C",
"e  c #6E1912",
"r  c #482907",
"t  c #522D04",
"y  c #583509",
"u  c #442917",
"i  c #54261A",
"p  c #5C3A14",
"a  c #573719",
"s  c #483311",
"d  c #672619",
"f  c #643B17",
"g  c #6E310F",
"h  c #483729",
"j  c #5A3C2A",
"k  c #4D3530",
"l  c #683626",
"z  c #733A2B",
"x  c #6D2E2A",
"c  c #5F421B",
"v  c #68451B",
"b  c #734C18",
"n  c #584427",
"m  c #564638",
"M  c #4C483A",
"N  c #694927",
"B  c #744C27",
"V  c #6D5129",
"C  c #775528",
"Z  c #694A38",
"A  c #764A37",
"S  c #795737",
"D  c #6C5439",
"F  c #79613D",
"G  c #383D41",
"H  c #4B3F41",
"J  c #575856",
"K  c #504D49",
"L  c #6A5747",
"P  c #765947",
"I  c #675852",
"U  c #7A5956",
"Y  c #704C4B",
"T  c #5F6554",
"R  c #67644E",
"E  c #6B6658",
"W  c #776854",
"Q  c #79684D",
"!  c #474F62",
"~  c #475265",
"^  c #495466",
"/  c #4C5669",
"(  c #4E596B",
")  c #515B6E",
"_  c #545964",
"`  c #545E72",
"'  c #565F78",
"]  c #655E66",
"[  c #556273",
"{  c #586376",
"}  c #5B657B",
"|  c #5D6B7D",
" . c #576279",
".. c #5A606C",
"X. c #776A6A",
"o. c #787765",
"O. c #616E7F",
"+. c #656A7D",
"@. c #7B7678",
"#. c #6D6C6F",
"$. c #873830",
"%. c #825C29",
"&. c #835938",
"*. c #8E4B38",
"=. c #8B6639",
"-. c #956C39",
";. c #99733E",
":. c #84602C",
">. c #A3763D",
",. c #83561B",
"<. c #894A4A",
"1. c #8B5847",
"2. c #845757",
"3. c #97554E",
"4. c #A25855",
"5. c #896546",
"6. c #956A48",
"7. c #997648",
"8. c #896858",
"9. c #956659",
"0. c #8B7358",
"q. c #977856",
"w. c #8D744E",
"e. c #A37A47",
"r. c #A67A56",
"t. c #A76D59",
"y. c #8B7866",
"u. c #987867",
"i. c #90716C",
"p. c #AC776E",
"a. c #7C8171",
"s. c #9F8255",
"d. c #AC844B",
"f. c #B3884C",
"g. c #A88558",
"h. c #B58C59",
"j. c #BB945B",
"k. c #988469",
"l. c #868378",
"z. c #9B8A76",
"x. c #958F76",
"c. c #AA8869",
"v. c #B58967",
"b. c #B89465",
"n. c #A58B77",
"m. c #A8957A",
"M. c #B99A75",
"N. c #B08C73",
"B. c #B7A370",
"V. c #C59B5D",
"C. c #CB9D5C",
"Z. c #C49658",
"A. c #D09F5C",
"S. c #CCA15E",
"D. c #D2A25D",
"F. c #C69D62",
"G. c #CB9E63",
"H. c #CA9D68",
"J. c #CB9768",
"K. c #C6A064",
"L. c #CBA264",
"P. c #CDA56A",
"I. c #CBA767",
"U. c #D2A364",
"Y. c #D4A66A",
"T. c #C9A775",
"R. c #5E6D81",
"E. c #626E83",
"W. c #647285",
"Q. c #65738A",
"!. c #6A758D",
"~. c #6E798F",
"^. c #697686",
"/. c #767B87",
"(. c #6C7692",
"). c #6E7992",
"_. c #6C7A94",
"`. c #6E7B99",
"'. c #737D95",
"]. c #757D9A",
"[. c #767C96",
"{. c #7B818D",
"}. c #758295",
"|. c #7B8395",
" X c #75839B",
".X c #7A859B",
"XX c #7C899D",
"oX c #77899C",
"OX c #7D8BA2",
"+X c #7A86A3",
"@X c #7F90AE",
"#X c #87878B",
"$X c #868A98",
"%X c #8C929A",
"&X c #969497",
"*X c #948D92",
"=X c #AA9987",
"-X c #B49A89",
";X c #A49C96",
":X c #B28F8B",
">X c #B9A48B",
",X c #ABA596",
"<X c #B2A494",
"1X c #818EA4",
"2X c #858DA7",
"3X c #8391A6",
"4X c #8291AA",
"5X c #8A94A8",
"6X c #9599A6",
"7X c #8595B6",
"8X c #AA9CA6",
"9X c #9BA3A8",
"0X c #B4ADA6",
"qX c #BBB6A8",
"wX c #BAB6B5",
"eX c #A8ABAE",
"rX c #CC9B8A",
"tX c #C6A799",
"yX c #C3B29D",
"uX c #D7AD96",
"iX c #C6B4A5",
"pX c #D9B5A9",
"aX c #C5B5B7",
"sX c #CDAEAE",
"dX c #E3BEB9",
"fX c #BDC3B7",
"gX c #D9CABC",
"hX c #C9C7B9",
"jX c #E6C3BD",
"kX c #C3BFC3",
"lX c #BCC6CA",
"zX c #C6C5C4",
"xX c #D7CAC6",
"cX c #D9D6C9",
"vX c #D3D4D3",
"bX c #E8D7CB",
"nX c #F5D4CB",
"mX c #E8DCDA",
"MX c #F1DAD7",
"NX c #ECCECC",
"BX c #F3E3DA",
"VX c #E5E4D8",
"CX c #EBE9E7",
"ZX c #FAE9E4",
"AX c #EDF3E8",
"SX c #F4F3F4",
"DX c #DCE0DD",
/* pixels */
"~ ~ ~ ~ ^ ^ ^ ^ ~ ~ ~ ~ ~ ^ ^ ^ ^ ^ ~ ~ ~ ~ ~ ~ ^ ^ ^ ~ ~ ~ ~ ~ ~ ~ ~ ~ ~ ~ ~ ~ ~ ~ ~ ~ ~ ~ ~ ~ ~ ~ ~ ~ ~ ~ ~ ~ ~ ~ ~ ~ ~ ~ ! ! ",
"~ ~ ~ ~ ~ ^ ^ ^ ^ ^ / ~ ^ ^ ^ ^ ^ ^ ^ ^ ^ ^ ^ ^ ^ ^ ^ ^ ~ ~ ~ ~ ~ T ~ ~ ~ ~ ~ ( ~ ~ / ~ ( ~ / ~ ~ ~ ~ ~ ~ ~ ~ ~ ~ ~ ~ ~ ~ ~ ! ! ",
"~ ~ ~ ^ ~ ^ / ^ / ^ / / ^ ^ ^ ^ ^ ^ ^ ^ ( ( ~ ^ ( ^ ^ ^ ~ ( ^ ^ ~ ~ ( ( ( ~ ~ ~ ~ / / ~ ~ ~ ~ ~ ~ ~ ~ ~ / ~ / / ~ ~ ~ ~ ! ! ! ~ ",
"/ ^ ^ ^ / / ^ / ^ / / ~ ^ ^ _ ^ ( ^ ^ ( ~ ^ ( ~ ^ ^ ^ _ ^ ^ ( ^ ( ~ ~ ~ ~ ~ ~ ( / / ~ ~ ( ~ ( ~ ( ~ ~ ( ~ ~ ~ ~ / / ~ ~ ! ! ~ ! ",
"~ / ^ / ^ / ^ ^ ^ ( ^ ^ ( ^ ^ ( ^ ^ / ^ ^ ^ ^ / ( ^ ^ ^ ^ ^ ^ ^ T ~ ( ~ ~ ( ~ ( ( ~ ( ~ / ~ ( ~ ~ ~ ~ ~ ( ~ ~ / ! / ! ! ~ ~ ~ ~ ",
"^ / ^ _ / / ( ^ ( ^ ( ( ^ ( ( ^ / / / ^ _ / / / ( ^ ( ^ ^ ( ( ^ ~ ( ~ ~ ( ~ ~ ~ ~ ~ ~ ( / ( ~ ~ ~ ( / ~ ( ~ ~ ~ / ! / ! ~ ~ ~ ~ ",
"/ ^ / ^ ^ / / ( ^ ( ( ^ ^ ( ^ ( ( / / / ( / / / ( ( ^ ( ^ ^ ^ ^ ( ( ~ ( ( ( ( ( ( ( ~ ( / / ~ ( ~ ~ / / ~ ~ ( ( / ! ! ' ! ! ~ ~ ",
"/ / / / / / ( ^ ( ( ( ( ( ^ ( ( / / / / / / / / ( ^ ( ^ ( ( ( ( ( ~ ( ( ~ ~ ( ~ / / / ( ( / ( ( ( / ( ~ ( ( ~ ( ! ' / / / / / ~ ",
"/ ( ( ( / ( ( ( ( ^ ( ( ( ^ ( ( ( ( / ^ ( ( / ( / ( / / ( ^ / / ( ( ~ ( ( ( ~ ( ~ ( ^ ( ~ ( ~ ~ / / / / ! ' / / / / ' ! ! ! / ! ",
"^ ( ^ / ( ( / ( ( ( ( ( ( ( ^ ( ( ( ( ( / ( ( / ( / ( / ( ( ( ( ~ ( ( ( ~ ( ( ( ( ( ( ( ( ( ( ( / / / / ! / / / ! ' ! ! / / ! ' ",
"( ( ( / / ( ( ( ( ( ( ( ( ( ( ( ( ( ( ( ( ( ( ( ( ( ( ( / ( ( ( ( ~ ( ( ( ( ( ( ( ( ( ( ( ( ( ( / / ! / ' / ! / / ! ! ' ' ! ! / ",
"( ( ( ( ( ( ( ( ( ( ( ( ( ) ( ( ( ( ( ( ( ( ( ( ( ( ( ( ( ( ( ( ( ( ( ( ( ( ( ( ( ( ( ( ( ( ( ( / ] ' / / / ' / / ' ' ! ! / / / ",
"( ( ( ( ( ( ( ( ) ( ( ( ( ( ) ( ( ( ) ) ( ) ) ) ( ( ( ) ( ( ( ( ( ( ( ( ( ( ( ( ( ( ( ( ( ( ( ( / / / / / ' / / ' ! ' / / / / / ",
"( ( ( [ ( ( ) ( ( ( ( ( ) ( ) ( ) ( ) ( ) ) ) ) ) ) ) ) ( ( ( ( ( ( ( ( ( ( ( ( [ ( [ ( ( ( ( ( / ' ' / / / / ' / ' ! ! ' ! ] / ",
"( ( ( ( ) ) ) ) [ ( T [ ) ) ) ) ) ) ) ) ) ) ) ) ) ) ) ) ( ` ( ` ( ( ( ( [ ( ( ( ( [ ( ( [ [ ( [ ) ) / ) ' ! ! ' ] / / ' ] / ! ' ",
"[ [ ( [ ) ) [ ) [ [ ( [ [ ( [ [ ( [ [ [ ) ) ) ) ) ) ) ) ` ) ` ` [ [ [ ( ( [ [ ( [ ( [ ( ( ( [ ( ) ) / ' / ' ' / ' ' ' ! ' / ' / ",
"[ [ [ [ [ [ [ [ [ [ [ [ ` [ [ [ [ [ [ [  .[ [ [ [ [ [ ` `  .` ' [ [ [ [ ) [ ` ....` ` ` ..) ` [ ' ` ` ` ` ` [ ` ` ` ` ` ` ` ` ` ",
"[ [  .[ [ [ [ [ { { { { [ [ [ [  . . . .[  . . .{ { { {  . .}  .R.} { [ { [ ..{ { { { ' { { { [ ' ' { { { ' { { { { { ' ' ..{ ..",
"| [ | [  . .| | } } | } | | } | } } } } } } } } { | } } } } } |  .R.| { | { { { } } ' ' | } } | R.' +.' ' } } }  . . .' { } { { ",
"a.[ R.| | a.| | O.| | O.| | | | | | | R.| | | | | | | | | | | | R.R.| | | | | | | O.E.R.R.E.| O.R.R.+.+.| +.| | | R.| | } } } +.",
"R.R.R.R.R.R.R.R.E.E.E.E.E.E.E.E.O.O.O.O.O.O.R.R.E.E.R.E.E.E.O.E.R.R.R.R.O.O.O.O.E.E.E.E.R.R.O.O.+.+.R.O.O.O.R.W.R.R.R.R.E.R.R.R.",
"Q.Q.Q.Q.}.R.Q.Q.Q.Q.Q.Q.Q.W.Q.W.W.W.W.W.W.W.W.W.W.E.W.W.W.W.W.W.R.R.W.W.W.W.W.W.Q.Q.E.Q.Q.Q.W.W.E.E.W.W.W.W.R.W.Q.R.Q.R.Q.Q.Q.R.",
"_._.Q.Q.Q.R.}.Q.!.!.(.!.!.!.!.!.^.~.^.^.^.Q.}.W.!.!.!.!.!.Q.!.!.^.Q.^.^.!.^.Q.(.(.(.(.(.Q.Q.Q.Q.!.Q.!.Q.Q.Q.Q.!.(.Q.Q.(.Q.(.(.(.",
"_._. XQ. X XQ. X).).).).).).).).~.~.!._.}._.!._.(.~.~.~.(.(.(.(.~.~.~.~.(.(._.(.(.`.(.(._.!.}._.(.(._._._._.`._.`.`.`.(.`.(.(.(.",
" X_. X_.}.`.'.'.}.'.`.'.'.`.'.).}.`.}.`.[.].(.'._.'.'.(. X!.].(.}._._.].'.[.].`.].`.].(.`.].}._.`.`.`.].'.'.[.[.`.`.'.'.'.~.[.~.",
" X X X X XoX X X X X X}. X]. X X X X`.'.[.(.|.|.[.[.}.}. X+X_.oX X].'.}..X].$X[.[.+X].].+X'.}. X].].+X].].|.[.'.[.[.|.}.'.}.}.|.",
"oXoX XoXoXoXoXoX+XoXoXoXoX XoXoX XoXoX X$X[.|.[.|.$X~.^.`.!.~.~./.|.|.{.+././.~.XX[.|.|.[.XX}.}. X X X X]..XXX|.}.|. X}.oXoX X X",
"+XOX+X+XoXOXOXOX+X.XoX+XoXoX+XoXOX XoXoX[.|.#X/.#./.6X9XeXeXlX1X9Xa.K 9 5 5 5 G K |.|..X.X}.|.XXXX|.XX$XXX.XXX|..XXXoXoXoXOXoXoX",
"OXOXOXOXOXOXOXOXOXOXOXOXOXOXOXOXOX+X$X|.$X#XE.8XkXmXCXSXSXSXSXSXqXa.a.o.K 4 T &X8 /.{.XX$X].+X@X+XXXoXXX|.$XXXXX|.|.$XXXoXXXXXXX",
"OX@X@XOX3XOXOX3XOXOXOXOXOXOXOXOXoXoX2X%X@.@.aXMXBXBXZXZXCXCXSXvXo.E R R R T T ,XeX#X$X$X+X1X+X X.XOXXX|.$X5X%X%X%X*X%X%X%X&X&X%X",
"@X3X@X3X3X3XOXOXOX3XOX4X3X3XOX1X5X$X6X' @.sXNXZXZXZXZXBXMXxXvX/.9 M 9 6 6 8 K #XwX9X/.'.2X$X1X$X.X$X$X%X6X&X&X;X;X=X=X-Xm.=X-Xm.",
"@XOX3X3X3X@X4X@X4XOX3XOX4XOX4X3X6X*XJ 2.MXNXjXsX:Xp.u.i.I H I X.&X#X#.K 7 5 2 9 *X6X#XH _ /.+..._ ! K J E X.y.z.n.n.-XM.g.c.b.M.",
"4X5XXX5X7X@X7X@X@XOX1X1X1XOX+X5X(.Y Y sXp.u.U x 0 Y <.<.6 #.xXkXeXDXvX@.: 8 : . 5 /.*X@.@ < 8 @ . @ . M R h D c.m.c.N.M.7.C e.v.",
"4X4X5X3X@X+X2X5X3X%X|.[.6X5X6X/.H Y 2.2.i > > q Y p.4.x Y mXvX0X#X*X#.9X6 5 5 5 5 8 #X#XJ K h X o X * W D n F c.m.N.v.c.7.S &.r.",
"5X2X3X3X.X5X2X/.#X{.eXvXvXCX*XK 2.2.k k k K j K k Z 1., X.eX#.#X,XzXxX@.: : @ @ K 5 5 H ] E 4 X & ; D Q N 5.7.c.q.u.g.q.q.V A w.",
"2X5X3X5X1X$X2XkXlXqXvXzXSX*X> 2.<.i 0 8 k 2 3 7 ; h Z , k wXkXvXDXwXE 5 K E J . K I I 8 2 2 m R 0.k.q.:.B 7.b.v.0.w.g.b.g.S Z Z ",
"7X3X5X$X8XaXMXvXDXAXDXDX0Xk <.4.x 0 0 8 6 4 h k * k 3 : 2 6 ] @.a.a.=XfXcXcX,XU 3.<.<.Y h R Q R Z 5.q.r.7.7.h.6.5.5.w.b.q.F P Z ",
"#X&X*X8X8XkXMXmXfXa.l.#X:X3.3.$.x X $ h m M L I I 8.3 M E #X0XkXVXVXAXAXcXgXbXpXx 4.4.x 1 R m m P 0.v.=.6.e.=.%.S P 7.7.V D Z D ",
"B.tX:Xi.2.p.tXgX;X&XqXnXrX*.g e w i i.*X>XpXcXcXVXqX<XcXMXZXSXSXSXCXVXcXhXBXZX-X9.:X:Xj l.x.x.R 0.D S 5.N C C f a N 6.7.B v N S ",
"B.rX2.w :XnXNXxXcXmXMXgXt.t.*.J.rXJ.pXpXhX>X>X,Xm.>XhXgXnXNXBXzXhXfXqX0XgXBXgXnXdXMXpX3 D R L W P u.u.a p B &.%.l a B -.N f B B ",
"B.T.1.8.X.U L j i.:X0XsXnXuX&.1.x x d 1.l d a A yXx.0.0.u.<.-X=Xz.z.k.k.x.>Xx.m.m.m.>Xm.m.x.k.0.0.n.D $ % A =.=.S l t.5.p y C v ",
"B.h.N Z j K u y.pXhXdX0XsX-XY 9.8.t.4.1.p.p.p.P qXm 3 L p.t.c.8.u.n.x.k.m.>Xm.>Xm.m.=X>XqX=XM.w.m.k.u # # N &.B p s &.a r y ;.C ",
"L.b.f N.2.<.8.-Xm.k.-X>XiX=XL W U y.p.&.*.A z 1.gX=Xi.n.9.3.N.>X-X>XyXiXtX-Xy.j 4 3 & & n y.=Xk.n.m.8.8.L a N p a r l = a C :.C ",
"L.H.6.uX1.w q $ O & & m -Xz.D P L L Q j l A &.A bXwX,Xn.:XrXuXuXuXrXu.8.9.Z *       o X . X m u.w.k.:Xu.3 r v p s a N = a =.v y ",
"F.H.j.&.i $ $   X + o   7 k.Z u.=Xm.x.Q L z.y.W bXiX=XsXpXT.p.6.z x z *.d i $ X < 9 2 5 2 O   h D Q R = X V 5.V a r a N a a a v ",
"F.F.F.b.v.Z * 6 9 2 . .   I u.k.<XyXiXqXqX,X,Xl.R h Z u.z z d z 3.4.$.x x i   : 5 @ : + < + o X 3 4 X % 3 F C C c s a l a c c S ",
"F.b.j.B.M.k.k m 7 5 + :   o M L <X0X=Xo.7 6 o o X * , q w 3.p.z *.e e e x q $ : @ < 5 : + 2 4 o X X # & D N v C V c f p V B N C ",
"F.V.j.b.g.s 3 6 + @ + 8 :   h P y.h * . O & 1 3 > u , q w w d w w g e e x , X : O 9 : : 6 O * X X % 1 j F V C -.S %.C =.&.f B B ",
"Z.V.j.b.w.* 3 O + + @ : h X * j Q a N S w.7.s.h.g.g.d.g.6.g w z *.1.A l Z # o + + 9 : O : * * s B =.7.b.K.j.b.j.h.b.h.h.b.7.r.e.",
"C.V.j.M.V ; 4 + @ 5 : O h   ; k.b.g.b.B.j.h.h.d.-.;.h.7.p.J.h.t.6.5.V A 1 #   * O * & 3 s D q.c.b.d.;.C C ;.-.-.r.f.-.>.r.Z.h.Z.",
"S.f.B.j.V % & * * : & % 1 % 0.q.7.j.g.d.F =.=.f C &.v f %.-.r.g.7.7.e.q.S V a s s a F q.s.N.K.b.;.=.%.C =.C =.7.C y r q -.d.6.b ",
"V.S.h.h.7.= 3 s h 1 1 1 n w.c.=.g.-.v c 1 = q - q $ q r r y y p y y v b =.r.7.r.v.g.;.b t t y v b V =.d.j.:.y p v b y r t B r q ",
"V.G.F.j.r.&.B w.D a n w.g.g.;.C t r 1 * = % ; % % ; % % = - = - q y b b ,.%.>.J.f.j.f.>.-.,.g t t y v =.N r r t y N S r r p r - ",
"U.Z.H.e.;.g.7.b.s.g.j.d.;.:.b y y y t r s s r a a a a N v V C C %.-.>.f.f.h.C.A.C.C.A.D.Y.D.S.d.C v B B p y t y y t f p p v y r ",
"V.A.H.F.j.j.F.e.d.;.f.d.f.j.d.d.d.e.>.;.e.;.e.h.e.h.j.j.F.L.F.F.T.H.Y.H.H.G.A.Z.C.C.C.A.j.Z.L.L.I.F.V.j.f.e.d.j.h.7.;.f.F.b.g.e.",
"G.J.G.U.L.V.h.d.f.S.S.D.S.D.D.D.Y.Y.U.C.D.C.S.Z.V.C.Z.C.V.C.Z.G.V.F.L.V.G.U.Z.G.A.V.C.C.K.S.S.S.S.S.S.I.U.S.S.S.L.U.I.V.L.Z.V.G.",
"L.L.K.S.S.V.V.S.S.S.C.S.C.A.G.A.C.C.C.C.C.C.C.V.S.S.S.S.S.S.S.S.V.S.C.S.S.S.S.S.S.L.L.S.S.S.S.S.A.C.A.C.A.C.A.C.S.C.V.C.V.V.C.Z.",
"L.K.S.S.S.V.S.S.S.S.S.C.A.C.A.G.C.G.L.C.V.V.K.S.L.S.U.S.D.D.S.D.D.S.S.A.S.S.V.S.K.I.U.I.S.S.S.S.A.A.A.A.C.A.A.S.A.C.C.C.C.C.C.V.",
"K.K.S.K.S.S.V.S.V.S.L.L.G.G.U.G.L.U.L.F.L.L.L.L.L.K.L.L.U.I.L.D.D.D.D.A.S.S.K.K.F.K.K.L.S.S.S.S.S.A.D.S.A.C.S.S.S.C.C.C.C.V.C.V.",
"I.I.K.L.L.L.L.V.S.S.S.F.L.U.U.G.U.P.L.G.G.K.G.K.L.I.L.L.S.I.L.L.U.D.A.A.S.L.L.K.P.K.K.F.B.S.S.U.U.D.S.D.S.S.S.S.S.S.S.S.U.A.G.A.",
"I.Y.U.I.I.I.G.V.V.L.I.I.U.P.U.U.P.P.P.F.F.F.K.K.L.K.K.S.K.G.L.G.U.A.G.P.K.L.H.P.P.H.F.F.V.H.L.P.I.U.L.U.L.U.L.U.I.U.I.U.L.L.U.I.",
"Y.I.Y.I.Y.P.L.F.V.K.I.I.P.L.I.Y.P.P.P.F.F.F.L.K.K.K.S.K.H.H.H.F.G.G.H.K.K.K.H.H.F.F.F.F.L.H.H.L.L.I.I.U.L.I.I.L.U.L.I.I.U.I.L.U.",
"P.I.I.Y.P.T.P.P.F.F.K.I.I.D.U.I.U.I.I.K.K.K.K.L.K.K.F.K.K.L.K.K.F.K.K.K.L.K.K.K.F.F.F.L.F.F.K.L.L.L.L.L.L.H.H.L.L.L.L.G.G.L.L.L.",
"L.Y.P.I.P.P.T.T.K.j.V.S.Y.I.I.U.I.I.I.K.K.S.L.K.K.K.F.K.F.L.K.K.K.K.K.K.K.K.V.G.S.S.K.V.K.K.K.K.K.K.I.K.H.P.L.L.L.L.L.A.L.G.G.U."
};
