/* XPM */
static char *_2d6dd9a343244bf9f0e2588233fd7d4SWqVXkbiScZQl0ge[] = {
/* columns rows colors chars-per-pixel */
"64 64 254 2 ",
"   c #020101",
".  c #0C0000",
"X  c #0B0A08",
"o  c #120000",
"O  c #1A0100",
"+  c #150A0A",
"@  c #1B1817",
"#  c #17110B",
"$  c #240101",
"%  c #2B0300",
"&  c #240B04",
"*  c #3B0001",
"=  c #390905",
"-  c #371506",
";  c #261A12",
":  c #371819",
">  c #2C0F10",
",  c #28251C",
"<  c #372A16",
"1  c #2B1E26",
"2  c #292425",
"3  c #38352A",
"4  c #383132",
"5  c #440101",
"6  c #4B0300",
"7  c #480B00",
"8  c #530300",
"9  c #580A00",
"0  c #491509",
"q  c #5C1C01",
"w  c #581507",
"e  c #571B16",
"r  c #491514",
"t  c #680800",
"y  c #780A00",
"u  c #631C01",
"i  c #681704",
"p  c #7B1501",
"a  c #771905",
"s  c #681D13",
"d  c #711D12",
"f  c #542B17",
"g  c #68270A",
"h  c #79220A",
"j  c #672618",
"k  c #7B2313",
"l  c #772819",
"z  c #793919",
"x  c #6F3311",
"c  c #541E21",
"v  c #48332A",
"b  c #453835",
"n  c #54302D",
"m  c #642926",
"M  c #7A2B23",
"N  c #69322A",
"B  c #773427",
"V  c #6E3736",
"C  c #78451E",
"Z  c #484439",
"A  c #544638",
"S  c #474127",
"D  c #784627",
"F  c #7B4838",
"G  c #7C5333",
"H  c #65522A",
"J  c #673844",
"K  c #7E3E4C",
"L  c #484543",
"P  c #565348",
"I  c #5C5754",
"U  c #544B47",
"Y  c #665945",
"T  c #78585A",
"R  c #6A4E4D",
"E  c #68645A",
"W  c #74675B",
"Q  c #6A644A",
"!  c #7A5A67",
"~  c #6D6C66",
"^  c #79756A",
"/  c #7B6965",
"(  c #851400",
")  c #8C1500",
"_  c #8C1C01",
"`  c #831D04",
"'  c #941B01",
"]  c #981902",
"[  c #830E00",
"{  c #A11B00",
"}  c #88260A",
"|  c #96270B",
" . c #9A330A",
".. c #842514",
"X. c #842A1B",
"o. c #892915",
"O. c #972C15",
"+. c #8A3518",
"@. c #983517",
"#. c #A92807",
"$. c #BE290D",
"%. c #B4280C",
"&. c #B8350D",
"*. c #A82C15",
"=. c #BB2E14",
"-. c #B62C18",
";. c #A33215",
":. c #AA361B",
">. c #BD3413",
",. c #BE3B15",
"<. c #B3341B",
"1. c #BD3A1C",
"2. c #B63619",
"3. c #A8320A",
"4. c #862D25",
"5. c #873324",
"6. c #983826",
"7. c #913731",
"8. c #A93B24",
"9. c #B33D23",
"0. c #B93C23",
"q. c #B13732",
"w. c #C02A0E",
"e. c #C82F0E",
"r. c #C4330E",
"t. c #CA3C0F",
"y. c #C6390E",
"u. c #C22D11",
"i. c #CA2F10",
"p. c #C33311",
"a. c #C93011",
"s. c #C53C14",
"d. c #CB3C11",
"f. c #C33419",
"g. c #C23A1A",
"h. c #D23F13",
"j. c #C43B25",
"k. c #A6451B",
"l. c #B84419",
"z. c #B65113",
"x. c #96572A",
"c. c #87483A",
"v. c #994639",
"b. c #8D5032",
"n. c #AC4224",
"m. c #A84B2A",
"M. c #BD4523",
"N. c #B94829",
"B. c #BD552A",
"V. c #A84736",
"C. c #B64C34",
"Z. c #B65732",
"A. c #93683A",
"S. c #B9692E",
"D. c #994E13",
"F. c #C7460D",
"G. c #C5431C",
"H. c #CA441C",
"J. c #C94716",
"K. c #D34614",
"L. c #C55616",
"P. c #C64924",
"I. c #C65428",
"U. c #D07336",
"Y. c #C2611C",
"T. c #B23D43",
"R. c #884A4B",
"E. c #94584B",
"W. c #945A58",
"Q. c #885459",
"!. c #B3544C",
"~. c #9D6A47",
"^. c #906C4F",
"/. c #AA7650",
"(. c #855865",
"). c #867975",
"_. c #926B72",
"`. c #AA6F6E",
"'. c #D05852",
"]. c #C9754B",
"[. c #D07169",
"{. c #DD863F",
"}. c #B08557",
"|. c #888479",
" X c #9B8B75",
".X c #AD8F6E",
"XX c #B5A478",
"oX c #D08F53",
"OX c #E98F48",
"+X c #D6A45A",
"@X c #F3AA59",
"#X c #D59471",
"$X c #E9997B",
"%X c #D5AE71",
"&X c #EBB86E",
"*X c #EBC87D",
"=X c #AC7B8B",
"-X c #C57D88",
";X c #988C83",
":X c #99958C",
">X c #AD918D",
",X c #A7A298",
"<X c #B5A79A",
"1X c #BEB29A",
"2X c #BAB4A7",
"3X c #B4ACA8",
"4X c #B69FA5",
"5X c #D38996",
"6X c #C5B59E",
"7X c #CCB89F",
"8X c #CBB089",
"9X c #ECBA93",
"0X c #EA98A6",
"qX c #C6B5A1",
"wX c #CAB7A1",
"eX c #CAB8A2",
"rX c #C9BAA9",
"tX c #CCB9AC",
"yX c #DCAAA7",
"uX c #F5C88A",
"iX c #F4CF98",
"pX c #D2C3AD",
"aX c #C8C4B8",
"sX c #D5C6B4",
"dX c #D8CAB8",
"fX c #D8CCB6",
"gX c #F0D4B4",
"hX c #FBEBBC",
"jX c #CEC18C",
"kX c #DFB0C4",
"lX c #D5CDC4",
"zX c #DBD6C9",
"xX c #D2D3CE",
"cX c #E5DAC7",
"vX c #FCDBC5",
"bX c #E8DDD6",
"nX c #ECE2CC",
"mX c #F9E5C9",
"MX c #FFF7C5",
"NX c #EBE6D8",
"BX c #F3ECD6",
"VX c #F5EDD8",
"CX c #FAEEDA",
"ZX c #F7E8D6",
"AX c #FBF2DC",
"SX c #FEF8DB",
"DX c #F8EEE3",
"FX c #FCF5E3",
"GX c #FFFBE5",
"HX c #FFFCEC",
"JX c #FEF6EA",
"KX c #FEFEF3",
"LX c #FFFFFA",
"PX c #EBECE6",
/* pixels */
"VXVXVXVXVXVXVXVXVXVXVXVXVXVXVXVXBXBXVXVXVXVXBXBXBXGXHXHXBXaX:X~ Z Z Z ~ aXKXFXNXVXVXVXVXVXVXVXVXVXVXVXVXVXVXVXVXVXVXVXVXBXVXVXVX",
"VXVXVXVXVXVXVXVXVXVXVXVXVXVXVXVXBXVXVXCXVXVXBXAXAX:XQ S < # ; S Q P |.S   Z zXGXBXVXVXBXVXBXVXVXVXVXVXVXVXVXVXVXBXVXVXVXVXVXVXVX",
"VXVXVXVXVXVXVXVXVXVXVXVXVXVXBXBXVXVXVXVXVXVXAXcXf S  XXXjXgXhXhXhXjXjXGXzXP   ,XHXBXVXVXVXVXVXVXVXVXVXVXVXVXVXVXVXVXVXVXBXVXVXVX",
"VXVXVXVXVXVXVXVXVXVXVXVXVXVXVXBXVXVXVXVXVXVXFXv f uXiX*XuX*X*X&X&X%X^.XXSXGX2X  :XHXNXBXBXVXVXVXVXVXVXVXVXVXVXVXVXVXVXVXVXVXVXVX",
"VXVXVXVXVXVXVXVXBXCXBXBXVXVXVXVXVXVXVXVXBXHX/ r }.{.U.U.OXOX@X@X@X&X+XA.%XMXHXaX  aXGXBXVXVXVXVXVXVXVXVXVXVXVXVXVXBXVXVXVXVXVXVX",
"VXVXVXVXVXVXVXVXBXCXBXVXVXVXVXVXVXVXVXNXGX2X: E.k.F.F.F.F.F.L.L.L.Y.S.D.+XiXGXLX:X, DXVXVXVXVXVXVXVXVXVXVXVXVXVXVXVXVXVXVXVXVXVX",
"VXVXVXVXVXVXVXVXBXCXVXVXVXVXVXVXVXVXVXVXDXb R.7.H.K.K.K.K.K.K.F.K.F.l. .S.uXFXKXKX@ ,XGXNXVXVXVXVXVXVXVXVXVXVXVXVXVXVXVXVXVXVXVX",
"VXVXVXVXVXVXVXVXBXBXVXVXVXVXVXVXVXVXVXGXlXr `...H.K.K.K.J.J.K.H.K.P.P. .D.%XBXHXLX~ Z HXBXVXVXVXVXVXVXVXVXVXVXVXVXVXVXVXVXVXBXVX",
"VXVXVXVXVXVXBXBXCXBXVXVXVXBXVXVXVXVXZXDXlXn W.4.I.K.H.P.I.P.N.N.Z.C.Z.n.k.].hXHXKXlX# bXAXBXBXVXVXVXSXBXVXVXVXBXVXVXVXVXVXVXVXVX",
"BXVXVXVXVXVXBXVXVXBXVXVXSXBXVXVXVXVXNXJXbXn W.s C.n.@.o.h u w 7 7 7 7 w g b.#XAXKXKX3 ;XGXBXBXVXVXVXBXBXVXVXVXVXVXVXVXVXBXVXVXVX",
"VXVXVXVXVXVXVXVXVXVXVXVXVXVXVXVXDXVXJXPX>Xv R r 0 % $ O o o o . o . o o o o & A  XZX;XZ GXBXVXVXVXVXVXCXVXVXVXVXVXBXSXVXVXVXVXVX",
"VXVXVXVXVXVXVXVXVXVXVXVXVXBXBXBXJXbX;XU b 4 + o . .                 # 2 ~ E . X o O Z @ NXGXBXVXBXVXVXVXVXVXVXVXVXVXBXVXBXVXVXVX",
"VXVXVXVXVXVXVXVXVXVXZXVXVXVXBXJXtXU b 4 +                             L ~ :X2X XW Z     3 cXDXBXVXVXVXVXVXVXVXVXBXVXVXVXVXVXVXVX",
"VXVXVXVXVXVXVXVXVXBXVXVXVXBXHX,Xb b + X                             ~ LX;X, 1XY S Z   E I 4 FXBXBXVXVXVXBXBXVXVXVXVXVXVXVXVXVXVX",
"VXVXVXBXVXVXVXVXVXVXVXVXZXFXsX2 2                                   ,XLX|., - f & o E cX~ Z rXGXBXVXVXVXVXCXVXVXVXVXVXVXVXVXVXVX",
"VXVXVXVXVXVXVXVXVXVXVXVXBXJXE 2   X   X                 . .       , I 3XL o G 9X7X< ;X<XQ P <XGXBXVXVXBXVXVXVXVXVXVXVXVXVXBXVXVX",
"VXVXVXVXVXVXCXBXVXBXVXVXBXFXZ         X               . - c O . X 2 ; ; O 0 `.9XMX|.|.2XcXW ,XGXBXVXVXVXVXVXBXVXVXVXVXVXVXVXVXVX",
"VXVXVXVXVXVXVXBXVXVXVXVXBXFX|.  X @ 2 2 4 1   X       . e N - O o o O % e b.$XmXSXfX2XE 2X^ aXHXBXBXVXVXVXVXBXBXVXVXVXVXVXVXVXVX",
"VXBXBXVXVXVXVXVXBXBXBXSXVXVXGX).    @ 2 @ L @       . $ s l j e s f M l +.].9XKXBXHX;X,XPXW VXVXBXVXVXVXVXVXVXVXVXVXVXVXVXVXVXVX",
"VXCXVXVXVXVXVXVXSXBXBXVXVXVXVXJXaX^ L 4 4 L I 4 o o $ m M k 5.l d l ..p 9.#XvXHXJXLXI zX:X|.GXBXVXVXBXVXVXVXVXVXVXVXVXVXVXVXVXVX",
"VXVXVXVXBXVXVXVXVXVXVXVXVXVXVXBXFXHXHXDXJXbX,XR J c V E.l 5.w 7 s l k a N.5XSXHXKXLX,X4 ^ NXVXVXVXVXVXVXVXVXVXVXBXBXVXVXVXVXVXVX",
"VXVXVXVXVXVXVXVXVXVXVXVXVXVXVXVXVXNXBXVXPXPXKX>X_.K M B 9 B r 0 r j M ` :.9XSXKXLXLXbX  bXGXVXVXVXVXVXVXVXVXVXVXMXVXVXVXVXVXVXVX",
"BXVXVXVXVXVXCXBXVXVXVXVXVXVXVXVXVXVXVXVXVXBXDXlX! =Xs j r 7 % $ $ % e d :.#XAXKXLXLXPX  |.HXNXVXVXBXBXVXVXVXVXVXVXVXVXVXVXVXVXVX",
"VXVXVXVXBXVXVXVXVXVXVXVXVXVXBXVXVXVXVXVXVXZXBXKX=X=XW.5 % & = % $ = 7 h @.#XCXKXJXLX2XL P HXBXVXVXVXBXAXVXVXVXVXVXVXVXVXVXVXVXVX",
"VXVXVXVXVXVXVXVXVXVXVXVXVXVXVXVXVXVXBXBXVXVXVXAXBXT 4Xm % = - m = 7 w a @.#XCXGXSXvXb aXZ zXVXVXVXVXVXVXVXVXVXVXVXVXVXVXVXVXVXVX",
"VXVXVXVXVXVXVXVXVXVXVXVXVXVXVXVXVXVXBXBXVXVXBXBXJX,X=X=X= c V R R.j l ..O.[.gXmX7Xf b KXU aXKXNXAXVXVXVXVXVXVXVXVXVXVXVXVXVXVXVX",
"VXVXVXVXVXVXVXVXVXVXVXVXVXVXVXVXVXVXVXVXVXVXVXVXZXPX! kXR.M N n = 0 l h O.m.V.v.j % tXLX:XL 2XJXBXVXVXVXVXVXVXVXVXVXVXVXVXVXBXVX",
"VXVXVXVXVXVXVXVXVXVXVXVXVXVXVXVXVXVXVXVXVXVXVXVXZXLX4X(._.* $ $ $ j k ....o.6.k 5 W.JXLX,X@ @ 3XJXVXVXAXVXVXVXVXVXVXVXVXVXVXVXVX",
"BXVXVXVXVXVXVXVXVXVXBXVXVXVXVXVXVXVXVXVXVXVXVXVXDXNXKX/ (._.* = e l ..k ` 5.s * 4.!.CXLXlXL |.3 JXBXBXBXBXVXVXVXVXVXVXVXVXVXVXBX",
"BXSXVXVXVXVXVXVXVXVXBXBXVXVXVXVXVXVXVXVXBXVXVXVXDXZXVXDX(._.=Xc w d d 4.4.9 * M 8.v.gXJX).Z KX@ aXFXBXVXAXBXVXBXVXVXVXVXVXVXVXVX",
"BXVXVXVXVXVXVXVXVXBXVXVXVXVXVXVXVXBXSXVXVXVXVXVXZXVXZXVXJX;X(.4XW.R.R.m % 6 M k o.8.!.n Z PXKX^ Z KXNXVXBXBXVXVXBXBXVXBXVXVXVXVX",
"BXVXVXVXVXVXVXVXVXVXVXVXVXVXVXVXVXVXBXVXVXVXVXVXVXVXVXVXBXJX3Xn J V e * w B X.o...k.g b.mXGXKXPX@ E GXFXBXVXVXVXVXVXVXVXVXVXVXVX",
"VXVXVXVXVXVXVXVXVXVXVXVXVXVXVXVXVXVXVXVXVXVXVXBXVXVXVXVXNXDXPXO J R.t 4.4.X...X.l w x.9X%XhXGXHXlXP 3 xXHXVXBXBXBXVXVXVXVXVXVXVX",
"VXVXVXVXVXVXVXVXVXVXVXVXVXVXVXVXVXVXVXVXVXVXVXVXVXVXVXVXCXJX_.1 (.0X4.......X...9 +.].oX+X+XMXaXnXHX:X, ^ NXHXHXAXNXBXBXVXVXVXVX",
"VXAXVXVXVXVXVXVXVXVXAXVXVXVXVXVXVXVXVXVXVXVXVXVXVXVXVXBXJXW (.K r !.T...o.4.i t ;.G.l.L.OX*X}.Q SXFXHXNX^ Z E 2XBXHXGXBXBXVXVXVX",
"VXVXVXVXVXVXVXVXVXVXVXVXVXVXBXVXAXVXVXVXVXVXVXVXVXVXBXDXlX> >X5 4.4.T.4.6.t t 8.H.t.K.l.Y.S.& 1XBXhXSXSXHXBX^ ; # P rXHXHXNXVXVX",
"VXVXVXVXVXVXVXVXVXVXVXVXVXVXVXVXVXVXVXVXVXVXVXVXVXVXNXHX^ J [.p 9 B 4.l 9 a P.G.d.d.h.P.m.7 XXFX&X}.&X9XgXSXHXHX2XL X 3 2XHXDXBX",
"VXVXVXVXVXVXVXVXVXVXVXVXVXVXVXVXVXVXVXVXVXVXVXVXVXVXVXFXJ `.!.N.8 w s 8 ` N.g.d.h.d.K.P.u f Y mX].z.S.m.x.}.8XMXGXHXzXI   Z lXHX",
"VXVXVXVXBXVXZXBXAXVXBXVXVXVXVXVXVXVXVXVXVXBXVXVXVXNXGXqXV [.9.I.5.* 6 @.M.s.d.h.h.s.I.} 0 XXjXiXk.J.L.L.B.k.x.A..XgXHXKXxX3   E ",
"VXVXVXVXBXfXpXrXpXnXVXVXVXVXVXVXBXVXVXVXVXVXVXVXBXVXKXn R.!.C.p 7 l g X.P.d.d.d.F.H.N.8 G n >Xb.l.F.s.s.F.J.U.S.}.}..XzXGXGX,X@ ",
"VXVXVXVXfX6X7XqXeX6XnXBXBXVXVXVXVXVXVXVXVXVXVXNXCXJXI > F R.j 5 V.!.w * O.M.s.d.K.P.o.7 ^.XXg @.G.t.t.d.t.y.J.J.z.{.oX~.XXSXGXnX",
"VXVXVXcX6XeXeXeXeX6XeXBXVXVXVXVXVXVXCXAXAXVXBXHXbXv b T `.7 * 7.V.@.+.i 9 :.s.d.s.:.g G G ~.i l.G.d.t.t.d.t.t.F.F.z.I.+X}.G 1XhX",
"VXVXSXfXwX7XeXeXeXeX6XnXSXVXVXVXBXAXnXfXfXbXHX<X$ (.`.R.W.% O.M.y | | C.` p P.F.l. .q D #XC ` P.s.t.d.d.d.d.t.t.y.F.l. .S.+X&X*X",
"VXBXVXfXwXwXwXwXeXqX7XmXVXVXVXVXVXfX6X6XeXdX/ o _.5Xc >Xf u N.1.P.:.#.M.N.p &.P.:.h C ^.D w l.s.t.t.F.t.d.t.d.d.s.G.#. .D.{.@X&X",
"VXZXAXfX6XeXeXwXeXeXrXBXCXVXCXCXZXtXtXtX<X: > -X[.o.V W.j +.1.p.0.#.#.H.G.&.' N.+.q G }.g +.l.d.d.t.t.t.d.d.d.s.G.#.{ P.z.&.{.@X",
"VXVXSXfX6XeXeXeXwXwX7XnXCXVXZXCXcXqXdX;Xo n 0X[.-.9.l `.i n.,.s.P.] >.d.s.G.3.+.q E./.C i N.s.d.t.t.t.d.d.t.d.s.M.[ s.s.F.y.z.{.",
"VXVXVXfX7XeXeXeXwXeXwXfXCXCXCXDXbXsX;XO (.0XT.-.g.*.B W.i :.>.s.2.) H.t.t.s.M.a 0 H }.q  .G.s.t.t.d.d.t.t.d.t.H. ._ H.y.t.t.y.F.",
"VXBXcXsX6XeXeXeXwXwXwX6XpXpXdXnXCX XO (.0XT.-.f.f.| R.~.a M.>.H. ._ H.t.t.s.N.h ~.A.j u l.d.d.d.d.t.t.d.d.d.t.H._ @.K.t.t.t.F.t.",
"VXVXAXnXeXeXeXeXeX7XwXwXwXeX6XrX3Xo J 0Xq.f.f.f.f.| R.c.} l.f.G._ O.G.t.t.P.} g C ~.9 n.G.t.d.d.h.t.t.t.h.d.s.,.p n.s.s.d.d.d.d.",
"VXAXCXcXeXeXeXeX7XeXwXwXeXwXwXsXn > 0XT.f.f.i.i.j.] c.E.a M.,.g.y k.G.y.H. .g }.A.g } M.s.d.d.d.d.h.d.d.d.d.H.#.( P.f.d.d.d.p.d.",
"CXcXtX6XwXwXwXeXeXeXeXeXeX7XtX<X+ =X[.-.u.i.i.f.d.*.N D t n.M.3.[ M.,.H.@.w x./.g a 1.,.s.y.p.d.d.d.d.d.d.s.M._ | P.d.d.d.d.t.t.",
"sXqX7X7XwXwXeXeXeXeXeXeXeX6XfX(.r -Xq.u.i.i.i.i.a.*.w W.j +.Z.p } B.I.} w /./.x i M.>.r.r.r.r.r.r.r.r.d.a.1.m.t &.s.d.d.d.d.t.t.",
"6XwXeXeXeXeXeXeXeXeXeXwXeXeXsXv m [.-.f.a.a.i.i.a.0.t E.c.q z 6 +.+.x g D.G ~.9  .1.r.p.p.r.r.p.p.r.r.r.r.1.l 6 M.d.d.d.d.d.d.d.",
"eXwXeXeXeXwXeXeXeXqXwXeXqXrXqXO M '.-.u.a.a.i.i.i.g.6.l D ^.F x l z D D }.~.8 o.0.p.p.r.p.r.p.p.p.r.p.r.p.n.5 6 1.p.p.p.d.d.d.p.",
"tXeXeXeXeXeXeXeXeXeXeXeXeXtX;Xr R.0.f.a.a.a.a.a.i.p.0.` s E.D }.~.C #Xb.D 7 | 2.>.r.p.r.p.p.p.r.p.p.p.=.g.O.6 i :.y.r.r.p.d.d.d.",
"wXeXeXeXeXwXeXwXeXeXeXeXwXsXI V 7.<.p.a.r.a.u.i.i.a.p.*.} u q j x z C q 9 o.M.>.$.p.p.p.p.r.p.p.p.r.p.>.g.( d } 1.p.p.p.r.d.s.d.",
"eXeXeXeXeXeXeXeXeXeXeXeX6XdXn T 7.9.f.a.u.i.i.i.a.a.=.%.0.O.8 ..} p y } :.2.>.r.p.p.u.r.r.y.r.r.r.p.r.p.>.#.o.p 1.p.>.>.r.r.r.d.",
"eXeXeXeXwXeXwXeXeXeXeXeXeXtX: R...-.u.i.a.u.i.i.a.a.w.$.0.) _ C.n.0.M.0.>.,.>.,.>.>.f.1.,.f.f.p.>.p.p.p.>.2.o.p 1.p.%.>.p.r.r.p.",
"eXeXeXwXwXwXeXeXeXeXeXeXtX<XO R.O.-.f.f.f.w.w.u.u.u.$.-.0.y | 0.2.:.:.:.:.:.:.:.8.:.;.;.;.*.#.&.p.p.p.p.=.1.} a 0.p.#.f.p.p.p.p.",
"eXeXeXeXeXwXwXeXeXeXeXqXpX;Xo 7.q.=.%.%.%.=.u.w.w.w.$.-.8.t :.%.' ' ' ' ' ' ) ) ( ( ) ) ) ' #.<.-.>.p.p.y.g.a a N.{ %.f.>.p.p.p.",
"eXeXeXeXeXwXeXeXwXwXwXqXdX^.o m q.) ] { { %.u.w.u.w.w.2.O.t 0.%.#.1.>.,.f.f.,.&.>.f.,.1.g.s.f.g.' *.f.y.r.l.y X.;.] g.u.y.p.p.r.",
"eXeXeXeXeXeXeXeXwXwX7XqXsXR O e 7.] 0.-.-.-.=.w.u.w.w.1...t N.%.%.1.p.r.r.>.>.P.P.&.r.e.r.r.e.g.(  .1.r.p.1.9 l } :.f.r.p.r.p.p.",
"wXeXwXeXeXeXeXeXwXeXwXrXtXv R 7 O.] j.-.=.-.$.=.w.w.w.>.a a N.] #.g.p.p.a.&.I.].:.2.>.p.p.p.p.g.p O.1.e.p.:.8 w O.f.r.p.p.p.r.p.",
"eXeXeXeXwXeXeXwXeXeXqXtX X4 =X* 4.0.'.-.f.{ %.u.w.w.w.0.y k N.] #.g.p.p.r.,.O.8 t <.>.r.p.p.u.g.y @.1.$.f.;.* w 9.>.>.p.r.r.p.p."
};
