/* XPM */
static char *_302fc8fd08a45e9f3d772b421173f701yv82ibJZrEf5a9Z[] = {
/* columns rows colors chars-per-pixel */
"64 64 154 2 ",
"   c #161A1E",
".  c #1B1C1F",
"X  c #1D1E22",
"o  c #211F24",
"O  c #1E2224",
"+  c #212326",
"@  c #23252A",
"#  c #25292C",
"$  c #292B2E",
"%  c #32322E",
"&  c #262630",
"*  c #272A32",
"=  c #2B2D32",
"-  c #2D2D3B",
";  c #302E33",
":  c #2E3134",
">  c #2F3239",
",  c #323334",
"<  c #383735",
"1  c #363837",
"2  c #393A37",
"3  c #33353A",
"4  c #36393D",
"5  c #3A3B3D",
"6  c #3E403F",
"7  c #40413F",
"8  c #3C3D42",
"9  c #413F43",
"0  c #3E4144",
"q  c #3F4249",
"w  c #424344",
"e  c #464847",
"r  c #494B46",
"t  c #43454A",
"y  c #46494C",
"u  c #4A4B4D",
"i  c #4E504E",
"p  c #51524D",
"a  c #444750",
"s  c #474A51",
"d  c #4C4D52",
"f  c #4E4F59",
"g  c #4E5154",
"h  c #4E525A",
"j  c #535455",
"k  c #565955",
"l  c #5A5B56",
"z  c #54555A",
"x  c #56595C",
"c  c #5B5C5D",
"v  c #5F6257",
"b  c #5E615D",
"n  c #62635E",
"m  c #6A6C5F",
"M  c #565762",
"N  c #575C62",
"B  c #5C5E62",
"V  c #5E6163",
"C  c #5F6369",
"Z  c #636464",
"A  c #686763",
"S  c #666865",
"D  c #6A6B66",
"F  c #64666A",
"G  c #68676C",
"H  c #66696B",
"J  c #6B6C6B",
"K  c #706F6D",
"L  c #6E7166",
"P  c #6F706C",
"I  c #72726D",
"U  c #78756C",
"Y  c #76786E",
"T  c #7A7A6E",
"R  c #676A71",
"E  c #6C6E71",
"W  c #706F73",
"Q  c #6E7173",
"!  c #6E7178",
"~  c #737473",
"^  c #787774",
"/  c #777874",
"(  c #797A75",
")  c #747679",
"_  c #79777B",
"`  c #76797A",
"'  c #7C7E7D",
"]  c #7D7F7E",
"[  c gray50",
"{  c #7C7C7C",
"}  c #7B7C7B",
"|  c #807F7B",
" . c #7B807C",
".. c #7E807F",
"X. c #7F807C",
"o. c #818175",
"O. c #80827F",
"+. c #82837E",
"@. c #82827C",
"#. c #8A877E",
"$. c #787B80",
"%. c #7B7F82",
"&. c #7D7C81",
"*. c #7E7D82",
"=. c #7D7E82",
"-. c #7C7E81",
";. c #807F84",
":. c #7F8180",
">. c #7F8082",
",. c #7F8084",
"<. c #7E8285",
"1. c #7F8386",
"2. c #7E8183",
"3. c #808281",
"4. c #808183",
"5. c #828483",
"6. c #818284",
"7. c #828385",
"8. c #838287",
"9. c #838484",
"0. c #868887",
"q. c #858A86",
"w. c #878986",
"e. c #898983",
"r. c #838488",
"t. c #858688",
"y. c #878789",
"u. c #868789",
"i. c #84858A",
"p. c #86858A",
"a. c #85868A",
"s. c #84868A",
"d. c #87888A",
"f. c #87888C",
"g. c #87888D",
"h. c #86898A",
"j. c #888888",
"k. c #88898B",
"l. c gray54",
"z. c #8A8C8B",
"x. c #898A8C",
"c. c #88898E",
"v. c #898A8E",
"b. c #8A8B8B",
"n. c #8F918F",
"m. c #8E8F91",
"M. c #8D8E91",
"N. c #8F9093",
"B. c #919294",
"V. c #929394",
"C. c #96969B",
"Z. c #97989C",
"A. c #989A9A",
"S. c #9E9FA3",
/* pixels */
"Z G J J B c j 9 ;._ _ _ ;.| { y...~ ( ~ , ~ 5.| :.8.:.} ^ Q D V V R B 4 V N h h N M N x h g 8 u z d d z B B J B M k 4 d B F B F ",
"2 5 5 w 9 8 ; o 9 9 8 9 t u e t 0 t g e . 4 8 t w w j g d d t e 9 t 5 O - > = : = 3 3 > 4 g t e c j c d t 8 3 3 3 5 = : 4 3 9 4 ",
"f Z F E ~ R ~ R G G W G z O * t z M V z d j d z y j j $ = B F F J J E E ! :.<.1.) M # ~ g.h.h.z.B.d.M.k.x.5.u e r.p.y.5.r.` G ; ",
"G v.p.;.*._ 8.&.;.$.;.c.M.5 z $._ _ ! J ) E E ~ G R E y d M.*.%.| ' p.k.d.1.q.` ~ F w ~ Q ` Q } ` J ~ D J ~ e Z 8.' 8.) _ _ _ 9 ",
"c ( I Q ( ( } ~ D Z Z V E , d c b b c k l k c n c j x 7 y } D J Z D ~ ~ ~ Q J S Z j , Z J I G ~ P ( ( ~ D H 2 l ` ` :.' ` ~ ~ 4 ",
"A } / / +.( / L I / I P F 2 h Z b b b v k j c k p j v r i 5.Q P J ^ J ~ ~ ~ ~ J G V 7 K I J I D D ~ ~ ( / ~ 7 Z ..^ ^ ( ` ( P 1 ",
"c I / /  .Y P L P L L P c 1 k S A v l l p k k p p r r 7 u ~ D P J ~ J J G G J G J k 7 G Z G V D Z G J I Q J 5 Z ^ Q ~ ~ ~ G Z 2 ",
"k G I P I Y P L P L P S b 6 B J P n n l k p j j j u r u j ~ S Z S G P P / J ` ( ~ D 5 S Z l n x c b A G I ~ w J ~ ~ ~ ~ ~ A Z 4 ",
"8 w u u u p j l l j g d d ; t z s u d z z u f y t 3 , = 4 s y y y i u e t 5 0 0 e 6 $ e y 0 y e w 5 t e g b 1 g c c Z J Z B p o ",
"G Z M d B B u + + : 4 4 8 4 f z z j y 8 @ 8 9 t w t d z M z s t t : : B V V V H H C k j 0 > O # : 3 3 4 0 : : 0 t d 4 8 s g c c ",
"E ;.y.J ~ =._ 5 ~ x.v.y.;.M.C.B.Z.S.C.E t M.N.N.N.M.x.p.v.p.M.M.1.C g 1.) ! ~ $.<.` <.1.1.<.e > J G H J ) C `  ._ ) d c p.;.) _ ",
"B F G ~ Z Z Z 5 } q.' } _ { | _ ~ ` ' J 5 { ) { ) ~ J G J G D Z R H N E x F C j V V V V V ) q t M y h g x z x x c B w z E c M B ",
"~ K U } K n c < J ^ ~ ^ ^ | | | { ( ( n % P ( o.' { I I J D I A C x s H Z Z Z G V C F Z V E t s z t z d g x g g x h 3 g E V H V ",
"K K ( D J J A , A } ' | | e.#.#.| o.{ n % D { ( { o.o.} T U L A S V g c V B B Z S H F D H R y t s y d h q g h g d g 0 h E C V V ",
"A l n A W K Z 4 Z _ | | | #.| #.9.~ K x % A ~ } ( { o.( ^ I D A Z k g F V j k c V D Z Z V Z d u s u t g g g k y y g 6 y V V V H ",
"b c J K J W c 4 G W ^ ^ ^ ( T | ^ J E c 3 D J W I J ^ ~ K K Z c S h u S x c n c k x Z V c B u w q q q t q q g u q 0 4 y V b V V ",
"n W ^ ~ ) ) B 8 W E ~ W ^ _ ^ ' ~ E ~ B 4 R F E H ) ! E E E Z C F V t G V B c Z Z n c c B N d t h q s s g q s h s h 8 q ! C R C ",
"j k u u z z 9 @ w 9 y s u d g u s y y w @ t 0 8 w 0 8 d s y d y M d q B B H Z x b V b b F N h q s y y q 0 4 4 : * 8 @ : q q g d ",
"e k B A J J G M 9 t u u t , $ 8 d z x D Z Q ~ R F z 6 $ = ; 5 8 0 3 - 8 8 8 2 8 : , 3 3 3 3 = & * O O # O 4 0 s ! V V C C q # O ",
"_ 9.9.w.d.9.5.' } j.;.8.y.2 $ M.z.n.z.z.z.z.n.d...5.( $ c ;.M.x.r.y.*.$.E s $ d B c F E R G E ! Q Q R 4 3 h.h.$.<.<.<.!  .1.C O ",
"Z J Z F I J J K K n B F G d d ) P I ( P I I I J S S ~ w  .5.`  .~ I ~ P ~ l d l.} / ( ..( I P D P Q 2.Z t ^ D ) P D P S b V k : ",
"Z ~ ~ U ~ I I ( ( W K A G s 9 ) Y / o.( ( ( / ~ P L Z w S I ~ D P D L P K Z j ~ S A S S P I P Z S Z b g 0 ) ) (  .I L L V C h # ",
"J ^ ~ K Y I Y ( U ^ U G G d f W } U ( U I / ( ( P D b i P ~ ~ ~ / ~ D D G Z g E J ~ P S J ~ ~ P L L H g 4 E ~ Q Y Y I L Z B f - ",
"Z ~ ~ Y ~ Y I I K | W A W u 9 W I K I ( ( Y / L P D Z 5 D P D I A ( P ~ W F t E E I ~ P ~ P I ~ ~ S P h 8 E G P L L L A Z F s 8 ",
"Z K W ( / ( I I I D I Z G d 9 W D U ~ ~ ( U G J A J k e Z J ~ Z D P J Q J Z y E E ~ ~ ~ J J ~ D I K G z 8 B V b m v v v Z R s 8 ",
"k Z J ( ( / Y I D I J A G j 3 Z Z A A K J D J A Z c j e D Z F D A L P P E Z y J D S J D A G D D Z J B d 8 B V V b b v b D N 9 - ",
"c n A ^ ^ U I I D A A c Z z 8 G c Z G J G K J c B B b w J G J n n L L P ~ Z d W S Z P m v A S S S Z B z - B x x b A b S M R M 8 ",
"2 7 7 e u j n n B j k x c z 9 z z Z c Z G Z Z c k n x = f k B c l b k b n n w n l j b b k b Z Z G B F M 3 B x x V k k Z f f 8 X ",
"u k c Z Z c c t , 5 w 8 1 , + = 2 ; # t y 0 0 t u z c u j u 9 w d j 4 = - = @ 5 t 8 4 t q 8 t q t 0 e :   : : 1 * * > O 8 9 f f ",
"' ;.5.{ _ 5.r.~ 9 ^ =.{ ) ~ J ) W E H R 5 4 N V B B B G W K G W ~ M - = V R W ) ) :.` &._ R N * g Q ! Q <.Q ` ! ! F g   M ;.$.$.",
"n B Z n V B G z c r.G M B Z Z F E H E ) y s V e p d i j k c p u t g q z $.H J G Z L V b M H C : C  .L R ` L ! Q ! ! C * R R N C ",
"G Z G F F F F z 9 R z F B c B B F F F ! 8 3 u u g j f c j d z g z N > h F x c V V V V V M V x 4 C V b V Z V V x z x h * B C C R ",
"H G R V F F ! c 4 C C C C C ! H H Z E ! $ 3 z f N x M B z B V M d d 3 z G R J J Z B B F F G f 8 W W J G E E C C F R h * C H C C ",
"d t 9 t s t y 3 X 4 8 0 0 q 0 q 0 0 8 0 # = 3 4 8 5 t 9 t 8 8 4 8 8 @ w d u t d d j z d a s > & t d u d d d j s q 8 > X 8 8 s g ",
"> u j c V Z J Z E ~ ! ` Q H 5 : J Q E ^ _ ' ^ { :.=.R @ 3 d c z z 8 8 c c c B x z d = 0 z E R E ~ P G _ ) 8 X 8 0 u g x V x h 4 ",
"D 7.p.p.p.l.l.+.w.k.q.1.`  .x c 5.` ^ K G J J W Q ^ ~ 8 E v.N.N.M.~ ^ y.;.9.5.( ~ } u ~ v.;.;.;.8.} } } p.J 8 *.R R V V x b V # ",
"Z ^ G J ~ ~ U ( J ^ ( { J P g d P G ( ( K K W ^ ^ G G 5 K ~ W ~ I Q P H G S c D F ~ 5 Z ` D ^ ) ~ ~ } P / D 2 Z k b x g s d x O ",
"z ) ~ ~ U Y ~ | ( T L } ~ E g e I I ( ~ K K K ^ ~ J K 2 W _ W J P Y ~ P I ( E ~ D J 0 c ( } } ` ( / Q P ` V 5 Z N C b x x d g O ",
"g ~ I J Y ( Y I Y I I I D V y 0 G I ~ ~ K J F A A B c 2 G ~ W J H S D J J ~ ~ F F D e k S Q ~ U Q ( P F H V 4 j N x g q h d y O ",
"d D G G J A D P D A A l B D g 0 G K J ~ A F G Z Z n n 5 c G Z B v S S S P E R D B V e b J S U J P V P D V Z 5 g k h g g i i g O ",
"t Z Z B Z v n Z S b V x x C h q Z S H b C P V V V k F e Z J F c c b b V A E G A c Z z Z W K A D Z Z F Z V B t d d d y t 0 t 0 + ",
"@ 4 = & 3 , 2 w 6 6 6 5 5 q 3 # 0 6 : 6 6 q q y 0 5 t @ $ 3 4 5 5 6 2 w u u u u 9 9 ; ; 9 u e 9 5 6 3 5 0 w - = # : : = # # #   ",
"G B G R g g B O = x Z B V E C s H Q ! H q O % 6 i d j g j Z D J F k $ 5 z B B Z G F V c f p e ; n A Z A Z Z F V b x > > B Z Z F ",
"G _ *.W ! ` r.5 d E V M h h C V x x V C H > H  .r.:.:.w.5.d.r.=._ ' u c U G G K J A F A n Z Z f ;.} } ' ' =.&.` 2.<.e 0 *.E G J ",
"F K n j D E ) w y n j j x x x b h x g 0 i q  . .A Z G J J D I G J ) 5 u z p l n Z A n z c j d Z { D J J J J D J S S t r ) J ) J ",
"^ A L D D ~ 5.t u A B k k V b b v V g k q r P m J K ~ Y ~ D Y ~ R W 5 u Z A A n A A A A A k 9 G | D ( ^ I I P ( H D w w J J ` ~ ",
"U D I A A I } 6 w k k l k p p v v k r g 6 i H S A D K I U L D D G E 5 j n n v l n v v n z c u Z } D I I ( / P S S / i r H S D / ",
"U K ^ A Z D J 5 w k k k j i p r g g g y 6 i S V n Z A A A Z l Z B B ; j z l l k l l k b c G 9 A A D L D / D G b Z S r i S P ~ / ",
"K J ~ ) Z F ! t d c V B z z g d i s e u 3 V H V V C H S V b k h M V 8 h N g g k g h g z c M f J A n S G F F M z B E g g C Q Q Q ",
"d t 0 y t t u - > 8 8 4 3 3 = 3 @ : : > O 3 0 y 0 u t d u 5 0 8 8 t @ 4 4 > : > : : : = 3 3 & 5 w 6 5 0 t 3 - 4 4 0 : = 6 0 g d ",
"; x Z E J E _ E V c j t w t # 5 Z V E ~ H H R Z V x z : $ r g b c z 0 y s z V V u O 4 t s B Z F D G J ) _ 3 - d B x l b x h g * ",
"j V.p.w.j.9.w.( ' ..} } } =.z E z.+.~ Z ` ( ..q. .~  .e Z d.z.V.B.N.V.V.N.z.7.} H g y.v.:.} } ~ P D S V E 8 d E F x b b k x V 0 ",
"r l.~ U } ( ^ Y U ~ K A B G 9 K e.~ U A D D { ^ Y D D 5 A A G A I J Y D G D G A i i 9.J P P I / / P P D E 3 d F b N V b k h k 6 ",
"5 o.^ U I ( Y T D U ( ^ K W 9 K e.o.U A ~ K Y ( { I D % Z Z Q ~ ( ~ { ( ~ ^ I ~ u r | J / / Y / ..~ Q Q H = y D H v N v V V x : ",
"7 +.| K D I I I ^ ( ^ ~ J G 9 A ( I L I I U ( P D D A = A D E P ( ~ ( ( ~ ~ J J y w ' ( Q P Y  ./ ~ P H F w j Z H V H V S N g # ",
"5 K ^ ^ I D D Y Y ( ~ K G Z 8 G U I I ^ K K J D G J g 1 J F ) ! ~ Y ^ ~ ~ ~ J E y e ^ D L L L P S P D D V 8 u F H b V N V x k # ",
"- ~ } } } ^ D U ~ ( ^ R Z F 9 R | ~ { ( ^ K J P H C q 0 Q C E E ~ P ` ` ) ! Q Q e x 1.Q ! P Q P Q D S Z J y z F V V R V H B x = ",
"# d x z d k g y j j u z z y - B c j u p c B z j h h 0 : V h V V z V V x h b g N * 8 h u g g g g e e w w w : 3 w 0 6 0 t 8 t 8   ",
"$ , y t u u d 2 + 4 $ 5 t t 3 t t u u y @ + = 3 0 q 4 * 0 > > 3 > O # q q u q q t h g d y 0 > # c Z Z D J J J ! C C 0 O e t 0 5 ",
"=.&.p.x.p.` _ j 5 ' 5.y.*.*.&._ 8.;.;.=.8 j _ $.!  .<. .! R Q H H d * b H C H C C H x F Q R h d 8.O.^ T / { } } !  .N 4 N.N.A.A.",
"~ ( J ^ ~ W W 9 i 8.| { E J ^ } G Z G ) 8 D :.I Q Q Q Q D Q J H H ! # 5 x k z x d c B V z z 0 k ~ G I Y X.X.( P J Z d e ! ~ ' Z ",
"~ O.~ J | ( W < l 9.{ | O.{ ( D ^ ^ W K 4 D } (  .Y ` ~ D I J D Z ` 5 w b b V b n n A Z V C 8 c 5.P I I Y T Y L F Q t t ~ Q D / ",
"K U { n ^ K K % A p.+.+.o.o.| T ( { ~ K 2 ~ ( } ( /  .X.L L L D H H t w m b D v n n S D Z V 5 b { D L U L L D A S Z 6 u H Z D L ",
"m D K D b A k < K | ( ( { T T o.9.^ | K % J } { o.T  .U L U D A Z P j 6 b v k v m n n A Z k 5 n } m n L l m A D b Z 5 u S S b m "
};
