/* XPM */
static char *f568f36fdd224b1fb538b2a7a45a63cdlPAGGglCttKP1xvz[] = {
/* columns rows colors chars-per-pixel */
"64 64 256 2 ",
"   c #1B0600",
".  c #270901",
"X  c #350C02",
"o  c #291406",
"O  c #3B1301",
"+  c #361807",
"@  c #371C14",
"#  c #2D1813",
"$  c #3A230B",
"%  c #3A2516",
"&  c #3D2E25",
"*  c #481A06",
"=  c #541E0A",
"-  c #4A150A",
";  c #48260A",
":  c #56260A",
">  c #4B2C1C",
",  c #462816",
"<  c #552918",
"1  c #4B341A",
"2  c #58381A",
"3  c #52340D",
"4  c #643919",
"5  c #773716",
"6  c #6B2B10",
"7  c #472B24",
"8  c #572D24",
"9  c #4B3627",
"0  c #543423",
"q  c #573927",
"w  c #553B34",
"e  c #4E3632",
"r  c #673A28",
"t  c #753C26",
"y  c #6D3A32",
"u  c #6B441B",
"i  c #5A4429",
"p  c #5D4334",
"a  c #594839",
"s  c #584C35",
"d  c #674629",
"f  c #784929",
"g  c #78522A",
"h  c #674837",
"j  c #764938",
"k  c #695339",
"l  c #775638",
"z  c #69562D",
"x  c #77663C",
"c  c #684D44",
"v  c #695446",
"b  c #7C5D4A",
"n  c #765946",
"m  c #785D53",
"M  c #764D43",
"N  c #796649",
"B  c #7C6757",
"V  c #7C6E64",
"C  c #5D4B41",
"Z  c #873811",
"A  c #89461B",
"S  c #865939",
"D  c #91512F",
"F  c #AF5831",
"G  c #88633B",
"H  c #95673D",
"J  c #BB663A",
"K  c #A86739",
"L  c #CC6B3B",
"P  c #C66937",
"I  c #CF6D38",
"U  c #C45F31",
"Y  c #865A47",
"T  c #975C4A",
"R  c #835D54",
"E  c #935347",
"W  c #A45C49",
"Q  c #8A664A",
"!  c #976B48",
"~  c #88714A",
"^  c #9C724B",
"/  c #97764B",
"(  c #886958",
")  c #956A54",
"_  c #8A7758",
"`  c #997757",
"'  c #A76A45",
"]  c #B76A46",
"[  c #A4744C",
"{  c #AB744C",
"}  c #A67648",
"|  c #B9764B",
" . c #A37553",
".. c #A57A53",
"X. c #AB7B53",
"o. c #A87A5A",
"O. c #B77857",
"+. c #AF6D5B",
"@. c #876C64",
"#. c #966D67",
"$. c #8A7666",
"%. c #967867",
"&. c #957C75",
"*. c #8B7C76",
"=. c #A77868",
"-. c #AC7A6F",
";. c #CA7548",
":. c #D47649",
">. c #C87953",
",. c #C86F48",
"<. c #C17D72",
"1. c #9B8359",
"2. c #A9835A",
"3. c #B6875B",
"4. c #B9945B",
"5. c #998769",
"6. c #9B8776",
"7. c #8C8670",
"8. c #AC8464",
"9. c #A7866A",
"0. c #B68967",
"q. c #B8946B",
"w. c #A48B7D",
"e. c #A68A78",
"r. c #B88A7A",
"t. c #A99579",
"y. c #BA9577",
"u. c #AE9667",
"i. c #AEA57A",
"p. c #B2A57B",
"a. c #B4AA7C",
"s. c #B9A87B",
"d. c #CB845B",
"f. c #D78456",
"g. c #C48B7C",
"h. c #C6987A",
"j. c #D69577",
"k. c #CC8E69",
"l. c #C7A47B",
"z. c #D9B77A",
"x. c #E7AA78",
"c. c #EAC17F",
"v. c #9B8984",
"b. c #9E9886",
"n. c #A58C83",
"m. c #AB8D83",
"M. c #AC8E89",
"N. c #A38786",
"B. c #B38D87",
"V. c #AC9384",
"C. c #AC928B",
"Z. c #A99586",
"A. c #B3948C",
"S. c #B39A8C",
"D. c #B69886",
"F. c #B69B94",
"G. c #AD9491",
"H. c #ADA383",
"J. c #B5AA84",
"K. c #BAAC85",
"L. c #BCAC8B",
"P. c #B8A589",
"I. c #BBB185",
"U. c #BDB28B",
"Y. c #B7B386",
"T. c #BBA597",
"R. c #BDB392",
"E. c #AFA198",
"W. c #BEA6A0",
"Q. c #C98D83",
"!. c #CB9384",
"~. c #CD958A",
"^. c #C89888",
"/. c #D29485",
"(. c #D3958A",
"). c #D39A8C",
"_. c #D9998B",
"`. c #C99992",
"'. c #D29D92",
"]. c #DA9A92",
"[. c #C5AB8A",
"{. c #D6A88B",
"}. c #C3B38C",
"|. c #C4B78B",
" X c #C5A796",
".X c #D4A394",
"XX c #DCA59B",
"oX c #DBAA9B",
"OX c #D7A698",
"+X c #C4B493",
"@X c #C5BA94",
"#X c #CBBB95",
"$X c #CAB79A",
"%X c #D6B898",
"&X c #D6B286",
"*X c #E7B294",
"=X c #C9ADA6",
"-X c #DBABA3",
";X c #C8B7A6",
":X c #D9B9A7",
">X c #D0BBB3",
",X c #E5B9A7",
"<X c #F1BBB0",
"1X c #D9C29C",
"2X c #CDC29C",
"3X c #EBC98A",
"4X c #F4CC8B",
"5X c #FBCD8C",
"6X c #F5CB86",
"7X c #FBD28C",
"8X c #F8D18A",
"9X c #EACA95",
"0X c #F6CD93",
"qX c #FBCE92",
"wX c #F7CC9B",
"eX c #FCD394",
"rX c #FCD49C",
"tX c #F6D599",
"yX c #EDD192",
"uX c #D6C7A7",
"iX c #DBC6B6",
"pX c #CDC1A8",
"aX c #EDCBAD",
"sX c #E8C6AB",
"dX c #F1CCAD",
"fX c #FCD5A3",
"gX c #FDDBA4",
"hX c #FCDCAB",
"jX c #F5D6A8",
"kX c #ECCCB3",
"lX c #E7C9B6",
"zX c #F2CDB3",
"xX c #F6CBBB",
"cX c #EAD4BA",
"vX c #F3D1B5",
"bX c #F4D3BC",
"nX c #FBD9BA",
"mX c #EED4A7",
"MX c #FEE2AA",
"NX c #FEE6B7",
"BX c #FFF2BF",
"VX c #E9CDC4",
"CX c #EBD9C5",
"ZX c #F9DAC5",
"AX c #F3DBD2",
"SX c #FEE2CB",
"DX c #F9E3C8",
"FX c #FEE4D2",
"GX c #FDEBD4",
"HX c #F8E7D7",
"JX c #FEF2DB",
"KX c #FBEFC6",
"LX c #FCEDE3",
"PX c #FEF5E6",
"IX c #FFF3F1",
"UX c #DFD2C2",
/* pixels */
"w v.m v v c v B @.B y > 8.y.K.t.1./ / G z ` 9.> * ` =.%.B.#.d =.! g S Q ) $ i Z.5.5.t.5.i.5.t.t.7.o g O.F J | G d e.b.*.V W.b.& ",
"@.=XF.F.W.C.E.Z.F.W.F.D.hXMXjXNXfXgXgXhXNXmXKXy.Y :X'.,XOX.Xj 8.0.k.h.e.e., e.pXL.uX2X|.|.2X2X2XR.% [ j.;.:.k.K l.JXHXLXIXLXIXb.",
"n m.N.w.m.n.m.m.v.M.=.y.7X3X7X8XqX5XeX8XtX0XmXq.) .XQ.OX-XQ.E T { { O...1.1 _ U.a.i.i.i.i.a.i.i.P.3 W ,.,.U ;.K G DXCXiXCXCXHX7.",
"B V.w.B.M.B.N.M.G.B.-.u.tX3X6X8X5XqX4X5X4X4XrX0.=.'.`.`.'.XXg.r +.{  .^ 9.3 _ 2XU.K.@X@XY.|.@XR. X; ' ,.J J ] | S 9.JXCXFXDXJX7.",
"v G.$.n.C.m.n.&.N.A._ 5.NXtXMXgXqXwXgXhXfXhXNXh.Y oXr.~.'.g.~.t [ ! ^ ` ~ $ 2 %.$.%.( $.B ( _ B v . r T A 6 t ) h h =X=XT.>X=X9 ",
"% % @ , > > , @ , > X O 1.4.8.u.1.G ^ G S g 2.4 X f r - < - = O ; * 2 2 4 O X + . O 9 w w 0 7 q a q - t t 8 t t y w c e 7 e w o ",
"o l ) u 4 A H D ^ 0.0.3.2 O 5.` 5._ _ _ + l S j S t f S D g S Q ! S = O.] ] { d.! Y ZXxXxX:XoX:X:X,XoXXX].,XxXdX'.oX-X-X<XZXlXc ",
"j *X{.j.*Xx.d.| d.wXx.k.3.u $X$XY.2X2X$X2 ~ 8.o.+.3.3.d.0.0.0.y.-.o.5 | >.,.,.| ] 6 {.,X[.g.'.XX.X,X].!.(.Q.XX<X).~.(.].,X.XOXR ",
"D O.J P L U P P L L U ,.K f [.[.U.U.}.[.; l 8. .{ { { { { } 2.^ o.[ 6 >.:.;.:.L d.f  .oX<X-X~.~._.Q._._.(._.].<X,XXXh.).!.^..Xd ",
"F >.L I I I I P I I I P >.6 ` _ ~ _ _ _ O ; Q Q Q ' ! G ! G l Q Q f * f A A D A S : r .XQ.'.'.~.Q.]./.(./.]._./././.^.).).!.'.Y ",
"Z ;.P I I I I :.P I I ,.| * B H.5.t.Z.$.a Z.R.n.&.:X+Xi 2 _ _ ~ _ 1.g ~ 2.! G ) ) Y * ^._./._.j.(._._.].(.~.(.(._.h.(./.(.~..XY ",
"Z >.P I I I L P :.P I ,.O.* #XJXAXAXJX;XE.PXHXJXLXGXPX6.6.iX@X@XuX2X2X#X#X|.pXuX;X>X8 M XX/._._._.g.(.(.~.(.).(.(._._./._.(.].j ",
"Z ,.L L U P I U I I P :.W = -XsXaXzXkX-XB cXcXcXCXcXDX7.5.Y.a.p.i.i.a.a.i.a.J.i.L.[.b . -._././._.(.).).`.`.Q.]./._.Q./.].~.'.M ",
"Z >.| F ,.:.K F :.:.,.d.W - -XZX,XaXkXZXR.7.PXCXGXGXJXN B 2X|.@X@X|.@XR.U.@XR.@XL.;XS.+ j XX].]./..XQ.).'.XX^.~.].].]./.Q.(.-XM ",
"= y 2 = : S y 6 D D D S 2 X b %.Q d ( w.$.e v.v.V b.7.+ # k c a k s c v i a C C a V a   * =.r.<.g.g.+.T W +.+.E W =.B.=.E +.-.< ",
". 9 p q w 8 < Y y < 2 d > . , d d d 2 0 , #     & o   i m 9 a a C c a v v C C C 9 v C v m ( R 8 - - j r < - 6 = < - 8 8 8 8 - X ",
"w HXHXGXPXUX6.JXZXZXGXSX$X2 hXNXBXBXhXhXjXdXsX1XNXnX& Z.pXAXiX=XT.F.F.AX>X=XT.F.=X>XW.F.>XVXiX@ 8 .XZXxX,XsX,X,X:XsXlXsXZXlX>Xk ",
"V HXCXHXCXAXn.C.CXcXlXZXOXQ tX3XyXtX4XeXeXrXgXtXyXNXx B F.C.V.B.v.F.W.>XC.6.w.m.F.F.N.m.=X=X*.  t.ZXkXvXbXvXcXZXbXvXbXkXlXlXFXb ",
"*.PXAXSXLXLXHX@.SXlXFXSX`.) hX4X8XeX5X5X5XqXeXeX4XMXR m C.w.t.e.V.T.T. XZ.V.t.t.n.w.M.$XA.B.e @.sXvXsXzXaXaXdXdXaXaXdXvXvXxXZXn ",
"+ @.e.l ( ( b q Q S R ) q S MXeX7X7X5X7XqX5X5X5X6XhXh #.F.M.A.e.w.w.w.w.w.w.w.t.B.m.m.w.B.6.. T.bXaXvXsXsXvXvXaXjXaX%XmXvXkXsXd ",
"q k l u 2 < r 2 u u 2 d r G gX0X7X7X5XqXqXqX5X5X3XMXl @.F.N.n.V.m.m.M.m.V.n.w.V.m.M.m.m.A.w   & h p c v k n ( ( h n N k v b p . ",
"Y 0.q.q.h.y.0.q.2.2.2.0.! S rX4X8X5X5X6XqXqX4X5X4XfXn R F.C.n.n.w.V.C.N.C.n.w.m.N.M.B.N.C.B c &   Z.E.T.T.V.P.P.D.D.L.P.S.S.E.m ",
"Y { ..^ [ ^ ^ ^ ^ ..^ o.f f fXqX6X7X7Xc.eXrXqX4X0XgXl @.A.G.v.C.V.C.V.N.Z.Z.V.m.M.M.M.M.n.F.n.# s 2XJ.R.+XK.}.|.[.a.|.[.U.U.@X5.",
"f ` ^ ^ ^ ^  .` [ [ ` ..4 : &XfXyXyX3Xl.&X*Xh.4.z.3X* h e.@.B n.n.%.@.@.&.6.%.$.&.N.M.N.v.n.m . 5.Y.Y.H.J.J.t.p.|.|.K.a.s.J.Y.N ",
"+ 0 2 1 ; 2 i 2 1 2 q 2 + + + i l _ v 0 q h h ; 3 z 3 3 i i % & + % % % % # o % e 7 @ w C e & # C B i $ h N k d 2 ; ; i i z 1 o ",
"h $XL.$XL.P.+X[.P.+X$XH.+X;X6.$ lXlXSXVXVXVXLX) l.MXMXmX9XcXn   B 7.n.Z.$.v V v.a . $.iXUXVXVXHXHXHXlX1 %.r.t.8...~ ) ` 8.t.8.h ",
"N +XP.#XK.K.[.K.[.K.L.L.L.P.L.N aXvXxXbXZXnXy.o.9XgXmXyXyXMXu.h uX+XL.uXuX2XuXuXN s GXcXcXcXAXZXcXCXGX) ` 9. .8.0.h.&Xz.0. .8.l ",
"B $XK.[.}.}.L.+X}.}.L.|.L.$XH.i zXZXnXbXbXbXn zXhXhXMXjXtXMX^.k #Xs.J.U.J.i.Y.U.N k DXlXlXkXvXFXkXvXbX; 2 8. .0.3.3.k.0.8...X.4 ",
"i 7.%.5.5.5._ %.5.e.5.5.` 6.b . n ) #.R m @., m b Y M j ..` > p }.a.J.J.Y.Y.a.@XN N bXsXkXvXaXZXDXlXkX[.Y ! ..^ } ! } [ [  ...g ",
"+ b %._ l k n ( ( n Q ` 9.e.&.#.R , X @.M c v h h c c C ( ( a k |.a.Y.J.J.Y.s.@Xn ` DXvXvXsXxXZXDXbXkXSX0.O `  .[ } { { [ [ X.Q ",
"h ,X-XOXoX%X-XOXOXOX{.{.oXoXoXOXXXr.w =XB.S.S.P. X=X=X=XuX Xn.n K.a.Y.K.K.J.a.}.N t.bXvXaXaXxXaXvXkXkXzX,X: H X.{ } } { { [ { 5 ",
"j ~.D.^.!.).h.(.~.).!.h.j.!.~.~.'.-.X -.A.w.w.V.C.N.M.G.6.m.6.v |.I.i.J.Y.J.}.$Xl ` ZXdXaX:XsXbXvXsXzXvXxX4 S X.[ [ [ { [ ^ ..: ",
"r XX.X).g.g.OX.X].-.g.OXXX].].-XXXM . @.V.w.N.M.N.N.N.*.N.N.( 1 P.5.7.U.H.$.7.7.1 h sXxXZX,X,XxXkXsXoXkXsX< l ` l l !  . .f G 3 ",
"X q q , * - r j y - < j j y M j q X . # % @ @ + @ X @ + @ + + X ; 3 ; 1 $   o % o $ ; ( r.d ; ; h j d n 0 X + $ O ; , * ; d 1   ",
"% 6.t.t.J.9.D.t.w.S.P.9 h D.D.V.=X9.c $.Q h l Q Y 6 O.O.D W H D K K [ ! 2 / 2X|.1Xl.q.s.q.1.} y.D., e.lX X>XiXZ.$.uXiX XE.UX>Xs ",
"s ;XR.@X#X@X+X+X$X$X@X_ $XDXDXGXFX,XM 9.r.q.[.0.X.D d.>.>.>.:.,.;.L d.| 3.tXrXgXrXgXtXtXMXMXrXMXSX9..XSXZXcXFXT.Z.PXFXLXIXHXIXv.",
"s R.H.a.i.a.p.s.J.J.K._ @XcXuXbXCXxXr.S ^ / ^ } { D J J P U ,.L P L P ] K x.eX5X6X4X6X6X6Xc.0X9XjX` %XnXdXzXlX:X_ cXZXiXCXCXAXV ",
"i J.U.U.|.2X|.K.+XL.U.1.mXnXjXnXbXbXzX4 2.2.[ 2.[ 5 d.| >.>.] >.,.,.;.| D 6XgXfXrXqXeXrXrXgXgXjXNX1.l.nX*X<XlXFXF.$.JXCXJXJXJXv ",
"o p N i s l z h k N k $ n h.) ` 8.` ) 3 u 2 r j r X : : = r 6 6 = : 4 4 - n y.^.h.^...` 8.` R ` t.2 k _ n h @.&.m 9 $.$.B 5.v # ",
"@ L.%Xt.y.[.+X[.#X%X|.&X[.s.^.oX{.l.[.1X#XuX` . k r.` Q R E #.) =. .b - . ( A.`.D.%.( ( n q h &.v   $ q < * + - , $ ; $ $ , 1 # ",
"l DXNXKXNXMXtXmXNXNXMXMXtXMXNXhXMXfXjXMXNXJXz h FXZXSXnXNXZXZXZXZXFXFXc , T.F.>XVXF.D.T.iXiXW.>XiX7 ! r.j.h.0.k.0.0.u.2.2.8.r.< ",
"2 tX9XyXyXtXtXtXMXtXyX8XyXyXeX5X0X0X0XtXNX1Xq P.VXcXzXaXdXdXdXzXkXlXZXw > F.m.6.A.w.t.e.6.n.b.6.A.j S  .o.{  .[ } } K K ^  .Y - ",
"u tXeX8X7X7XeXeX7X7X6X8X7X7X5X5XeXeX7XfXnX9.d ZXcXsX,XaXdXjXzXsXkXbXVX> w F.m.C.w.e.t.m.e.r.B.B.A.r Y o.o. .o.2.2.1.2.2.=.0.R O ",
"g rXeX5X7X6X8X7X7X7X7X7X7X7X6X5X6X5X5X0XhXg $ N n b B ` ` Q Q N N ) v . p V.n.n.V.B.m.w.B.B.w.m.A.0 X q 4 : ; , 1 2 3 3 2 > + . ",
"u fXqX4X7X7XeX7X5X5X7X6X8X7X5X7X8X7X8XMX&Xz 1XL.2XU.L.+XP.K.#X@Xp.}.R.p 7 S.C.n.m.n.w.n.m.B.m.M.G.7 m T.7.B &.6.$.w w.9.5.6.n.9 ",
"u wXwX0X7X7X5X5XqX5X4X7X7X7XqX7X8X8X6X0Xl ~ |.Y.U.J.J.R.K.Y.U.J.U.H.@XB % v.M.n.C.n.w.A.w.m.n.C.G.c HXJXPXPXLXIXAX&.FXZXZXSXLXm ",
"u gX0X4X5X5X5XqX5X5X5X7X7X6X7X5X7X6XtX&X; t.L.[.J.a.U.J.K.s.K.L.Y.J.R.k o w.V.M.n.m.$.6.V.V.6.M.v.s iXDXCXcXcXAXZ.w.dXdXdX:XZX@.",
"4 fXqX3X5XrXrX5X6XqXeXrX9X3XgXrXrXrXNX1.2 $XL.i.R.U.P.D.R.L.L.R.D.U.R.s o *.F.M.A.m.c &.Z.B a &.v.# T.JXCXiXHX;Xm SXdX&X{.sXZXj ",
"O Q X.X.H ' G H } 2.Q Q 1.2.` ` 9.=.9.0   e a @ % % % % 7 9 % 7 7 e & .   # 7 7 7 , o # # . . # #   o w 9 % w % @ r 2 O - > > + ",
"< ! | | ' D ' | K 2.r m.%X X+XP.$XsXN o &.6.*.B B $.@.*.B @.6.F.G.N.&.&.7 m @.-.-.#.%.@.R #.#.#.#.m.B.n . 8 h S j t t f f M ( - ",
"5 k.J f.f.:.;.>.f.| r dXnXnXnXnXZXZX Xb =XS.E.G.W.T.G.C.A.S.A.F.F.B.F.D.@.`.-XXXXXXX'..X'.-XXXXX'.OXXXr.- k.k.d.d.;.f.f.>.d.k.5 ",
"6 { L I P U F P J H ! sXzXsXzXzXsXbX$Xc w.6.Z.n.v.v.n.6.V.m.w.V.m.w.e.A.R m.`.Q.Q.].~.(.).~.~.Q.'.~.{.-.- ' ] ,.I I U P ,.J ,.6 ",
"* O.;.>.;.F ,.>.F t ZXZXxXlX,X:XxXHXF.p W.G.C.n.G.G.F.C.N.M.C.G.C.C.n.S.C w.=X-X-XB.`.-X^. X`.-XB.`.-X=.- +.>.>.P :.:.;.;.;.>.6 ",
"X * 5 5 6 6 5 5 - 6 -.9.#.M y n ( ( 8 X m m v e C v B m 7 c V @.@.*.V v   @ c h C y w C p v k h w c c q . = A 5 Z Z Z A 5 6 t * ",
"+ d ! T S 4 : 4 D =.^ ` X 8 B.-.#.E ( -.#.w   . 9 % $ $ 0 h z 1   o *.E.E.E.W.T.a T.=XC.6.w.D.T.C # $.B ( _ ` Q ! o.^ ! ) _ ) $ ",
"; y.y.0.r.OXh.q.0.X.2.!.M <X<XxX,XZX,XXX-X-Xn , :XiXR.L.cX@X+X$XB a IXHXPXPXPXJXV >XHXHXGXJXZXFX( 6.iXR.;XuXuX#X#X#X2X2XuX$X2Xi ",
"; ) ' 0.{.{.h.0.0.3.^ 1.: B.).~.^..X!.~.~..X%.1 }.J.2Xs.2Xa.a.@X6.N JXCXCXHXCXCXDXN $XcXkXsXsXnX1._ L.s.a.i.i.i.i.a.a.Y.i.J.R.i ",
"O  .[ { X.2.X.X.2.} 2.G O  .oXg.<XXX(.(.~..X%.2 +XI.a.a.a.a.a.|.7.k CXGXcXcXCXCXGX%.t.ZX:XzXvXzXz N #XU.a.2XI.|.|.U.Y.|.Y.R.R.s ",
"2 o.{ ' ' ' ' { {  .^ d D.oX^..X<X(.Q.].~.'.=.q +XJ.a.a.a.a.Y.Y.5.  i n , , 9 > 0 O > < < 8 2 1 + 1 ~ N N x x x x u z x N N v o ",
"2 ` } { X.{ ' { { =.; 8 OX!.!.XX]./.].].].`.e.i J.J.a.2Xa.a.a.R.V z $.%.R ( Q Q Y Y Y Q ) l + P.+X#X#X1X#Xl.s.y.p.u.u.1.u.+XJ.k ",
"+ ~ X.} ' } { { ' o., -.'.(._.!./././.<._.).^.i P.J.J.K.a.a.a.U.` l 8.0.k.0.3.3.3.2.2.X.2.4 _ NXjXhXfXfXfXfXfXfXMXrXMXMXhXjXhX&X",
"o Q [ } { { } } O.=.- #..X_.g._._.XX+./._.XX%.1 R.R.J.L.|.K.i.@X1.z o. .o.[  .[ [ ^ ..^ u.3 G jX9X0XwX0X0XqX6XqX5X4X3XyXwX0XrXh.",
". j g S ^ Q d z S G - M Q.T T -.-.+.E Q.Q.-.w o B _ N $.U.7.N Z.k 1 ) Q S S Q ! ! ! ! ) Q X h mXtXeXqXrXrXqX*X9XtXjXtX9X9XtXjXh.",
"8 h j S z l g 4 4 d 8 8 j t y D y y y E W t q 1 s 9 9 i k v v s 9 1 h d q i 2 2 2 d d d r < q Q 4.4.3.4.q.2.[ / 2./ H G G 1.2.g "
};
