/* XPM */
static char *a4575df2271d4b54d599c780af491a6bGMbqVDiaqUyRLHzb[] = {
/* columns rows colors chars-per-pixel */
"64 64 204 2 ",
"   c #8C4525",
".  c #8E482F",
"X  c #9C4826",
"o  c #9B462B",
"O  c #964C2E",
"+  c #9B4B2D",
"@  c #86512F",
"#  c #864F31",
"$  c #8E4B30",
"%  c #944D34",
"&  c #9D4D33",
"*  c #8C5630",
"=  c #935237",
"-  c #9B5335",
";  c #95553A",
":  c #9C543A",
">  c #955B3B",
",  c #9D5A3D",
"<  c #A24B2F",
"1  c #A24E34",
"2  c #A94E33",
"3  c #A45435",
"4  c #AB5336",
"5  c #A75935",
"6  c #AC5936",
"7  c #A4553B",
"8  c #AA543A",
"9  c #A45B3D",
"0  c #AB5B3D",
"q  c #B2553D",
"w  c #BB573F",
"e  c #B15B3D",
"r  c #BA5D3B",
"t  c #9F603F",
"y  c #A2603E",
"u  c #B4613F",
"i  c #BD613C",
"p  c #C1633F",
"a  c #995741",
"s  c #955C43",
"d  c #9D5C42",
"f  c #AC5440",
"g  c #A45C43",
"h  c #AB5C43",
"j  c #A45E49",
"k  c #AC5E4A",
"l  c #B25745",
"z  c #B25D43",
"x  c #BA5D43",
"c  c #B25F49",
"v  c #BD5E49",
"b  c #946144",
"n  c #9D6144",
"m  c #9E644A",
"M  c #9E684C",
"N  c #A46244",
"B  c #AC6245",
"V  c #AC6946",
"C  c #A4644A",
"Z  c #AC644B",
"A  c #A46A4C",
"S  c #AC6A4D",
"D  c #B36345",
"F  c #BA6345",
"G  c #B76846",
"H  c #BC6846",
"J  c #B3654B",
"K  c #BB654B",
"L  c #B46A4D",
"P  c #BB6A4D",
"I  c #B3724F",
"U  c #B9704F",
"Y  c #AB6551",
"T  c #A56D52",
"R  c #AD6C52",
"E  c #B46750",
"W  c #BD6751",
"Q  c #B46C52",
"!  c #BB6D53",
"~  c #B66E59",
"^  c #BC6E59",
"/  c #A47154",
"(  c #AD7255",
")  c #AE735A",
"_  c #A5785B",
"`  c #B47255",
"'  c #BC7255",
"]  c #B67957",
"[  c #BC7856",
"{  c #B4745A",
"}  c #BC745B",
"|  c #B47A5D",
" . c #BC7A5C",
".. c #BD7760",
"X. c #BD7C62",
"o. c #C46446",
"O. c #C36947",
"+. c #C2644B",
"@. c #C8664B",
"#. c #C26B4D",
"$. c #C86D4E",
"%. c #C26D53",
"&. c #CB6E53",
"*. c #C46E58",
"=. c #C37355",
"-. c #CA7455",
";. c #C47A55",
":. c #CB7957",
">. c #C3745B",
",. c #C8775C",
"<. c #CA755B",
"1. c #C3795A",
"2. c #C0785F",
"3. c #C67A5F",
"4. c #C37E5F",
"5. c #C77E5E",
"6. c #C47A5C",
"7. c #C9795E",
"8. c #CF785D",
"9. c #CB7A5D",
"0. c #D2765B",
"q. c #D17B5E",
"w. c #C37661",
"e. c #CC7761",
"r. c #C17960",
"t. c #C67A63",
"y. c #C67D61",
"u. c #C27B65",
"i. c #C37E66",
"p. c #C77F66",
"a. c #C47C63",
"s. c #C97961",
"d. c #C97E61",
"f. c #C97E61",
"g. c #CF7F64",
"h. c #CB7D63",
"j. c #C57F69",
"k. c #CC7F68",
"l. c #D27D63",
"z. c #DB7D64",
"x. c #D17F69",
"c. c #BD815F",
"v. c #B48365",
"b. c #BC8264",
"n. c #B68769",
"m. c #BE8469",
"M. c #BF886A",
"N. c #BC896C",
"B. c #C3815F",
"V. c #CD815F",
"C. c #D6845F",
"Z. c #C38167",
"A. c #C48167",
"S. c #C48265",
"D. c #CA8063",
"F. c #C98165",
"G. c #CE8366",
"H. c #CC8264",
"J. c #C7856A",
"K. c #C5846A",
"L. c #CE8269",
"P. c #CD846A",
"I. c #CC846A",
"U. c #C58A6C",
"Y. c #CC8A6D",
"T. c #D08065",
"R. c #D38365",
"E. c #DB8367",
"W. c #D48866",
"Q. c #D18468",
"!. c #D2876D",
"~. c #D4856B",
"^. c #DA846B",
"/. c #D28A6C",
"(. c #DA8A6D",
"). c #CC906E",
"_. c #C58770",
"`. c #CB8770",
"'. c #CB8770",
"]. c #C28C71",
"[. c #CD8C72",
"{. c #D18672",
"}. c #D88670",
"|. c #D38C72",
" X c #D98F74",
".X c #DC8C73",
"XX c #D58C79",
"oX c #C39175",
"OX c #CE9273",
"+X c #CE957D",
"@X c #D49274",
"#X c #DA9275",
"$X c #DA9876",
"%X c #D4947B",
"&X c #DA947A",
"*X c #DE957B",
"=X c #D1987B",
"-X c #DC9A7C",
";X c #E28F6F",
":X c #E28C73",
">X c #E09173",
",X c #E2947A",
"<X c #D29880",
"1X c #DA9E86",
/* pixels */
"S Z A n N.A / A C ....C ~ T M { C g C C Q j j j C ~ ) Y R Y R  .Z 7 J k >.f 7 k 9 ^ ' j B g Z i.R R { T | R A A g R R ' E E } t.",
"Z ~ { ( K.| X.b.{ X.u.u.'.X.X.X.Q } ! R N g ..{ d R E Y { R { L.L.w.%.P <.W >.-.W ^.l.=.5.t.G. .} K.U.A.X. ...X.K.&Xk.} ' w.~.~.",
"7 E E Z Z k E ~ E c k ~ ..k R j j ' Z Q g = ..E ..t...E ! h J J D 1.D 6 e e &.#.z H 6 H =.L H 0 B  X^ =.` ' 9.D.' =.L :.:.H K %.",
"c W c J ^ W ^ W f a f k k f k g g Q B J J k >.E ~ ! E J E J %.D z =.D F D G -.K 6 F z G $.H W B h ! ' 2.9 0  .' B h 3 D c q c e ",
"*.-.-.#.8.K #.K #.=.9.! W K W >.W ! K c e.} W ~ ! t.' ! } >.h.>.} 6.6.;.B.9.G.;.} 9.t.h.h.~.!.!.r.r.} |.L.` A.L ' Q.t.Q.l.=.,.9.",
"0 z K D *.4 z z 7 J ! g 7 : 7 K f h h 7 ^ J g V 9 E 9 O 9 9 B ;.` ] ] { ` N B N B N g g g Y } j.{ R R R A.R d R : } j N Z h ~ L.",
"S S Z J >.Z h g g Z T R Y j E } J W J L 3.L L ' ` 1.! D =.' =.(.@X@X@X[.i.S ! { Z } ~ R Z { K.K.{ ..X.X...n { K.b.-X .R C Z ! Q ",
"C ] L  .2.! E ..{ | { X.m.R ..} } ~.^ 2.} B ` ' L y ' =.6.H P P a. .R { Q R } } Q } Q J...R ) ..i...X.K.%X ...{ } ` N Z...} [.} ",
"- V 9 B 0 h 0 ! ' { R R N j h g h J % - - - J B D 0 3 h 0 7 e 0 g E C Z j g L g g g d } C ; a : B Z B Z - 9 Q - Z ,   B 0 5 - 9 ",
"[ D.J W -.W >.2.} r...Z.{ Z Q W J *.l W L K 9.T.9.T.U =.T.:.8.g.=.d.>.} t.s.L.r.' ..} K...} A.i.1.5.H >.[ =./.3.6.9.6.9.P L G =.",
"A R d N ~ k ~ Q Z { C Y a a { w.c W %.-.-.l z D H =.F D K D %.L k ! E J } 2.>.1.1.>.S Z Q S } ! Z G z 1.R.>.P 8 B ~.=.' G L Q.=.",
"d C Y Y } Y j j j ~ d d d C ....W W W K <.f z e 0 8.K 8 G D J W z W J W =.%.1.6.h.1.B 9 B Z ! V W h 7 c e.%.J h 8 ^ K & 7 h } K ",
"} X.i.K./.A. .} Q Q Q { ..{ X.Z.] 3.Q ! 9.=.l.g.%.x.l.l.(.l.l.-.>.q.-.-.-.-.E.C.:.:.:.R.:.:.E.-.=.w.>.t.L.w.L.t.k.L.I.d.t.} t.L.",
"d ` N S A , Z Z Z J k J ' ~ ` ] n ` 9 A B L ! P 8 D 1 7 P 7 & h z D 3 9 3 + K z u u 6 F 4 6 #.D h ~ k J h 7 w.! Z J k r.E k j Z ",
"Q X.R R C C { ! L ^ E ! 3. . .| { b.{ ] } 5.5.h.' >.W t.I.{ ` R } ..Q ! L L 2.' L P P ' #.K ! z J [ B E L L D.1.L L L [ B I Z B ",
"` .. .{ i.[.@X{.2.>.Z ! h.Q  .] ` ] ` { a.>.^ ' ' /.1.` ..{ K.[. .i...X.U.A.1.} 1.h.1.! *.K s.1.1.9.=.[ ' 6.;.1.3.D.=.[ L L Y.1.",
"Z B C N Q g g h h ! 9 g c h E Q d N Z h } f c h f ! Z : % d d Q S E N C S $ Z 9 g W f z 0 7 D 1 3 8 3 9 D e 6 5 4 u < 8 9 h i.Z ",
"t.P.1. .d.3.~.~.h.P.! ! >.>.G.d. ...' >.~.,.>.e.e.^.t.L.t.>.k.d.2.} } ' a.H.} } ' >.=.:.-.%.8.:.=.l.8.:.q.:.:.$.O.E.%.P %.} } Z ",
"c k.t.t.>.W *.W ^ } ' >.*.E Q Y E W ! ' L B K h 0 4 4 =.%.K Q B h :.=.' >.5.=.D z G H P P %.;.-.+.%.D z K #.q.$.$.*.0.E.W ^ } Z ",
"W >.J J ! J =.W ! } ' y.=.J Q Z ! G h h u G P D z z x H K ' Q h 7 1.P L L h =.3 o 3 e F F u 3 + z K z x P G =.8 0 7 3 J h & . d ",
";.V.H.H.L.=.l.T.h.G.;.G.h.=.5.L D ' P =.Q.' P -.=.9.8.=.=.! 1.5.} 1.6.6.6.6.E.=.%.@.K 0.0.-.0.C.T.E.s.h.G.3. Xh.9.} J H.A.X.b.K.",
"N , n C S , 9 9 O N 9 h z D [ 9 - 9 3 h L O O 9 9 L 9 h h 3 J ! B n N ] S Z G J z F q F z 4 K D h B h L ! B L g ! } ' S.Q ` ] N ",
"| | X.n.m.R  . ...m.{ ` E Q i.} } L S ..b.] ( S ] K...R ] ' X.{ T ) / | ` N Y J h } P L V V  .` D J B L { S Z g : ` ` Q S S A y ",
"1X=Xn.N.[.K.%X'._.m.} i.i.} X.Z.A.P.X.X.} X.K.U.n.X.b.U.[.} ' ..m.+X[.| i.{ i.t.} I.d.H.S.c.K. .y.G.5.3.G.A.Y./.P.r.1.H.y.;.D.1.",
"Q ~ a g Z : E : d d = Z g % C R g ' g g g Z Y j d T A C g : h c j { C $ = : c f 1 f k E J = C Z B G 0 - - - Z 9 7 h 8 P h + 3 D ",
"! .Xk.Z %.%.k.W E W t..X(.G.Q.G.d.~.W *.W L t.} ..K.Z.A.k.,.*.*.e.U.' Q w.^ =.*.v <.*.e.e.! s.} 6.9.P P P W =.P P >.v -.-.x F F ",
"0.:.;X:.-.F F $.;.:.$.-.$.O.C.-.&.-.K =.H.L ` L J >.>.8.:.&.:.=.t.t.>.h.,.G -.8.0.z.&.&.#.#.e.=.9.9.! 6.D.H.W.9.l.E.%.*.*.g.(.%.",
"#.G h G F X e 4 4 D 6 6 r 6 H 2 2 2 1 - L 9 - - h K K z 8 e K e D B - 3 G 6 4 c H @.4 2 < 8 v h y 9 - 0 V V L 8 z :.8 o 1 K J o ",
"6.Y.S.J.Y.V.Q.T.;.V.9.9.q.9.R.H.-.9.;.S.B. .U.6.Y././.Q.H.H.W.9.1.;.;.R.9.=.V.:.9.W.;.' L ;.b.Q  .B. .B.B.V.H.=.=.9.h.G.6.(.#X} ",
"S S.( { S S t.} ` ` Q 3.9.B Z V B [ y N N N  .R N S Z ` P B V K L =.L I ' L U [ L U U 1. .{ ] { {  .` ` ` I [ I ' ' ' 1.>.{ ( ] ",
"i.} S d = Z w.J L ` Z ` } : J y y [ - - N g R Y d Z C E L 7 0 h B L B B O O U U P J J ^ [ Z Z R R { A V N y G y D 9 9 Z g d C C ",
"..'.i.Y.L.=.}.x.P.|.!.h.(.G.#XY.H.Y.@X/.!.!.k.u.k.'.t.t.g.e.9.,.h.G.5./.G.9.H.H.h.x.g.w.t.>.k.} =.9.h.Q.Q.9.G.=.9.Q.s.g.1.i.i.C ",
", ; N ` ~ 1 8 8 z W z 0 4 4 H y , g B D *.D D y K l.z x +.q %.J Z Z Q 1.} Z g J L 3.J h E Q ' ' :.p r o.%.8 4 6 z K 4 q l H -.D ",
" .R C ` ^ <.x.R.G.=.h 0 +.e *.L V J J ^ 0.+.U U %.:.P #.+.K 8.[ h S ` L.A.! Y J ' W.Z Z L Z 1.P e i r O.:.K h L D *.2 q x x :.6 ",
"P.|.K.U.P.i.&X@XX.K.] @X~.x.l.l.,.R.8.l.z.8./.@XQ.' =.h.E.g.R.;.A.K.a.Z.S.X.K. . .K.J.y.S.H.Y.P.P.P.W./.|.[.[.X.!.!.T.l.C.W.R.;.",
"h E d , Z ; ] t @ > , C h & 7 - 8 #.l 8 4 7 S A L - , V B 3 y V B Q N d N A ) , ; y > A A N ` ` { ( n C d / ) ; d Z g ! B B B V ",
"} ~.A.U. .] K.K.v.( ] ] i.Z Q ` *.l.%.=.=.! b.c.] c.] ] [ S [ I ]  .] ]  .] J.S S Q N  . .A  .| Z.U.R ) ..b.K.{ } j.' U.` ` ` ` ",
"=.} 1.H.XX%X[.|.U.I.K.Z.A.| K.U.G.3.^ !.&X .c.b.b.OX .c.D.] B.c. . .` Q { L  .6.Y.D.Z.[.[.K.K.[.K.|.Z.OX].| Z...i.j.A.b.a.I.I.Z.",
"V 9 B h %.z c v J '  .d C a { R y - O V } 9 d d S ..N N 9 - B L S B 9 9 L N S Q C Q : d j 9 ! Z J S ` ] A ; , : B ' N C A n ] d ",
"[ 6.P ~.:Xz.}.x.x.}.~.L./.[.OXi.c.B.K.H.#XP.Y.L.i.*XH.G.h.G.D.} 3.>.>.' /.D. .` ' A.} ! ' w.k.} ' ..J.[ H.S.' ;.[ P.6.S. .S.W.>.",
"%.q.G P P D (.=.z #.c *.w.f ' ` [ W.;.} 1.r.}.=.t.>.*.x.~.W D z P !.' ' y.1.A.S.` S r.P.H.^ } ^ 2.P.A ` } >.~.~.l.:.V.C.V.U $.$.",
"q -.D D y - ' B 7 1 8 8 c h J ! ;.B., 9 Z B w.k h k h W ! 7 7 : 9 ' D D g B ' Z B B j Z J g J : j j % s ; g h.D B D y G B.G 6 u ",
"(.>XW.T././.@XD.~.G.R.h.~..X(.(.,X#XD.Y.@X[.|.k.a.[.I.I.[.K./.L.G.Y.X.D.D.} P.|.Q.y.1.a.6.`  .} } K.| K. .` @XX.J.S.).=X-X$XV.G.",
"L J K Z [ ] I I Q =.J B J J =.W ' P I ;.S.( S ! ` b.| ( { ..K.} S ` ` R ] ` ` S S  .H.] ` }  .L S S S X.K.R | R ( | A ( ( ] U.U.",
"j h k N S A A S Z %.f z Z N } Q E L 9 S ] N V N A ( A M T / ) R N 9 h B N N I t N S y S B 3 E L 0 3 y =.=.g Z C d ) m n R ` C Y ",
"d.|.L.|.Y.| U.J.t.z.>.x.Y.H.U.I.r.U.L.|.). .5.G.A.Y.K.U.oX].+X].' 3.t.|.@XY.@XJ.Y.@X .} >.9.(.8.;.C.E.E.R.%.{.|.X.<XX.X.A...|.i.",
"Z w.~ ~ Z s | S ^ *.J W L R R Q ! Q Z Z ' ' G K J J J { / T ..Y j 2.Z Z ' } a.Q } ' J >.1.W P P u :.O.e F l t.} Y R Q >.=.P >.#.",
"..w.^ E { ..A.! ! 2.W } ' S L S J j.' ` } J +.v %.! W } R m T T } 9.h P L W >.B 9 K 3 ' K 0 P P #.q.O.#.x h .XQ R S N K =.0 0 8 ",
"[.{.~..X}.~.x.(.R.T.9.D.G.1.D.h.T.#X/.-XY.3.e.e.l.~.~.!.U.X.=XX.=.z.g.Q.,XXXk.i.9.5.5.@X} L t.G.G./.C.R.(.l.:X.XP.-XZ.@X-XS.D.K.",
"C R Y ! J 7 q c L ' L J V V P L 9 0 ' I. .J k J E ~ ! ! Q Z  .C % h J E Q d g ' ! } Q } ' ! ! B V G U L J h h k g  .{ T A > T N ",
"v.n.m.m.b.` t.g.>.y.' ^ { } y. .` L ] Y.A.{ ~ ..{ } } } E } '.i.} } L ~ ..{ { { T } E ^ E Z ^ ..R ] ` 1...R C g C m.) T T ) K.b.",
"_ v.v.b.m.{ I.w.r.y.=.k.i.Z.L.U.Y.I.| K.A.u.'.t.K.b.Z.A.^ w.{.k.h.h.y.i.i.......i.i.>.~.{.>.u.k.A.A... .} K.X.J.m.+Xm.X.K.j.L.!.",
"; T ~ C T d Q C g h f E J E E Q V B - 9 k g ~ g g n S V L P *.%.%.D 0 L E B B Z J V h L L 3 g & 3 Z Z J Z Z S S C , N Q J h c W ",
"*.~.k.>.X.| H.} } t.w.e.s.w.w.} -.W ! ' 2.=.=.2.] [ [ =.:.-.>.-.:.$.#.=.:.! >.:.=.D.W. XG.=.w.>.=.T.P >.1.! G. .S L ` H.k.,.l.l.",
"+.&.+.K 1.L L B ' t.:.%.%.W >.#.%.&.1.6.g.! ^ >. .B.' [ >.1.1.8.O.$.$.-.=.;.3.5.6.;.' =.9.` U.[.h.6.=.=.9.;. .` a.S. .B.D.>.>.' ",
"l l 2 8 L 9 - h 9 V D 8 3 7 G x 2 x 0 J W 7 f a g I B L J J B L z F x F K h 9 V y L J L ` N T ) Q L P L L h Z L I S N N - 9 S 9 ",
"9.#.9.9.Q.5.Q.G.H.Q.=.%.[ >.h.9.l.w.! ..j.j.XXj.k.'.u.t.L. .M.U.5.Q.w.x.x.w.j.Z.| K.K.Z.K.m.N.]...[.u.j.L.u.k.k.H.P.i.P.|.U.P.a.",
"' ' ' >.' B ! L L ' ! } =.L P L W d.~ / m m ..~ k j ^ k.~ R v.T C ..E Z k ~ { R m T / ` ..) M b M Y { ..u...~ Z E ! w.d.} R R R ",
"L >.J E L Z r.Z A A B ! ' Z h h h { N A s m ~ j k k W e.E Z m @ > ` C C R C X.T C Z g h C d a s s b M M d n S Z Z B E J Z g d A ",
">.l.>.g.r...P.X.J.[.H.[.XXU.}.G.Q.Y.b.n.X.N._.x.k.~.e.0.x.d.c.K.K.[.Z.J.%X| ].X.] 3.^ :.g.t.K.K.m.N.| N.U.X.I.1.d.h.g.h.h.9.D.G.",
"f f l *.A , g Z C ..! ! Q J >.B B D V S ] y , B 7 D v v F z D S A A Y c J W A S y D D v x e L L , C = n S , V h e K K K K x H G ",
"v v c *.` S S L j r.W %.P P 1.D 3 K V I c.N N G h G K F F K P [ N C E E W >.5.B.[ :.O.@.o.x ! ! Z .. .| } C B D z P o.K H F %.K ",
"(.Q.t.P.M.c.J.1.9.R.0.z.R.l.l.9.l.E.1.Z.U.6.I.Y.)./.W.C.C.h.3.r.K.J.j.e.~.t.XXD./.~.:.z.z.z.~.2.'.XXj...K.J.|.Y.y.g.9.9.8.h.T.l.",
"L V y ] A * y J D e l o.o.6 5 u K D L ` S I ( ` I ` ` ' J P ! ! R { k k g ! ! A B P K @.q o 7 j k ~ j C C n  .n Q E ' ! W E W } "
};
