/* XPM */
static char *_199e18dc3424e2ba2f8bae3e3feca67y1dGJQKfqgW8xVpF[] = {
/* columns rows colors chars-per-pixel */
"64 64 256 2 ",
"   c #393836",
".  c #3C342A",
"X  c #3B3417",
"o  c #593619",
"O  c #4C3218",
"+  c #67361A",
"@  c #75381A",
"#  c #703213",
"$  c #49382A",
"%  c #583A2A",
"&  c #483A39",
"*  c #593A36",
"=  c #512D2C",
"-  c #6B2D28",
";  c #693727",
":  c #773828",
">  c #653A36",
",  c #743A36",
"<  c #722B28",
"1  c #59461D",
"2  c #78441C",
"3  c #6D4A1C",
"4  c #4C4728",
"5  c #584629",
"6  c #4B4639",
"7  c #584739",
"8  c #595437",
"9  c #55552F",
"0  c #674729",
"q  c #764826",
"w  c #675529",
"e  c #77572A",
"r  c #674939",
"t  c #764937",
"y  c #695439",
"u  c #78573A",
"i  c #716437",
"p  c #5F6132",
"a  c #483B43",
"s  c #563D45",
"d  c #713E42",
"f  c #3D4747",
"g  c #494946",
"h  c #544A44",
"j  c #594947",
"k  c #4B5248",
"l  c #595548",
"z  c #584A52",
"x  c #495759",
"c  c #595857",
"v  c #4A4C54",
"b  c #684A46",
"n  c #784A46",
"m  c #675649",
"M  c #765749",
"N  c #695856",
"B  c #785A56",
"V  c #664B52",
"C  c #566257",
"Z  c #796648",
"A  c #676458",
"S  c #796558",
"D  c #746F51",
"F  c #4B5A64",
"G  c #535C68",
"H  c #575E70",
"J  c #695F63",
"K  c #755863",
"L  c #4C6666",
"P  c #53646B",
"I  c #5B646D",
"U  c #57686A",
"Y  c #5B6573",
"T  c #5C6C74",
"R  c #5C6D7A",
"E  c #556874",
"W  c #5D7175",
"Q  c #5D727B",
"!  c #57737D",
"~  c #4F6672",
"^  c #676665",
"/  c #786867",
"(  c #777569",
")  c #626C75",
"_  c #636D7B",
"`  c #6A6D7C",
"'  c #63727C",
"]  c #6A7777",
"[  c #767978",
"{  c #6D716D",
"}  c #3A3F3E",
"|  c #863A2B",
" . c #89371F",
".. c #88472D",
"X. c #874736",
"o. c #95483A",
"O. c #88583A",
"+. c #9A5639",
"@. c #8E532A",
"#. c #A5543A",
"$. c #86693A",
"%. c #946C39",
"&. c #A16234",
"*. c #874A44",
"=. c #974C44",
"-. c #885849",
";. c #975848",
":. c #885A57",
">. c #985B56",
",. c #864E52",
"<. c #AB594E",
"1. c #876848",
"2. c #976649",
"3. c #88724C",
"4. c #977448",
"5. c #886958",
"6. c #976B58",
"7. c #867559",
"8. c #987858",
"9. c #A66547",
"0. c #A66759",
"q. c #B56558",
"w. c #A87657",
"e. c #B77858",
"r. c #B17448",
"t. c #866866",
"y. c #996C65",
"u. c #897669",
"i. c #957868",
"p. c #8A7873",
"a. c #947A76",
"s. c #926C73",
"d. c #AB6A65",
"f. c #B56B67",
"g. c #A97569",
"h. c #B87767",
"j. c #A77974",
"k. c #B77874",
"l. c #BE6D74",
"z. c #945B62",
"x. c #C57955",
"c. c #C4776B",
"v. c #C57A74",
"b. c #C76E65",
"n. c #77837C",
"m. c #728471",
"M. c #968956",
"N. c #A78B59",
"B. c #B6845B",
"V. c #AE9154",
"C. c #968668",
"Z. c #888878",
"A. c #9A867B",
"S. c #8F8E71",
"D. c #A68766",
"F. c #AA9768",
"G. c #B69667",
"H. c #A48878",
"J. c #BB8975",
"K. c #B69778",
"L. c #AF9071",
"P. c #BBA97B",
"I. c #B0A772",
"U. c #B4A15F",
"Y. c #CC875B",
"T. c #C68C73",
"R. c #C59475",
"E. c #D69776",
"W. c #CE906B",
"Q. c #C7A878",
"!. c #D1B073",
"~. c #E19973",
"^. c #5D7282",
"/. c #5A6F80",
"(. c #647382",
"). c #697684",
"_. c #6D7785",
"`. c #8D7D83",
"'. c #7A8687",
"]. c #798F8E",
"[. c #868886",
"{. c #978B85",
"}. c #87948A",
"|. c #979687",
" X c #838C93",
".X c #889694",
"XX c #989B99",
"oX c #A78B86",
"OX c #B48C86",
"+X c #A8958A",
"@X c #A69B97",
"#X c #B3948A",
"$X c #98A69A",
"%X c #8FA394",
"&X c #B8A784",
"*X c #A5A599",
"=X c #B5AB92",
"-X c #979CA3",
";X c #8C99A3",
":X c #99A6A7",
">X c #9AA9B5",
",X c #96ACAB",
"<X c #A7A8A7",
"1X c #AAB9AB",
"2X c #A9B7B5",
"3X c #B7BAB7",
"4X c #B2AFAD",
"5X c #A49EA8",
"6X c #C7AA84",
"7X c #C6B488",
"8X c #D0B391",
"9X c #E5B78E",
"0X c #CAB9B1",
"qX c #E1BFA3",
"wX c #B6C6BA",
"eX c #A9C7BB",
"rX c #DAC795",
"tX c #D5C78B",
"yX c #E6C697",
"uX c #EFCC92",
"iX c #CDC7B1",
"pX c #ECD9AA",
"aX c #F5D9A8",
"sX c #F6DAB6",
"dX c #ECD0AF",
"fX c #FEE4AC",
"gX c #F9E6A8",
"hX c #FDEBB4",
"jX c #FAE6B6",
"kX c #F2E6B3",
"lX c #FFE09C",
"zX c #B6BBC3",
"xX c #A4B8C1",
"cX c #BBC4C3",
"vX c #B7C8C7",
"bX c #B7C8CC",
"nX c #C3C8C9",
"mX c #DADAD8",
"MX c #CED2D1",
"NX c #FCD6C8",
"BX c #E7DDDB",
"VX c #EED1C8",
"CX c #DCE3DC",
"ZX c #E6E3D9",
"AX c #F3E9CE",
"SX c #D8DDE4",
"DX c #CEDCE5",
"FX c #E6DEE2",
"GX c #D9E2E8",
"HX c #D3E4F0",
"JX c #E7E7E7",
"KX c #F6E8E8",
"LX c #FAF3EA",
"PX c #F8F6F6",
"IX c #EDF1F3",
"UX c #D4BEC0",
/* pixels */
"o.o.o...V.V.M.% j r ; +.#.+.r S M w M.V.M.$.V.V.3.y S M r S Z y b S B , o.#.X.2.V.U.O.n :.n X.o.o. .B.V.M.l n.'.A M.F.N.X.=.=.X.",
"0.h.d.w.fXfXrXy S B u T.W.h.5.#XoX5.pXhXgXU.gXhXK.i.H.oXS oXoXu.u.oXOX-.f.c.9.R.fXhXD.i.#Xj.;.v.c.;.aXhXsXZ.cXcXZ.iXhXaX0.f.h.q.",
"t -.:.,.6X7XL.* j 7 o 1.w.;.n B 5.M K.7XF.$.Q.Q.8.M t./ j / t.B B t.t.r *.;.X.w.8X7X5.M 5.M t :.:.t K.&X+XA }.}.A F.Q.Q.-.-.;.*.",
"4.t = * % O > r % Z 1.1.; r b b r r 7 5 $.$.$.+ t > 7 N N N * n d > > , , < : q o % y r % t t ; = & 5 $ A c c g 8 9 5 0 t t ; : ",
"fXK.b t.N n c.b.2.yXlXlX8.H.H.5.6.K.H.3.fXfX9X+.e.h.S 1XwX<X>.l.l.=.q.h.b.=.b.b.>.y.OXD.O.T.W.w.b A N A 1XcX:X{ H.L.M i.oXj.;.c.",
"uX8.* K V b q.q...E.uX!.1.7.i.M u 8.3.u 9XuXE.o.<.0.m |.$X{.,.d.q.o.;.q.+.| <.q.X.-.i.6.O.e.e.+.> m l l $X$X[.N i.C.M p.p.5.t 0.",
"+ + > = & s * - ; q + e w w w y w w w e e 3 : - - > * j g g * > , < ; ; q e 0 3 e e 5 $ % % @ 2 0 7 6 g c 6 m y r $ & & & z z z ",
"2.g.g.n N J V B g.0.-.dXpX7XF.sXpXF.8XaXyX1.0.k.:.s.oXa.N Z.{.t.:.k.y.1.aXgX7XF.gXaXC.p.{.u.2.J.J.Z @X3X$XZ.pXsX+Xh / c ^ 4XzX;X",
">.g.g.b m N j B g.w.1.dXaXtXF.sXsXF.7XkXpX1.0.k.:.t.oXA.m {.{.t.:.k.0.2.pXpX7XF.gXpXC.p.{.u.2.T.J.5.@X3X$XZ.sXsX+Xj J c ^ 2X2X;X",
"- - > $ . $ = > ; ; o w w 5 5 0 w o w 0 0 o ; + o % % % % % & & * % % % 9 9 8 5 9 8 6 & 6 * + @ ; o 7 h g 6 r w 5 X & .   l g g ",
"a.B {.:XXXA y.0.*.6XyXrXm h l % M 6.5.0 w.B.%.B.uXuXw.>.q.>.S $X:X] }.$X}.^ XX:X{ n.:X.X( iXdXR.O.J.g.n 5.5.t D.rXyXi.t.a.t.g c ",
"oX/ <XcX2XA j.dXdXAXAXLXMXMXmXVXVXNXVXdXNX8Xw.Q.gXaXh.q.b.d.p.wXvX].:XeX2X'.zX3X.X:XMXJXMXAXAXsXNXNXNXdXNXNXNXsXhXhXD.y.OXH.V A ",
"j h N ^ c 6 b 0XLXZXZXmXKXKXJXKXFXKXKXKXBX/ 7 u 8.6.t ; , > j ^ ^ z c A l 7 Z m 8 k ( ZXKXBXBXZXZXZXKXKXKXBXBXAX8Xi 0 0 r j $ 6 ",
"N / S h S u.b p.mXmXGXmXmXZXmXmXFXmXmXJXzX& h 7 = t ;.-.n t./ z N / / 7 5.6.u 8.7X=XA 4XZXmXmXSXGXmXmXmXSXSXmXZX5.D.7XP.y S / S ",
"p.+X+XS H.#Xi.A.LXJXJXIXIXJXJXIXJXIXJXPXmXc ^ / n g.k.h.,.OX+Xu.p.+XoX1.E.E.r.!.gXgXC.0XPXJXIXJXJXJXIXIXIXIXJXLX8.yXfXhXi.H.+Xa.",
"r M M > n M r m mXmXGXGXJXmXGXCXCXCXCXJX<X& 6 * = , X.t * m M 5 7 M m r X.+.@.@.V.V.1 A.JXDXmXJXJXGXGXGXGXSXCXmXy %.N.N.1 y M r ",
"G.O., ,.t r ( n.GXvXnXzXwXcXcXcXcXzX3XmX@Xm 8 3.G.D.M S n.A Z F.F.i A [ u.> X...+ %.M.rXCXvXcXnXnX3XbXbXzXbXcXZXF.N.3 %.N.w.: X.",
"hXG.0.v.g.u.nXvXGX X) ) ] ) T ) I I U cX0XH.C.7XfXjX+X1XwX*XI.hXfXI.*XvX3Xt.k.c.2.yXhXAXwX) ] ) ) ] T I _ I [ ZXjXhXG.aXhXaX2.k.",
"Q.4.X.>.B N }..XGX X(.)._._ R R ' T P nX4XM y 3.P.&X{ { }.( 3.6X6X7.( .X`.j -.;.q D.&XiXcX' _.` ] ] W E (.Y [ ZX=X7X3.I.&XF.r :.",
"+ 2 ..- * & . v SX X' (.)._.(.R R ' P nXoX% 1.i w 4 k C 6 5 q + + 0 7 & c N y 0 $.1.4 *XnX' )._ ] ' W Q R ) '.mX7 O $ X 4 l m j ",
"x.Y.E.X.M / V p.IX XR ^.(.(.^./.! ).F nX8X8.fXfX&X*XwX1X5.T.E.e.<.c.d.t.3XwX|.&XhXhXC.iXnX_ (.).)._ R R ^.Y _.KXs.m / c A wXcX<X",
"2.w.w.t 7 N > B JX].' ).(.R /./.R Q G nX=X1.yXtXD.p.$X$Xu w.h.;.o.d.0.n @X$Xm.M.tXrXu.wXnX) (.).).(.R ! (.Y [ BXB > V c C :X$X[.",
"8 8 7 z j * ; t ZX].' ' ).(.^.R R R P nX+X% 0 w e u 7 6 0 5 7 m m j * & g 6 p w e 5 $ XXnX' (.(.(.^.Q W E P [ ZXt ; * & a 6 7 y ",
"eXn.-X4X<Xt.T.J.ZX].' ` )._ R ' R ' F cX0Xa.5.K.sXaXC.u.C.u.[ 2X3X[ z / h Z.kXkXK.5.a.3XMXU (.).(.^.T W W U ] ZXJ.R.B V ^ h H.sX",
"2Xn.,X2X*X5.J.J.ZX'.) ` _ _ T ' R R F cX3XZ.S K.pXjXC.u.A.u.[ 2X2X[ z K z Z.kXkXK.5.A.3XnXT R (.(.R T T T P ] ZXK.J.B V ^ l C.jX",
"v g k k 7 % ; t mX].) ' _.).T ) (._ x nX|.$ w 0 e q 0 ; 7 7 6 k k 6 6 & a g y y 8 4 $ +XnX) ).).(._ ' ' Y I _.BXr > j a & . 5 w ",
"S a.7.r >.0.,.a.IX).L ' P F U P H F g iX=X3.yXuXN.+.x.r.%.rXrXF.U.tXrX7..X,Xn.{ $X$X( mXnXG Y T R P G I Y F ` JXZ.[.<X-X^ u.u.S ",
"i.OXL.-.f.v.z.oXIXxX,X,X>X>X>X>X>X>XXXmX=XC.fXfXQ.w.W.Y.N.kXgX!.!.gXkXS.2XbX.X].vXwXZ.BXDX>X>X>X>X>X>X>X>X>X2XIX.X$XvX3X/ H.oXs.",
"% 7 7 % > t * V FXGXGXHXHXHXDXHXHXDXDXIX{.$ D 7.8 7 u 5 6 D Z w w Z D 7 c I x f C c 6 <XIXHXGXGXGXSXGXHXGXSXDXJXk 6 c l % 7 m 6 ",
"6X7.m ( S b t.t.BX[.I R E P Y P Y G x 3X4XB m . l h 6 Z..X{ D P.P.3.m / J c '..X^ g & XXnXT Y ) Y T I I P x ] CX=X=XD m 1.n m / ",
"hXK.u.oX{.S oX+XZXn.` _.Q T _ _ I ) x zXUXoXa.N / / N 3XnX*XI.hXhXK.i.+X[.'.vXbX XJ c <XMXU _._ T _ T Y Q G { ZXkXjXD.0.c.d.:.#X",
"N.$.r S z g N S ZX[.` ' W W _ _ ) P G nX@XV N & z s & [ [ A m F.N.e 0 Z l k n.[ ^ g & XXnXT ' ' ' Y ' ' I L [ ZXF.N.q q o.| , ,.",
": X.t 7 [ n.N V FX[._ ' W W W T T P x vX<X  j j & V B j g ] { l Z N.N.w m B j & & j . @XnXI ' ' Q T ' ) Y G _.JX1.$.V.V.2 ..=.| ",
"0.k.k.t.3XvX<Xp.JX[.' ' Q Q W T E T x cXmXc ^ / V a.+XA.[ cXcX|.7XhXhXM.A.#Xa.V / / j 0XnXT ).T ' R ) T Y H _.IX7XrXhXgX4.h.v.q.",
"*.>.,.m [. X[ N JX'.) ' ! ! ! R P E F nX3X. g z & N t.M 6 Z.|.S D.Q.P.Z S u.N & h h $ <XnXE ' ' Q R Q E E L ] JXA.H.7XQ.O.=.;.X.",
"d > > b z & j m CX'.) ' ! ! Q R R P F nX=XD / & & $ $ 7.D Z % 7 0 + 0 r 7 6 j m 7 S S =XnXQ (.R R R Q E ~ L ] ZX7 O O 0 X.: : ..",
"OX:.j.oX`.K oX+XJX'._ ' ! /.R R E E I 3XAXkXdXr / / Z pXgXyX2.k.v.=.j.OXA.B +XoX5.qXjXAX3XQ _._ _ R W L L L ] FXt.B t B.E.x.&.~.",
"g.M y.i.t.V s.a.JX'._ _ R Q R R E ~ F 3XkXrXP.% m b y 9XuX!.X.f.0.n t.a.t.M a.u.u Q.9XsXcXR _ _ _ Q Q P L L ] BXN r ; w.e.9.+.e.",
"; ; ; * h g 6 h GX'._ _ _ _ W E P Y P iX+Xo e w 7 o + @ @ | < - * h k 6 ; : o 0 3 e 1 |.MX_ Q (.R _ _ Y U L ] mX7 0 0 e + ; t ; ",
">.g.g.B <X2X|.( JX].' _ _ _ W U I I x wXVXD.aXjXK.1.e.q.=.f.l.:.{.2X,X/ 0.h.-.K.gXpXS.iXnX) ' R _ _ _ Y I L ] JXu.8XsXdX7.i.H.y.",
">.j.y.B <X2X{.( JX'.R ' ) ) W L E Y L wXdXC.aXaXL.-.h.d.*.d.f.:.{.1X2X/ 0.h.2.L.pXpXS.wXnXU ) Q _ ' I I Y G ).JXu.8XsXdX5.a.A.u.",
"d * 7 6 c v g j FX XR R ` ) T U E Y F vX*XO w e e ; 0 > * > ; ; 7 7 l * ; : > y y p 4 |.MX) ) ' _ ' I P Y H ).mXr t u y % * * * ",
":X] }.:X.XG p.{.FX'.Y ' _ ) T P P T F MX@X7 5 N.yXyXC.|.<X|.O.e.B.O.0.h.w.5.@X*X( &XrXpX3XI _ _ R R Y E E G ] ZXB.e.t 7 l b t 0.",
"bX].:XvX4X/ +X{.JX'.Y ' T ) T P E T F bX<XN y 6XfXjXS.$XvX<X3.W.W.9.x.E.L.u.3XnX{.0XjXAXiX) ` _ R T E ~ E L m.AXW.W.-.M A m -.h.",
"c h l N b * 7 m mX'.T R ' Q E P P P P bX|.X O 0 Z Z k x C k 5 t q @ : t 8 g c c h N m =XcXP ) ' T T E ~ I P ] mXM t ; = * $ o 0 ",
"H.=X&XM n >.t i.KX'.T (.(.Q E E T T F cXiXZ &X&Xu./ .X'.x A / y O.9.6.y Z.}.] k / / & @XnXT ' ) ' T E E T G [ ZX:.n >.-.:.8X&XF.",
"rXhXjXw.h.T.0.8XLX] G Y H H G G F P v 3XAXI.hXkX=X*XvXwX[ +X@Xy.h.E.E.6.3XwX*X( +XoXB nXbXF P U Y G F F G x ] ZXj.0.v.e.w.hXhXyX",
"4.G.N.e : *.; 5.KX<X5X5X-X<X-X-X:X:X-XmX8Xe N.F.S c ( A $ b M ; @ O.u 5 ^ n.C 6 M B * +XSX;X>X:X:X:X-X-X-XXX:XJXm > *.q q N.F.3.",
"..+ t M b V [ [ ZXLXKXLXLXLXPXPXPXIXPXLXR.@.q ; B m 4 M.N.4.$.N.N.i A ] W x ] { N r t #XPXPXIXIXIXLXPXPXPXLXPXSX[ [ b r Z 5 l ( ",
"v.;.j.+X{.[ bXbX@Xa.OXOXu.+X@XZ.XXcX3XA.R.E.J.5.oXoX7.kXhXuXQ.hXhXI.:XbX2X'.vXnXoXy.h.k.A.3XwX$XZ.+X@Xs.oXOXA.XXcXvXp.A.+XZ.[.vX",
">.n B / A c '..X^ N :.n % 5.u.V { .X'.z 5.6.Z r ( / l +X&XL.3.6X6X7.[ .X'.L }.[.B n >.-.b {.[.^ h t.t.s B 5.b m [.[.l N S A U  X",
"> n b 6 A A C   a * = 6.8.1.% b j g U U N 7 m A k c ^ N $ t 0 + ; t 7 g P U c 6 t X.< , , b l ( 7.m V N M r 3.7.8 Z D 7.l C U x ",
"s.oX{.( 1XwX:Xg / K M sXaXaX;.k.k.:.<XvX2X'.wXwX}.XXbXzX:.f.h.9.<.h.g.B 3XvX|.8.~.W.o.0.v.0.G.hXfXF.$XvX*XH.hXgXP.tXgXgXZ.2XbX,X",
"/ p.( A %X%XZ.6 N b n qXuX!.o.q.0.n Z.$X.XW %X$X( [.>X;XB d.q.+.=.q.0.M XX:XZ.Z e.x.;.>.q.=.e.uXuXM.Z.<XoXi.rXrXM.U.tXtXm.:X:X].",
"v g g g g 6 8 w 0 - - + # #  .# 2 0 w 4 6 6 6 $ > * a v v 7 o @ @ # - > & g k 6 % - < < < < # # # + 5 = ; ; % 4 4 9 4 4 4 6     ",
"zX'.:X3XXXA.pXgXR.;.f.0.+.Y.Y.r.!.fXaX8.u.{.u.-.d.g.K <X2X*X1.T.T.2.6.H.p.{ 2X2XA.5.g.f.*.f.h.+.=.h.g.*.d.k.:.A.3X1X( u.A.p.z J ",
"2Xn.XX4XXXZ.kXaXK.-.g.6.O.B.W.&.E.aXsX7.p.oXs.:.f.d.S <X1X|.3.B.J.1.y.oXp.] 2X2Xp.5.g.0.*.d.e.;.;.g.g.*.f.d.t.a.3X2X/ i.H.i.b B ",
"h 7 h h c 6 y e q @ + + @ @ # @ 2 @.e % * j * - : ; % 7 8 8 o 3 0 5 * h g f x v h % ; ; + : # @ < : < < < , s s v c g 7 0 ; % ; ",
"9.e.e.M XX:Xp.-.x.x.o.<.q.#.@.e.e.@.$.i.i.M s.j.u 2.x.r.2.yXuXG.( $X$X] ;X,X Xg N b m rXyX~.o.q.q.o.<.q.>.n j.p.A Z.:XXXZ B.e.9.",
"e.T.T.6.2XbX*Xy.E.W.#.q.b.<.9.W.W.2.8.H.a.S #XH.5.w.E.Y.r.lXfX7X|.vX2X_.xXbX-Xc ^ ^ m dXfXuX<.c.c.=.q.c.g.B oXoX( *XcX4X4.W.W.r.",
"r r r 7 C U c j n t : : | | ; t q o 5 r 7 * r y o 0 @.2 3 4.3.u 7 A c v H ) x   f   . D 3.$.o t , , , , 7 & h j * b N m ; q e q ",
"|.^ n.}.'.U  XXXB n >.=.X.0.0.O.N.8X7XM S t.M t w.2.e Q.Q.F.0 B t.7 g z a G }..X) '.XXZ.i P.7XD.*.>.,.b {.XX( j t.:.t 6.0.O.4.Q.",
"vX].,XvX,X'.bXcXA.5.k.f.;.W.E.r.!.fXfX8.H.oXi.8.R.W.r.aXhXaX2.g.J.M B / N [ vXeX.X:XwX3XC.kXhX8X;.h.h.5.3X3X*X5.k.f.+.W.W.e.R.hX",
"'.P ] ].m.L ].].S t ;.o.: 9.&.@.4.U.U.e M 5.y u &.&.@.B.V.N.q =.*.n * j z c n.n.U W ].m.i F.F.4.| =.*.b [.'.( b =.=. .+.9.@.%.U."
};
