/* XPM */
static char *_cccc6a11dec4d81d7cff6e929c15af07W9sUETflWSIhSVx[] = {
/* columns rows colors chars-per-pixel */
"64 64 204 2 ",
"   c #9C452A",
".  c #944C2D",
"X  c #9C4A2D",
"o  c #8C4D32",
"O  c #944D33",
"+  c #9B4D32",
"@  c #8C5334",
"#  c #945236",
"$  c #9C5336",
"%  c #95533A",
"&  c #9D533A",
"*  c #935F3A",
"=  c #9B5A3D",
"-  c #A14C2F",
";  c #A44D32",
":  c #A94F35",
">  c #A45335",
",  c #A95434",
"<  c #A55936",
"1  c #AC5937",
"2  c #A4553B",
"3  c #AB543B",
"4  c #A35A3D",
"5  c #AB5B3D",
"6  c #B35637",
"7  c #B3553C",
"8  c #B25C3D",
"9  c #BB5E3C",
"0  c #A2603E",
"q  c #B2623F",
"w  c #BE623D",
"e  c #965B43",
"r  c #9D5C42",
"t  c #9D5F48",
"y  c #A35643",
"u  c #AB5641",
"i  c #A45C43",
"p  c #AB5D43",
"a  c #A45D49",
"s  c #AC5F48",
"d  c #B15443",
"f  c #B35E43",
"g  c #BB5C43",
"h  c #B45E4B",
"j  c #BB5E4B",
"k  c #9D6244",
"l  c #9D644B",
"z  c #9D684B",
"x  c #A46245",
"c  c #AC6345",
"v  c #AE6947",
"b  c #A4644A",
"n  c #AC644B",
"m  c #A56A4D",
"M  c #AC6A4C",
"N  c #B36345",
"B  c #BB6346",
"V  c #B66847",
"C  c #BA6946",
"Z  c #B3654B",
"A  c #BA654B",
"S  c #B46A4D",
"D  c #BB6A4D",
"F  c #BA704D",
"G  c #AD6751",
"H  c #A56D52",
"J  c #AC6C52",
"K  c #B46650",
"L  c #BA6650",
"P  c #B46C52",
"I  c #BB6D53",
"U  c #B26F59",
"Y  c #BB6F58",
"T  c #A77254",
"R  c #AC7255",
"E  c #A47758",
"W  c #AE7459",
"Q  c #B47255",
"!  c #BC7255",
"~  c #B27A57",
"^  c #BB7956",
"/  c #B4745A",
"(  c #BC745B",
")  c #B5795C",
"_  c #BC7A5D",
"`  c #BC7561",
"'  c #B57C61",
"]  c #BD7C62",
"[  c #C25E44",
"{  c #C06047",
"}  c #C46947",
"|  c #C2654B",
" . c #C36C4D",
".. c #CB6D4E",
"X. c #C6704F",
"o. c #C16550",
"O. c #C36D53",
"+. c #C96F55",
"@. c #C96E59",
"#. c #C37355",
"$. c #CA7455",
"%. c #C47A57",
"&. c #CB7956",
"*. c #C3745B",
"=. c #CA755B",
"-. c #C47B5B",
";. c #C27A5D",
":. c #C5795D",
">. c #C67C5F",
",. c #C47A5D",
"<. c #C9785D",
"1. c #C87B5F",
"2. c #CB7B5D",
"3. c #D2735D",
"4. c #D27B5C",
"5. c #C37761",
"6. c #CE7660",
"7. c #C87660",
"8. c #C77A62",
"9. c #C17E62",
"0. c #C77D62",
"q. c #C67C61",
"w. c #C17F65",
"e. c #C47C63",
"r. c #CA7961",
"t. c #C97D63",
"y. c #CB7F65",
"u. c #CF7F64",
"i. c #CB7D62",
"p. c #C57E68",
"a. c #CD7E69",
"s. c #D27D63",
"d. c #DA7C62",
"f. c #D27F69",
"g. c #D87B69",
"h. c #BE805F",
"j. c #AF8263",
"k. c #B48565",
"l. c #BD8064",
"z. c #BC8264",
"x. c #B58867",
"c. c #B78169",
"v. c #BE866B",
"b. c #BD8469",
"n. c #BE8B6E",
"m. c #C4825F",
"M. c #CB815F",
"N. c #D1815C",
"B. c #C38265",
"V. c #C88067",
"C. c #CD8165",
"Z. c #CB8264",
"A. c #C48965",
"S. c #C48268",
"D. c #C6846A",
"F. c #C3856C",
"G. c #C5846A",
"H. c #CB836A",
"J. c #CD8368",
"K. c #CB8468",
"L. c #CF856A",
"P. c #C9866C",
"I. c #CD856C",
"U. c #CB846A",
"Y. c #C58A6D",
"T. c #CC896C",
"R. c #D38265",
"E. c #D98265",
"W. c #D48A67",
"Q. c #D0826B",
"!. c #D1846A",
"~. c #D2876D",
"^. c #D7876C",
"/. c #D3846B",
"(. c #D9846B",
"). c #D0886F",
"_. c #D68C6F",
"`. c #D38A6D",
"'. c #DB8A6D",
"]. c #CC916F",
"[. c #CB8770",
"{. c #C88670",
"}. c #C48D72",
"|. c #CD8C73",
" X c #D48771",
".X c #D38C72",
"XX c #DB8C74",
"oX c #C59071",
"OX c #CE9475",
"+X c #CE957B",
"@X c #D39173",
"#X c #DA9275",
"$X c #DA9A77",
"%X c #D4947C",
"&X c #DB957B",
"*X c #DB9479",
"=X c #D79B79",
"-X c #DC9B7E",
";X c #E28067",
":X c #E19174",
">X c #E29279",
",X c #E19A7C",
"<X c #DB9E89",
"1X c #E19980",
/* pixels */
"G G m l v.H T H l ' ` m / J z W s y n x J x b m b U U m n G J 5.K & h p *.u i s i Y *.i s r M ] / J / U ) G H G t J J / I K *.q.",
"n Y / P F./ ] b./ e.` e.{.] ] ] P ) P P m i Y U a J J G ( G / U.I.r.*.L 7.L =.*.D R.C.*.0.0.J._ Q P.F.] S.] _ ' P.*XH.( Y *.C.(.",
"2 K K n Z i K U K n s Y 5.Z J b x ( m K r % 5.P 5.i.5.K I p n n N #.N 1 7 8 X. .B B 8 D #.V D p S _.! :.Q S H.B.! *.A #.=.D D  .",
"h L j h Y L *.I y 2 2 p s 2 p y u P b G Z p ` K K P P K P Z #.A N *.C C B C &.C 8 f 8 D #.V D N 5 I Y ^ p p *.! c N > N N 7 f 8 ",
"@.=.@.O.6.A O.A L *.r.O.L A I @.L O.A f 8.;.! Q U 9.Q ! #.;.y.:.^ ;.#.:.>.-.Z.#.*.<.i.C.r.H.~.~.;.;.)  XI.( e.K ( I.*.~.y.=.*.=.",
"u g A B O.3 8 c 4 S I 4 2 & u L 7 d u 2 ( S y x = P 4 # 4 4 N #.Q / _ ) Q x n c c x i i i J ( a.( J P P ] n b K = ( s x N i I H.",
"M M c S *.Z i x i m J m m b K ( s Y L I q.Z S Q Q _ ! N #.D #.W.#X|.@X|.w.K P Q m ( P G n ` {.{./ ] ] ] b.l Q F.w.-X) K n n ( P ",
"n ^ Q ! 5.L S _ ^ ~ ) z.z.P ) ( ^ ~.Q ( ^ n ^ ! S c F #.&.D D I e._ P Q P P ^ ( K 5./ U.` J U / ] ] ] F..X' ] U / / b w.] ( |._ ",
"& n u s u p p Y Y Q J P b s s y p P . & $ $ S c c N $ 5 N 1 5 5 p P s n p i U y i i i P b = r = c S x n $ 4 F $ n $ . 4 0 < $ 4 ",
"( H.K I 7.O.5.8.) e./ w.Y b P I L *.h L D D :.R.2.C.#.#.R.&.2.s.#.H.( *.q.e.Q.i.^ 5.5.P.9._ e.e.^ 2.I *.#.! ~.;.2.-.#.Z.X.S N #.",
"m J r i Y s I K G ) b m r = / 5.j o.o.$.=.c p N S ! N N B B O.L N I L K #.:.#.;.q.*.M M x K ( I A D f #.R.#.L p N XX#.I N S (.! ",
"i b G G / G b i i J i i r b ` ( L L I D =.u N 5 5 2.V 2 A A B O.s L A L *.#.-.2.<.! N N c S I c L p y N r.*.A u u ! N 2 y u *.A ",
"/ e.p.D.|.p.5.) U Q K P ( ) w.D.^ ;.I L :.=.(.r.O.s.s.s.(.s.s.*.=.2.#.4.&.#.E.N.2.4.&.4.&.&.E.4.Y 5.5.a.H.q.Q.7.a.a.i.H.i.I i.I.",
"i U t G b y n x Z M n S ( P Q ( k R k M c S #.D 5 g ; 5 L i & i c V > 5 > X C q 8 q 8 q 8 6 C N s I p n p & q.( i P M #.K b G a ",
"K 8.P J m m ( Q K ( S ! B._ _ ~ ~ S.Q _ ^ :.>.i.! #.I H.U.Q Q R ( _ P P F S ! ! S D D F D V D N f ^ n I D S Z.#.D M S ^ n S n n ",
"Q ] ` / w.|.@X Xq.*.Z I 2.S ;._ Q Q Q ( i._ I ( _ P.;.) _ _ A.T._ S._ ' A.S.;._ ;.:.>.! D D r.*.r.2.! ! ! -.%.%.&.Z.! ;.S ! T.;.",
"b b b b P i p s i ! 4 5 f 4 D S k b b n *.u h i i U n & % 2 y P G M b b J O Z i y I u s p & Z $ 4 3 2 5 V 8 8 , , w - 3 5 p i.x ",
"8.~.] 5.i.5./.Q.i.Q.Y Y 5.$.i.m./ _ ! #./.*.*.q.q. Xi.Q.i.*.y.V._ ^ _ ( 0.H.#.*.=.r.O.=.#.! 2.2.#.s.=.&.4.&.&... .d.O. .Y ! *.n ",
"h a.5.p.5.L *.L ( ( I *.*.K S n S D F #.D c S c u 3 : +.O.A P x c *.#.! #.2.#.B f B  .O.O.#.%.#.I =.N p B O.4. .D $.=.Q.I ( ( n ",
"I 5.h n K L *.L I ! ( i.*.Z P S D N q f N N I N N f g | L O.I c 2 -.D D V c #.> ; > 8 f q N 1 + f B u V I D #.3 5 2 < Z i # o = ",
"-.Z.K.T.~.*.2.R.2.J.-.W.R.%.2.S N #. .O.E.I D #.%.2.2.$.O.O.-.i.;._ -.m.-.-.'.=.| O.| 3.4.$.3.s.E./.6.s.H.r.#XZ.:.( S V.B.] h.A.",
"x = x m P = 4 4 $ i $ 0 c c ! 4 $ > > p S X . x y S p p A > V P c k x Q M c N V f B 8 B 8 , B D p h p P I c P i I ! ! ;.S Q ~ x ",
") W ' c.b.U ] ` ' D./ / P P e._ ! S Z 5.e.( Q R Q A.] P ( ( w.P m ~ R ) / k M M p ! L S S c ^ ! N N N P ( K M i 4 ( P I S S S 4 ",
"<X<Xc.}.}.F.%X{.F.b.' p.e.I ' A.S.T.e.8._ ' A.Y.F.' z.P. X/ Q ] b.%XoX) z./ B.] ^ K.Z.K.V.9.P.q.i.R.i.8.H.i.~. XI.*.;.i.>.-.M.^ ",
"J Y e i n & K y a t % K y . m M x / i u u Z n b l T l b i 2 i s b / b @ O % n i & p p S M O b x c S 2 < $ & Z 4 & 3 4 D u X < c ",
"K XXa.Z ! *.f.L K I q.XX'.J./.L.V.J.Y =.Y P e./ ] F.9.H.Q.=.=.*.e.{./ K _ U *.*.A #.! r.r.L q.*.-.i.S I I S -.S I *.B $.=.B B N ",
"$.&.:X=.X.B }  .X.M. .#.X.X.N.#.O.O.D O.M.D Q M M *.*.=.=.$.&.#.5.9.;.B.-.S #.=.4.d.+.O.O.o.=.*.i.2.Q -.Z.M.~.M.R.E.D O.X.2.'. .",
"D V p V N   8 , , C , 8 6 1 } , : : > > S 0 # = i D B g 7 8 S 0 c c $ 4 V < 3 N N  .7 ; X 5 D N 4 i $ x V c V 5 N 2.3 - > D D + ",
"] T.A.A.T.K.J.J.m.2.>.2.2.2.R.Z.-.M.Z.m.0.;.A.l.T.@X~.R.Z.Z.W.M.;.;.;.R.>.#.M.2.2.W.-.%.! _ _ / ;.B._ 0.Z.Z.Z.! *.&.Z.4.*.^..X! ",
"J l.J ) M n 5.( ^ Q P >.r.c n c x ^ 4 n c x ) J k v n I F c c S S *.S I ! S F %.V ! F ;._ / ) / ^ ] ! Q I ! %.S #.#.! :.;.! Q _ ",
"e.( G r % n 5.Z S Q b ! ( 2 M x x ^ & & x s P J x b n I D 3 4 N s A s n O + D #.L L K I I n G G P Q J n x 0 S 5 N $ $ n = r b b ",
"5.|.S.P.H.( XXf.H.)./.C.(./.#X|.A.T.XX^./.Q.a.8.H.~.r.6.s.=.2.r.i.I.i. XH.r.C.y.a.f.a.8.a.5.p.5.^ >.Z.~.J.Z.M.#.Z.W.i.C.0.0.] m ",
"r # k / Y 2 3 3 p #.8 5 > 3 D x = = s A @.N N p D s.f N | f X.V n K P q.( n i Z K ;.Z p K P ! Y &.w 9 } +.8 , < f D 6 : d B &.N ",
"l.M m J Y 5.g./.R.-.p 5 | g O.D S S Z O.r.B I #.O.=.O.| | B &.! p G ( H.H.P K G ( T.J M P Z ;.D 9 w 9 } $.A 5 A A O.3 7 { g &.1 ",
"K.`.Y.Y.{.p.*XOX^ A.~ W.s.s.y.r.<.W.=.d.(.r.`.@XJ.( %.s./.4.W.-.B.D.9.S.z._ G._ ( D.P.B.w.w.P.~.J.^.Z.^.|.I.|.S.[.Q.E.y.R.M.W.%.",
"p Q = r k % R l @ * 0 m Z + y 2 3  .f 3 3 2 S m S = 4 c N 2 c v b P x = x m / = = x % m J n ( J / Q l b l J / % r b i I v c v v ",
"! ~.D.T.S./ F.G.h.E ~ Q S.x Q P O.s.=.#.#.S h.h.~ h.~ ^ ^ S ~ ^ Q 9._ / ] _ D.J J Q m ] _ m ] ] S.G.J W ' b.F./ / p.^ P.! P ! ! ",
"#.! _ S..X.X.X#XA.T.A.A.G._ }.[.J.i.O.^.#X_ h.A.z.OXh.h.m.~ m._ 9.9./ P ) P ] ] |.S._ T..XP.D.P.T.Y.b.|.Y.) ] ] a.w.a.] B.D.P.D.",
"c 0 c n I h s h N Y *.i i r W H x $ $ n ^ 4 = 0 M _ x x 4 = c P M c 4 4 S x M S b P = b i 4 Y Z K Z P ^ M = = = b ! k b m k / r ",
"%.-.D Z.>Xf.XX(.s.'.Q.~.[.@XOXS.z.A.S.K.$XL.).S.Z.*XZ.L.i.V.V.5.i.*.*.*..XZ._ ( P a.5.I ( e.I.( ! q.B._ P.m.#.#.! /.m.h.h.m.`._ ",
" .2.B ! D A ^.*.f D A #.#.p Y P _ `.! ;.>.i.^.! r.*.Y /. XL K N I .X! *.:.q.y.r.I L ;.I.H.I *.Y ( |.m J ( _ /.^.R.&.2.M.N.X.$. .",
"8 &.N c 4 4 ! 5 > > > 2 s s A P #.Z.= x x p *.c s N 4 D I u u + p P n Z x x ! M M x i Z Z 4 n & a i @ k # i V.N V N 0 F &.B 8 6 ",
"'.:XW.R.T.T.@XP.Z.R.W.s.^.XXXXXX*X*XV.`.*X`..XJ._ .XT.T.[.H. XH.H. XV.9.9._ .XT.P.9.B._ _ ;.5.^ ] e.] T._ R #X_ B.A.T.OX=X$XZ.L.",
"D N A n ^ h.M Q P #.N c n c :.I #.I S _ l.Q M Q Q A.) R / ] D.( J Q P Q _ Q Q S S ! B.;.Q ( ( ! M P M ] T.J / R Q z.T T ~ ) A.A.",
"p i b a m Q m n n O.4 f n i _ P P S = P ^ m m 4 m / m z E T W J b y x n m a Q i i Q x S x < ! c 4 < 0 ! ^ i n b l G b l m U G n ",
"B..X X XD.~ Y.D.i.f.*.Q.T.D.T.H.:.T.K.@X@X_ 0.T.a.[.F.oXn.oX+X}./ 5.p..X.X X#XV.).@X! :.:.! _.2.&.N.;XE.s.I  X|.] <X] e.p.5. Xe.",
"K ( K ` G e / J ( I A I P M M P S P c M ( Y B L L A n R W U W J n ( s K ( Y *.( #.! A #.#.!  .D B &.C B j g a.( m P I ! #.O.*.O.",
") *.Y Y U e.U.U I *.I ^ Q M m Q S Z.P ( ( A I B O.L Y _ G l R M *.i.s P S I q.p p S 4 I D f B I D 4.} | j f (.P J n x S ! 5 5 2 ",
" X.X~.XX/. X(.XX^.C.:.Z.Z.-.Z.Z.W.#X'.,X.X:.i.i.f.^.^.J.K.l.OX^ #.E.i.).1XXXa.a.B.>.m.#X*.S :.R.M._.R.E.(.s.>XXXI.&XS.OX-XB.l.A.",
"z J M I Z 4 3 f S ! S Z S v F v 4 5 F A._ m i M Z I D ! S m ) m . f n J M i s / S ~ S ! ! ! P b V v ! D L Z p s b ) / J b = m m ",
"k.x.z.v.z./ e.i.*.e.( Y Q Q ;._ Q J ) |.P.` U ` Q ( ( _ P / {.e.*.( K Q ] / P Q Q _ P Y L Z Q w.J / P ] ` J G i b c.' H J / w.w.",
"E j.k.b.v./ |.5.5.w.*.i.H.S.D.A. XP.( S.D.] {.] S.S.5.B.( 5. Xa.C.i.q.p.S.` ' 9.] ] *././.( ( p.D.D.] _ ` ] ] F.F.|.b.] F.p.U. X",
"% H P m m t P i i i y L P M K J n x $ y p a P b x x c S S S =.I I B 5 Z S c n c Z S c S S 4 s > 2 M n A s n M M x r x P n p h L ",
"*./.a.( ' ) D.( 5.i.*.*.*.*.i.*.#.#.#.=.5.( 5.5._ _ ;.;.-.*.6.#.&.$.O.&.&.! =.*.#.2.W._.Z.! <.=.O.f.P #.*.Y J._ S P ! J.H.=.s.s.",
"|  .| D ;.P S c P e.=.@.I L *.D O.+.=.=.6.( I ( ( m.^ ^ #.-.*.2.........=.#.-.m.-.&.$.#.>.Q G..Xi.*.*.#.i.<.! ! l.S.^ B.Z.^ r.! ",
"g 7 3 3 S < $ c i Z N f > 2 A B : h p A I i y y i S c M M Q c S 8 B [ [ B 0 x c i S Z S Q k H / P I I P P x M M F M 0 x $ = F 4 ",
"&.#.&.r.W.:.~.i.K.~.*.Y #.#.Z.2.y.*.( 5.U.] |.{.H.H.5.B.A._ F.A.B./.=.g.g.5.D.] ' P.P.w.G.v.n.{.] {.p.D.U.8.I.p.V.J.9.I.).P.P.m.",
"! ! I ! ! b I K S Q I *.! S S A I B.U U b a ] J n n ( V.Q T ) m k ] I L a U W W b M J / ' W z e b U / ` ] ` Y A K I 5.i.( J M R ",
"P *.A K M M 5.K m G M Q ( M n c 0 Q b b e t / i s p D r.P b b o = Q i a G m ' U a n p c b r e e e l z l b a b n n x D S c 4 x v ",
"*.6.5.a.5.` [.] T.|.D. X.XP. Xi.L.T.l.A.b.p.S.P.y.s.=.=.R.Z.A.B.S.|.S.P.<X' }.] ) *.*.=.6.i.p.{.' n.' v.}.] P.^ V.2.i.s.2.-.M.B.",
"d d d *.M r i G t ] Y Y P Z *.n c v v M ~ 0 = c 2 B B N C N 5 S b m G n s P n J 0 S N g g 8 S P t b @ i m 4 V N 8 B C B B g  .N ",
"j j h Y Q J G G a 8.L o.Y D *.N < S v Q 0.x c S c V N N B C  .#.x m G h L 6.0.;.^ %. .} [ g O.Q G ) _ ] Q c c c f D |  .D C  .B ",
"^.(.r.P.v.l.U.q.i.f.3.d.E.4.R.-.B./.5.a.~.w.J.T.T.L.`.W.Z.Z.s.*.B.[.p.a.a.5..XH.`.~.3.d.d.d.H.5.{. Xp.p.D.D.@XP.:.i.2.2.2.2.W.2.",
"S v x Q m @ x M B d g | B 8 < N A A K Y K P J Q ~ ~ ~ Q S D L Y U U a s a Y *.b n D B | 7 - y i a ` a t l b / x S P I D D S I #."
};
